<svg width="342" height="76" viewBox="0 0 342 76" fill="none" xmlns="http://www.w3.org/2000/svg">
<path d="M16.2969 48.3027C14.8659 48.9954 12.9974 49.3418 10.6914 49.3418C7.68359 49.3418 5.31836 48.4577 3.5957 46.6895C1.87305 44.9212 1.01172 42.5651 1.01172 39.6211C1.01172 36.4857 1.97786 33.9427 3.91016 31.9922C5.85156 30.0417 8.36719 29.0664 11.457 29.0664C13.3711 29.0664 14.9844 29.3079 16.2969 29.791V34.043C14.9844 33.2591 13.4896 32.8672 11.8125 32.8672C9.97135 32.8672 8.48568 33.446 7.35547 34.6035C6.22526 35.7611 5.66016 37.3288 5.66016 39.3066C5.66016 41.2025 6.19336 42.7155 7.25977 43.8457C8.32617 44.9668 9.76172 45.5273 11.5664 45.5273C13.2891 45.5273 14.8659 45.1081 16.2969 44.2695V48.3027ZM25.9629 49.3418C23.6296 49.3418 21.793 48.6901 20.4531 47.3867C19.1224 46.0742 18.457 44.2969 18.457 42.0547C18.457 39.7396 19.1497 37.9303 20.5352 36.627C21.9206 35.3145 23.7936 34.6582 26.1543 34.6582C28.4785 34.6582 30.3014 35.3145 31.623 36.627C32.9447 37.9303 33.6055 39.6576 33.6055 41.8086C33.6055 44.1328 32.9219 45.9694 31.5547 47.3184C30.1966 48.6673 28.3327 49.3418 25.9629 49.3418ZM26.0723 37.9668C25.0514 37.9668 24.2585 38.3177 23.6934 39.0195C23.1283 39.7214 22.8457 40.7148 22.8457 42C22.8457 44.6888 23.9303 46.0332 26.0996 46.0332C28.1686 46.0332 29.2031 44.6523 29.2031 41.8906C29.2031 39.2747 28.1595 37.9668 26.0723 37.9668ZM35.6836 48.6309V45.5C37.0326 46.1198 38.377 46.4297 39.7168 46.4297C41.6582 46.4297 42.6289 45.8965 42.6289 44.8301C42.6289 43.7272 41.5716 43.1758 39.457 43.1758H37.502V40.5098H39.4844C41.2982 40.5098 42.2051 39.9811 42.2051 38.9238C42.2051 37.985 41.3939 37.5156 39.7715 37.5156C38.5501 37.5156 37.3288 37.7891 36.1074 38.3359V35.3691C37.748 34.8952 39.2292 34.6582 40.5508 34.6582C44.625 34.6582 46.6621 35.9206 46.6621 38.4453C46.6621 40.1953 45.5775 41.2754 43.4082 41.6855V41.7539C44.5566 41.8542 45.4544 42.2005 46.1016 42.793C46.7487 43.3854 47.0723 44.1374 47.0723 45.0488C47.0723 47.8652 44.7891 49.2734 40.2227 49.2734C38.4818 49.2734 36.9688 49.0592 35.6836 48.6309ZM64.709 54.0996H61.1816V49H51.7617V54.0996H48.2891V45.9512H49.5332C51.5111 42.8522 52.5547 39.2018 52.6641 35H62.4941V45.9512H64.709V54.0996ZM58.1738 45.9512V38.0215H56.0273C55.8177 40.9746 55.0521 43.6178 53.7305 45.9512H58.1738ZM78.873 49H74.7852V46.9902H74.7305C73.7917 48.5579 72.4017 49.3418 70.5605 49.3418C69.2025 49.3418 68.1315 48.959 67.3477 48.1934C66.5729 47.4186 66.1855 46.3887 66.1855 45.1035C66.1855 42.3874 67.7943 40.8197 71.0117 40.4004L74.8125 39.8945C74.8125 38.3633 73.9831 37.5977 72.3242 37.5977C70.6562 37.5977 69.0703 38.0944 67.5664 39.0879V35.834C68.168 35.5241 68.9883 35.2507 70.0273 35.0137C71.0755 34.7767 72.028 34.6582 72.8848 34.6582C76.877 34.6582 78.873 36.6497 78.873 40.6328V49ZM74.8125 43.3125V42.3691L72.2695 42.6973C70.8659 42.8796 70.1641 43.513 70.1641 44.5977C70.1641 45.0898 70.3327 45.4954 70.6699 45.8145C71.0163 46.1243 71.4811 46.2793 72.0645 46.2793C72.8757 46.2793 73.5365 46.0013 74.0469 45.4453C74.5573 44.8802 74.8125 44.1693 74.8125 43.3125ZM92.7637 38.2812H89.0176V49H84.6699V38.2812H80.8965V35H92.7637V38.2812ZM95.0332 49V35H99.3535V39.8945H103.045C104.631 39.8945 105.866 40.2819 106.75 41.0566C107.634 41.8223 108.076 42.9023 108.076 44.2969C108.076 45.7279 107.639 46.8717 106.764 47.7285C105.889 48.5762 104.676 49 103.127 49H95.0332ZM99.3535 42.6152V46.252H101.445C102.904 46.252 103.633 45.6276 103.633 44.3789C103.633 43.2031 102.922 42.6152 101.5 42.6152H99.3535ZM132.412 49H127.23L122.814 42.1641H122.76V49H118.439V35H122.76V41.5762H122.814L127.121 35H132.248L127.094 41.6582L132.412 49ZM138.482 47.373H138.428V55.4395H134.107V35H138.428V37.1055H138.482C139.549 35.474 141.048 34.6582 142.98 34.6582C144.794 34.6582 146.193 35.2826 147.178 36.5312C148.171 37.7708 148.668 39.4616 148.668 41.6035C148.668 43.9368 148.089 45.8099 146.932 47.2227C145.783 48.6354 144.252 49.3418 142.338 49.3418C140.652 49.3418 139.367 48.6855 138.482 47.373ZM138.359 41.6309V42.752C138.359 43.7181 138.615 44.5065 139.125 45.1172C139.635 45.7279 140.305 46.0332 141.135 46.0332C142.119 46.0332 142.88 45.6549 143.418 44.8984C143.965 44.1328 144.238 43.0527 144.238 41.6582C144.238 39.1973 143.281 37.9668 141.367 37.9668C140.483 37.9668 139.758 38.304 139.193 38.9785C138.637 39.6439 138.359 40.528 138.359 41.6309ZM164.049 43.2305H154.916C155.062 45.263 156.342 46.2793 158.758 46.2793C160.298 46.2793 161.652 45.9147 162.818 45.1855V48.3027C161.524 48.9954 159.842 49.3418 157.773 49.3418C155.513 49.3418 153.758 48.7174 152.51 47.4688C151.261 46.2109 150.637 44.4609 150.637 42.2188C150.637 39.8945 151.311 38.0534 152.66 36.6953C154.009 35.3372 155.668 34.6582 157.637 34.6582C159.678 34.6582 161.255 35.2643 162.367 36.4766C163.488 37.6888 164.049 39.334 164.049 41.4121V43.2305ZM160.043 40.5781C160.043 38.5729 159.232 37.5703 157.609 37.5703C156.917 37.5703 156.315 37.8574 155.805 38.4316C155.303 39.0059 154.998 39.7214 154.889 40.5781H160.043ZM178.268 49H174.18V46.9902H174.125C173.186 48.5579 171.796 49.3418 169.955 49.3418C168.597 49.3418 167.526 48.959 166.742 48.1934C165.967 47.4186 165.58 46.3887 165.58 45.1035C165.58 42.3874 167.189 40.8197 170.406 40.4004L174.207 39.8945C174.207 38.3633 173.378 37.5977 171.719 37.5977C170.051 37.5977 168.465 38.0944 166.961 39.0879V35.834C167.562 35.5241 168.383 35.2507 169.422 35.0137C170.47 34.7767 171.423 34.6582 172.279 34.6582C176.271 34.6582 178.268 36.6497 178.268 40.6328V49ZM174.207 43.3125V42.3691L171.664 42.6973C170.26 42.8796 169.559 43.513 169.559 44.5977C169.559 45.0898 169.727 45.4954 170.064 45.8145C170.411 46.1243 170.876 46.2793 171.459 46.2793C172.27 46.2793 172.931 46.0013 173.441 45.4453C173.952 44.8802 174.207 44.1693 174.207 43.3125ZM192.158 38.2812H188.412V49H184.064V38.2812H180.291V35H192.158V38.2812ZM208.346 49H204.422V39.8398C204.066 40.5599 203.684 41.2253 203.273 41.8359L198.516 49H194.428V35H198.379V43.873C198.671 43.2624 198.99 42.6927 199.336 42.1641L204.094 35H208.346V49ZM212.01 49V35H219.83C223.166 35 224.834 36.1393 224.834 38.418C224.834 39.2292 224.57 39.9173 224.041 40.4824C223.521 41.0384 222.842 41.403 222.004 41.5762C223.034 41.7038 223.84 42.0638 224.424 42.6562C225.016 43.2396 225.312 43.9551 225.312 44.8027C225.312 46.0697 224.861 47.0859 223.959 47.8516C223.057 48.6172 221.817 49 220.24 49H212.01ZM216.33 37.6387V40.5781H218.449C219.762 40.5781 220.418 40.0632 220.418 39.0332C220.418 38.1035 219.798 37.6387 218.559 37.6387H216.33ZM216.33 43.1211V46.3066H218.818C220.195 46.3066 220.883 45.7507 220.883 44.6387C220.883 43.627 220.176 43.1211 218.764 43.1211H216.33Z" fill="black"/>
<path d="M335.998 46.396H326.787V55.6074H321.954V46.396H312.694V41.5391H321.954V32.2798H326.787V41.5391H335.998V46.396Z" fill="black"/>
<rect x="1" y="71" width="332" height="5" fill="black"/>
</svg>
