<svg width="342" height="76" viewBox="0 0 342 76" fill="none" xmlns="http://www.w3.org/2000/svg">
<path d="M19.1953 49H14.7793V33.25H6.6582V49H2.24219V29.3945H19.1953V49ZM29.9277 49.3418C27.5944 49.3418 25.7578 48.6901 24.418 47.3867C23.0872 46.0742 22.4219 44.2969 22.4219 42.0547C22.4219 39.7396 23.1146 37.9303 24.5 36.627C25.8854 35.3145 27.7585 34.6582 30.1191 34.6582C32.4434 34.6582 34.2663 35.3145 35.5879 36.627C36.9095 37.9303 37.5703 39.6576 37.5703 41.8086C37.5703 44.1328 36.8867 45.9694 35.5195 47.3184C34.1615 48.6673 32.2975 49.3418 29.9277 49.3418ZM30.0371 37.9668C29.0163 37.9668 28.2233 38.3177 27.6582 39.0195C27.0931 39.7214 26.8105 40.7148 26.8105 42C26.8105 44.6888 27.8952 46.0332 30.0645 46.0332C32.1335 46.0332 33.168 44.6523 33.168 41.8906C33.168 39.2747 32.1243 37.9668 30.0371 37.9668ZM53.6211 49H49.2734V38.0488H46.8945C46.3932 42.2871 45.6413 45.1992 44.6387 46.7852C43.6452 48.3711 42.2507 49.1641 40.4551 49.1641C39.8353 49.1641 39.2747 49.0729 38.7734 48.8906V45.9512C39.0924 46.097 39.4297 46.1699 39.7852 46.1699C40.6419 46.1699 41.3529 45.3724 41.918 43.7773C42.4831 42.1823 42.9935 39.2565 43.4492 35H53.6211V49ZM70.6016 35L64.9141 50.1211C63.5469 53.7578 61.487 55.5762 58.7344 55.5762C57.6862 55.5762 56.8249 55.4577 56.1504 55.2207V51.7754C56.7246 52.1126 57.349 52.2812 58.0234 52.2812C59.1354 52.2812 59.9102 51.7572 60.3477 50.709L61.0859 48.9727L55.3984 35H60.1836L62.7949 43.5176C62.959 44.0462 63.0866 44.6706 63.1777 45.3906H63.2324C63.3145 44.862 63.4648 44.2467 63.6836 43.5449L66.3223 35H70.6016ZM85.5039 49H81.1836V44.1602C79.7161 44.9805 78.2988 45.3906 76.9316 45.3906C73.7598 45.3906 72.1738 43.7865 72.1738 40.5781V35H76.3164V39.8945C76.3164 41.3346 76.959 42.0547 78.2441 42.0547C79.1556 42.0547 80.1354 41.7767 81.1836 41.2207V35H85.5039V49ZM103.072 49H99.1484V39.8398C98.793 40.5599 98.4102 41.2253 98 41.8359L93.2422 49H89.1543V35H93.1055V43.873C93.3971 43.2624 93.7161 42.6927 94.0625 42.1641L98.8203 35H103.072V49ZM117.209 38.2812H113.463V49H109.115V38.2812H105.342V35H117.209V38.2812ZM119.479 49V35H123.799V39.8945H127.49C129.076 39.8945 130.311 40.2819 131.195 41.0566C132.079 41.8223 132.521 42.9023 132.521 44.2969C132.521 45.7279 132.084 46.8717 131.209 47.7285C130.334 48.5762 129.122 49 127.572 49H119.479ZM123.799 42.6152V46.252H125.891C127.349 46.252 128.078 45.6276 128.078 44.3789C128.078 43.2031 127.367 42.6152 125.945 42.6152H123.799ZM154.533 49H150.445V46.9902H150.391C149.452 48.5579 148.062 49.3418 146.221 49.3418C144.863 49.3418 143.792 48.959 143.008 48.1934C142.233 47.4186 141.846 46.3887 141.846 45.1035C141.846 42.3874 143.454 40.8197 146.672 40.4004L150.473 39.8945C150.473 38.3633 149.643 37.5977 147.984 37.5977C146.316 37.5977 144.73 38.0944 143.227 39.0879V35.834C143.828 35.5241 144.648 35.2507 145.688 35.0137C146.736 34.7767 147.688 34.6582 148.545 34.6582C152.537 34.6582 154.533 36.6497 154.533 40.6328V49ZM150.473 43.3125V42.3691L147.93 42.6973C146.526 42.8796 145.824 43.513 145.824 44.5977C145.824 45.0898 145.993 45.4954 146.33 45.8145C146.676 46.1243 147.141 46.2793 147.725 46.2793C148.536 46.2793 149.197 46.0013 149.707 45.4453C150.217 44.8802 150.473 44.1693 150.473 43.3125ZM171.924 49H166.742L162.326 42.1641H162.271V49H157.951V35H162.271V41.5762H162.326L166.633 35H171.76L166.605 41.6582L171.924 49ZM187.592 49H182.41L177.994 42.1641H177.939V49H173.619V35H177.939V41.5762H177.994L182.301 35H187.428L182.273 41.6582L187.592 49ZM200.936 49H196.848V46.9902H196.793C195.854 48.5579 194.464 49.3418 192.623 49.3418C191.265 49.3418 190.194 48.959 189.41 48.1934C188.635 47.4186 188.248 46.3887 188.248 45.1035C188.248 42.3874 189.857 40.8197 193.074 40.4004L196.875 39.8945C196.875 38.3633 196.046 37.5977 194.387 37.5977C192.719 37.5977 191.133 38.0944 189.629 39.0879V35.834C190.23 35.5241 191.051 35.2507 192.09 35.0137C193.138 34.7767 194.09 34.6582 194.947 34.6582C198.939 34.6582 200.936 36.6497 200.936 40.6328V49ZM196.875 43.3125V42.3691L194.332 42.6973C192.928 42.8796 192.227 43.513 192.227 44.5977C192.227 45.0898 192.395 45.4954 192.732 45.8145C193.079 46.1243 193.544 46.2793 194.127 46.2793C194.938 46.2793 195.599 46.0013 196.109 45.4453C196.62 44.8802 196.875 44.1693 196.875 43.3125ZM217.684 35L211.996 50.1211C210.629 53.7578 208.569 55.5762 205.816 55.5762C204.768 55.5762 203.907 55.4577 203.232 55.2207V51.7754C203.807 52.1126 204.431 52.2812 205.105 52.2812C206.217 52.2812 206.992 51.7572 207.43 50.709L208.168 48.9727L202.48 35H207.266L209.877 43.5176C210.041 44.0462 210.169 44.6706 210.26 45.3906H210.314C210.396 44.862 210.547 44.2467 210.766 43.5449L213.404 35H217.684ZM232.914 49H228.58V43.1484H223.74V49H219.42V35H223.74V40.1816H228.58V35H232.914V49ZM247.037 38.2812H243.291V49H238.943V38.2812H235.17V35H247.037V38.2812Z" fill="black"/>
<path d="M335.998 46.396H326.787V55.6074H321.954V46.396H312.694V41.5391H321.954V32.2798H326.787V41.5391H335.998V46.396Z" fill="black"/>
<rect x="1" y="71" width="332" height="5" fill="black"/>
</svg>
