<svg width="342" height="76" viewBox="0 0 342 76" fill="none" xmlns="http://www.w3.org/2000/svg">
<path d="M10.5273 49.3418C7.72005 49.3418 5.43229 48.4303 3.66406 46.6074C1.89583 44.7754 1.01172 42.3919 1.01172 39.457C1.01172 36.3581 1.90951 33.8516 3.70508 31.9375C5.50065 30.0234 7.87956 29.0664 10.8418 29.0664C13.64 29.0664 15.9004 29.9824 17.623 31.8145C19.3548 33.6465 20.2207 36.0618 20.2207 39.0605C20.2207 42.1413 19.3229 44.625 17.5273 46.5117C15.7409 48.3984 13.4076 49.3418 10.5273 49.3418ZM10.7188 32.8672C9.16927 32.8672 7.9388 33.4505 7.02734 34.6172C6.11589 35.7747 5.66016 37.3105 5.66016 39.2246C5.66016 41.166 6.11589 42.7018 7.02734 43.832C7.9388 44.9622 9.13281 45.5273 10.6094 45.5273C12.1315 45.5273 13.3392 44.9805 14.2324 43.8867C15.1257 42.7839 15.5723 41.2572 15.5723 39.3066C15.5723 37.2741 15.1393 35.6927 14.2734 34.5625C13.4076 33.4323 12.2227 32.8672 10.7188 32.8672ZM33.6738 48.4941C32.6986 49.0592 31.2904 49.3418 29.4492 49.3418C27.2982 49.3418 25.5573 48.6901 24.2266 47.3867C22.8958 46.0833 22.2305 44.4017 22.2305 42.3418C22.2305 39.9629 22.9414 38.0898 24.3633 36.7227C25.7943 35.3464 27.7038 34.6582 30.0918 34.6582C31.7415 34.6582 32.9355 34.877 33.6738 35.3145V38.9785C32.7715 38.304 31.7643 37.9668 30.6523 37.9668C29.4128 37.9668 28.4284 38.3314 27.6992 39.0605C26.9792 39.7806 26.6191 40.7786 26.6191 42.0547C26.6191 43.2943 26.9655 44.2695 27.6582 44.9805C28.3509 45.6823 29.3034 46.0332 30.5156 46.0332C31.5911 46.0332 32.6439 45.696 33.6738 45.0215V48.4941ZM46.9902 38.2812H43.2441V49H38.8965V38.2812H35.123V35H46.9902V38.2812ZM60.9082 49H56.8203V46.9902H56.7656C55.8268 48.5579 54.4368 49.3418 52.5957 49.3418C51.2376 49.3418 50.1667 48.959 49.3828 48.1934C48.6081 47.4186 48.2207 46.3887 48.2207 45.1035C48.2207 42.3874 49.8294 40.8197 53.0469 40.4004L56.8477 39.8945C56.8477 38.3633 56.0182 37.5977 54.3594 37.5977C52.6914 37.5977 51.1055 38.0944 49.6016 39.0879V35.834C50.2031 35.5241 51.0234 35.2507 52.0625 35.0137C53.1107 34.7767 54.0632 34.6582 54.9199 34.6582C58.9121 34.6582 60.9082 36.6497 60.9082 40.6328V49ZM56.8477 43.3125V42.3691L54.3047 42.6973C52.901 42.8796 52.1992 43.513 52.1992 44.5977C52.1992 45.0898 52.3678 45.4954 52.7051 45.8145C53.0514 46.1243 53.5163 46.2793 54.0996 46.2793C54.9108 46.2793 55.5716 46.0013 56.082 45.4453C56.5924 44.8802 56.8477 44.1693 56.8477 43.3125ZM64.3262 49V35H72.1465C75.4824 35 77.1504 36.1393 77.1504 38.418C77.1504 39.2292 76.8861 39.9173 76.3574 40.4824C75.8379 41.0384 75.1589 41.403 74.3203 41.5762C75.3503 41.7038 76.1569 42.0638 76.7402 42.6562C77.3327 43.2396 77.6289 43.9551 77.6289 44.8027C77.6289 46.0697 77.1777 47.0859 76.2754 47.8516C75.373 48.6172 74.1335 49 72.5566 49H64.3262ZM68.6465 37.6387V40.5781H70.7656C72.0781 40.5781 72.7344 40.0632 72.7344 39.0332C72.7344 38.1035 72.1146 37.6387 70.875 37.6387H68.6465ZM68.6465 43.1211V46.3066H71.1348C72.5111 46.3066 73.1992 45.7507 73.1992 44.6387C73.1992 43.627 72.4928 43.1211 71.0801 43.1211H68.6465ZM94.4863 49H90.5625V39.8398C90.207 40.5599 89.8242 41.2253 89.4141 41.8359L84.6562 49H80.5684V35H84.5195V43.873C84.8112 43.2624 85.1302 42.6927 85.4766 42.1641L90.2344 35H94.4863V49ZM108.623 38.2812H104.877V49H100.529V38.2812H96.7559V35H108.623V38.2812ZM110.893 49V35H115.213V39.8945H118.904C120.49 39.8945 121.725 40.2819 122.609 41.0566C123.493 41.8223 123.936 42.9023 123.936 44.2969C123.936 45.7279 123.498 46.8717 122.623 47.7285C121.748 48.5762 120.536 49 118.986 49H110.893ZM115.213 42.6152V46.252H117.305C118.763 46.252 119.492 45.6276 119.492 44.3789C119.492 43.2031 118.781 42.6152 117.359 42.6152H115.213ZM133.574 48.6309V45.5C134.923 46.1198 136.268 46.4297 137.607 46.4297C139.549 46.4297 140.52 45.8965 140.52 44.8301C140.52 43.7272 139.462 43.1758 137.348 43.1758H135.393V40.5098H137.375C139.189 40.5098 140.096 39.9811 140.096 38.9238C140.096 37.985 139.285 37.5156 137.662 37.5156C136.441 37.5156 135.219 37.7891 133.998 38.3359V35.3691C135.639 34.8952 137.12 34.6582 138.441 34.6582C142.516 34.6582 144.553 35.9206 144.553 38.4453C144.553 40.1953 143.468 41.2754 141.299 41.6855V41.7539C142.447 41.8542 143.345 42.2005 143.992 42.793C144.639 43.3854 144.963 44.1374 144.963 45.0488C144.963 47.8652 142.68 49.2734 138.113 49.2734C136.372 49.2734 134.859 49.0592 133.574 48.6309ZM159.4 49H155.312V46.9902H155.258C154.319 48.5579 152.929 49.3418 151.088 49.3418C149.73 49.3418 148.659 48.959 147.875 48.1934C147.1 47.4186 146.713 46.3887 146.713 45.1035C146.713 42.3874 148.322 40.8197 151.539 40.4004L155.34 39.8945C155.34 38.3633 154.51 37.5977 152.852 37.5977C151.184 37.5977 149.598 38.0944 148.094 39.0879V35.834C148.695 35.5241 149.516 35.2507 150.555 35.0137C151.603 34.7767 152.555 34.6582 153.412 34.6582C157.404 34.6582 159.4 36.6497 159.4 40.6328V49ZM155.34 43.3125V42.3691L152.797 42.6973C151.393 42.8796 150.691 43.513 150.691 44.5977C150.691 45.0898 150.86 45.4954 151.197 45.8145C151.544 46.1243 152.008 46.2793 152.592 46.2793C153.403 46.2793 154.064 46.0013 154.574 45.4453C155.085 44.8802 155.34 44.1693 155.34 43.3125ZM175.109 49H170.83V43.7637H169.846C169.089 43.7637 168.401 44.4336 167.781 45.7734L166.291 49H161.479L163.516 45.0215C164.135 43.8184 165.006 43.0527 166.127 42.7246C163.794 42.3236 162.627 41.1113 162.627 39.0879C162.627 36.3626 164.623 35 168.615 35H175.109V49ZM170.83 41.1934V37.748H169.203C167.708 37.748 166.961 38.3177 166.961 39.457C166.961 40.6146 167.708 41.1934 169.203 41.1934H170.83ZM178.732 49V35H186.553C189.889 35 191.557 36.1393 191.557 38.418C191.557 39.2292 191.292 39.9173 190.764 40.4824C190.244 41.0384 189.565 41.403 188.727 41.5762C189.757 41.7038 190.563 42.0638 191.146 42.6562C191.739 43.2396 192.035 43.9551 192.035 44.8027C192.035 46.0697 191.584 47.0859 190.682 47.8516C189.779 48.6172 188.54 49 186.963 49H178.732ZM183.053 37.6387V40.5781H185.172C186.484 40.5781 187.141 40.0632 187.141 39.0332C187.141 38.1035 186.521 37.6387 185.281 37.6387H183.053ZM183.053 43.1211V46.3066H185.541C186.917 46.3066 187.605 45.7507 187.605 44.6387C187.605 43.627 186.899 43.1211 185.486 43.1211H183.053ZM208.947 49H203.766L199.35 42.1641H199.295V49H194.975V35H199.295V41.5762H199.35L203.656 35H208.783L203.629 41.6582L208.947 49ZM223.973 35L218.285 50.1211C216.918 53.7578 214.858 55.5762 212.105 55.5762C211.057 55.5762 210.196 55.4577 209.521 55.2207V51.7754C210.096 52.1126 210.72 52.2812 211.395 52.2812C212.507 52.2812 213.281 51.7572 213.719 50.709L214.457 48.9727L208.77 35H213.555L216.166 43.5176C216.33 44.0462 216.458 44.6706 216.549 45.3906H216.604C216.686 44.862 216.836 44.2467 217.055 43.5449L219.693 35H223.973Z" fill="black"/>
<path d="M335.998 46.396H326.787V55.6074H321.954V46.396H312.694V41.5391H321.954V32.2798H326.787V41.5391H335.998V46.396Z" fill="black"/>
<rect x="1" y="71" width="332" height="5" fill="black"/>
</svg>
