<svg width="2182" height="1175" viewBox="0 0 2182 1175" fill="none" xmlns="http://www.w3.org/2000/svg">
<path d="M551.565 606.333L565.656 759.371C567.332 777.566 548.143 790.356 531.993 781.808L383.427 703.17C367.277 694.622 367.063 671.563 383.052 662.717L517.528 588.317C532.051 580.282 550.044 589.805 551.565 606.333Z" stroke="#3BE9AB" stroke-opacity="0.12" stroke-width="16"/>
<path d="M1193.69 205.317H1182.04V216.973H1175.92V205.317H1164.21V199.172H1175.92V187.456H1182.04V199.172H1193.69V205.317Z" fill="#48D8A5"/>
<path d="M148.691 552.317H137.036V563.973H130.921V552.317H119.205V546.172H130.921V534.456H137.036V546.172H148.691V552.317Z" fill="#48D8A5"/>
<path d="M14.0391 29.4883C10.0286 29.4883 6.76042 28.1862 4.23438 25.582C1.70833 22.9648 0.445312 19.5599 0.445312 15.3672C0.445312 10.9401 1.72786 7.35938 4.29297 4.625C6.85807 1.89062 10.2565 0.523438 14.4883 0.523438C18.4857 0.523438 21.7148 1.83203 24.1758 4.44922C26.6497 7.06641 27.8867 10.5169 27.8867 14.8008C27.8867 19.2018 26.6042 22.75 24.0391 25.4453C21.487 28.1406 18.1536 29.4883 14.0391 29.4883ZM14.3125 5.95312C12.099 5.95312 10.3411 6.78646 9.03906 8.45312C7.73698 10.1068 7.08594 12.3008 7.08594 15.0352C7.08594 17.8086 7.73698 20.0026 9.03906 21.6172C10.3411 23.2318 12.0469 24.0391 14.1562 24.0391C16.3307 24.0391 18.056 23.2578 19.332 21.6953C20.6081 20.1198 21.2461 17.9388 21.2461 15.1523C21.2461 12.2487 20.6276 9.98958 19.3906 8.375C18.1536 6.76042 16.4609 5.95312 14.3125 5.95312ZM47.9055 28.2773C46.5122 29.0846 44.5005 29.4883 41.8703 29.4883C38.7974 29.4883 36.3104 28.5573 34.4094 26.6953C32.5083 24.8333 31.5578 22.431 31.5578 19.4883C31.5578 16.0898 32.5734 13.4141 34.6047 11.4609C36.649 9.49479 39.3768 8.51172 42.7883 8.51172C45.1451 8.51172 46.8508 8.82422 47.9055 9.44922V14.6836C46.6164 13.7201 45.1776 13.2383 43.5891 13.2383C41.8182 13.2383 40.412 13.7591 39.3703 14.8008C38.3417 15.8294 37.8273 17.2552 37.8273 19.0781C37.8273 20.849 38.3221 22.2422 39.3117 23.2578C40.3013 24.2604 41.662 24.7617 43.3937 24.7617C44.9302 24.7617 46.4341 24.2799 47.9055 23.3164V28.2773ZM67.7289 13.6875H62.3773V29H56.1664V13.6875H50.7758V9H67.7289V13.6875ZM88.4117 29H82.5719V26.1289H82.4938C81.1526 28.3685 79.1669 29.4883 76.5367 29.4883C74.5966 29.4883 73.0667 28.9414 71.9469 27.8477C70.8401 26.7409 70.2867 25.2695 70.2867 23.4336C70.2867 19.5534 72.5849 17.3138 77.1813 16.7148L82.6109 15.9922C82.6109 13.8047 81.426 12.7109 79.0563 12.7109C76.6734 12.7109 74.4078 13.4206 72.2594 14.8398V10.1914C73.1188 9.7487 74.2906 9.35807 75.775 9.01953C77.2724 8.68099 78.6331 8.51172 79.857 8.51172C85.5602 8.51172 88.4117 11.3568 88.4117 17.0469V29ZM82.6109 20.875V19.5273L78.9781 19.9961C76.9729 20.2565 75.9703 21.1615 75.9703 22.7109C75.9703 23.4141 76.2112 23.9935 76.693 24.4492C77.1878 24.8919 77.8518 25.1133 78.6852 25.1133C79.844 25.1133 80.788 24.7161 81.5172 23.9219C82.2464 23.1146 82.6109 22.099 82.6109 20.875ZM94.0945 29V9H105.266C110.032 9 112.415 10.6276 112.415 13.8828C112.415 15.0417 112.037 16.0247 111.282 16.832C110.54 17.6263 109.57 18.1471 108.372 18.3945C109.843 18.5768 110.996 19.0911 111.829 19.9375C112.675 20.7708 113.098 21.793 113.098 23.0039C113.098 24.8138 112.454 26.2656 111.165 27.3594C109.876 28.4531 108.105 29 105.852 29H94.0945ZM100.266 12.7695V16.9688H103.294C105.169 16.9688 106.106 16.2331 106.106 14.7617C106.106 13.4336 105.221 12.7695 103.45 12.7695H100.266ZM100.266 20.6016V25.1523H103.821C105.787 25.1523 106.77 24.3581 106.77 22.7695C106.77 21.3242 105.761 20.6016 103.743 20.6016H100.266ZM137.98 29H132.375V15.9141C131.867 16.9427 131.32 17.8932 130.734 18.7656L123.938 29H118.098V9H123.742V21.6758C124.159 20.8034 124.615 19.9896 125.109 19.2344L131.906 9H137.98V29ZM158.976 13.6875H153.624V29H147.413V13.6875H142.023V9H158.976V13.6875ZM163.018 29V9H169.19V15.9922H174.463C176.729 15.9922 178.493 16.5456 179.756 17.6523C181.019 18.7461 181.651 20.2891 181.651 22.2812C181.651 24.3255 181.026 25.9596 179.776 27.1836C178.526 28.3945 176.794 29 174.58 29H163.018ZM169.19 19.8789V25.0742H172.178C174.261 25.0742 175.303 24.1823 175.303 22.3984C175.303 20.7188 174.288 19.8789 172.256 19.8789H169.19ZM197.02 28.4727V24C198.947 24.8854 200.868 25.3281 202.782 25.3281C205.555 25.3281 206.942 24.5664 206.942 23.043C206.942 21.4674 205.432 20.6797 202.411 20.6797H199.618V16.8711H202.45C205.041 16.8711 206.337 16.1159 206.337 14.6055C206.337 13.2643 205.178 12.5938 202.86 12.5938C201.115 12.5938 199.371 12.9844 197.626 13.7656V9.52734C199.97 8.85026 202.085 8.51172 203.973 8.51172C209.794 8.51172 212.704 10.3151 212.704 13.9219C212.704 16.4219 211.154 17.9648 208.055 18.5508V18.6484C209.696 18.7917 210.979 19.2865 211.903 20.1328C212.828 20.9792 213.29 22.0534 213.29 23.3555C213.29 27.3789 210.028 29.3906 203.505 29.3906C201.018 29.3906 198.856 29.0846 197.02 28.4727ZM234.715 29H228.875V26.1289H228.797C227.456 28.3685 225.47 29.4883 222.84 29.4883C220.9 29.4883 219.37 28.9414 218.25 27.8477C217.143 26.7409 216.59 25.2695 216.59 23.4336C216.59 19.5534 218.888 17.3138 223.484 16.7148L228.914 15.9922C228.914 13.8047 227.729 12.7109 225.359 12.7109C222.977 12.7109 220.711 13.4206 218.562 14.8398V10.1914C219.422 9.7487 220.594 9.35807 222.078 9.01953C223.576 8.68099 224.936 8.51172 226.16 8.51172C231.863 8.51172 234.715 11.3568 234.715 17.0469V29ZM228.914 20.875V19.5273L225.281 19.9961C223.276 20.2565 222.273 21.1615 222.273 22.7109C222.273 23.4141 222.514 23.9935 222.996 24.4492C223.491 24.8919 224.155 25.1133 224.988 25.1133C226.147 25.1133 227.091 24.7161 227.82 23.9219C228.549 23.1146 228.914 22.099 228.914 20.875ZM257.956 29H251.843V21.5195H250.437C249.356 21.5195 248.373 22.4766 247.488 24.3906L245.359 29H238.484L241.394 23.3164C242.279 21.5977 243.523 20.5039 245.124 20.0352C241.791 19.4622 240.124 17.7305 240.124 14.8398C240.124 10.9466 242.976 9 248.679 9H257.956V29ZM251.843 17.8477V12.9258H249.519C247.383 12.9258 246.316 13.7396 246.316 15.3672C246.316 17.0208 247.383 17.8477 249.519 17.8477H251.843ZM263.932 29V9H275.104C279.87 9 282.252 10.6276 282.252 13.8828C282.252 15.0417 281.875 16.0247 281.12 16.832C280.377 17.6263 279.407 18.1471 278.209 18.3945C279.681 18.5768 280.833 19.0911 281.666 19.9375C282.513 20.7708 282.936 21.793 282.936 23.0039C282.936 24.8138 282.291 26.2656 281.002 27.3594C279.713 28.4531 277.942 29 275.69 29H263.932ZM270.104 12.7695V16.9688H273.131C275.006 16.9688 275.944 16.2331 275.944 14.7617C275.944 13.4336 275.058 12.7695 273.288 12.7695H270.104ZM270.104 20.6016V25.1523H273.659C275.625 25.1523 276.608 24.3581 276.608 22.7695C276.608 21.3242 275.599 20.6016 273.58 20.6016H270.104ZM307.896 29H300.494L294.185 19.2344H294.107V29H287.935V9H294.107V18.3945H294.185L300.337 9H307.662L300.298 18.5117L307.896 29ZM330.161 9L322.036 30.6016C320.083 35.7969 317.14 38.3945 313.208 38.3945C311.71 38.3945 310.48 38.2253 309.516 37.8867V32.9648C310.337 33.4466 311.229 33.6875 312.192 33.6875C313.781 33.6875 314.888 32.9388 315.513 31.4414L316.567 28.9609L308.442 9H315.278L319.009 21.168C319.243 21.9232 319.425 22.8151 319.555 23.8438H319.634C319.751 23.0885 319.966 22.2096 320.278 21.207L324.048 9H330.161ZM336.195 15.1914C335.18 15.1914 334.333 14.8854 333.656 14.2734C332.979 13.6484 332.641 12.8802 332.641 11.9688C332.641 11.0312 332.986 10.263 333.676 9.66406C334.379 9.0651 335.251 8.76562 336.293 8.76562C337.348 8.76562 338.207 9.07161 338.871 9.68359C339.548 10.2826 339.887 11.0443 339.887 11.9688C339.887 12.9193 339.542 13.694 338.852 14.293C338.174 14.8919 337.289 15.1914 336.195 15.1914ZM336.195 29.4883C335.18 29.4883 334.333 29.1758 333.656 28.5508C332.979 27.9258 332.641 27.1576 332.641 26.2461C332.641 25.3086 332.986 24.5404 333.676 23.9414C334.379 23.3424 335.251 23.043 336.293 23.043C337.348 23.043 338.207 23.349 338.871 23.9609C339.548 24.5599 339.887 25.3216 339.887 26.2461C339.887 27.1966 339.542 27.9779 338.852 28.5898C338.174 29.1888 337.289 29.4883 336.195 29.4883Z" fill="black"/>
<circle cx="1621.3" cy="614.296" r="330.943" transform="rotate(-47.0396 1621.3 614.296)" stroke="#2CFC73" stroke-opacity="0.22" stroke-width="2"/>
<circle cx="1631.43" cy="656.466" r="245.925" transform="rotate(-47.0396 1631.43 656.466)" stroke="#2CFC73" stroke-opacity="0.22" stroke-width="2"/>
<circle cx="1639.35" cy="678.822" r="204.162" transform="rotate(-47.0396 1639.35 678.822)" stroke="#2CFC73" stroke-opacity="0.22" stroke-width="2"/>
</svg>
