<svg width="2068" height="552" viewBox="0 0 2068 552" fill="none" xmlns="http://www.w3.org/2000/svg">
<path d="M651.852 29.8863L758.977 110.584C771.351 119.905 768.439 139.238 753.868 144.5L615.894 194.326C601.324 199.588 586.731 186.577 590.294 171.5L621.142 40.9766C624.378 27.282 640.612 21.4195 651.852 29.8863Z" stroke="#08A652" stroke-opacity="0.18" stroke-width="23"/>
<path d="M1174.7 360.424H1168.76V366.363H1165.64V360.424H1159.67V357.292H1165.64V351.323H1168.76V357.292H1174.7V360.424Z" fill="white"/>
<path d="M1912 317.301H1902.79V326.513H1897.95V317.301H1888.69V312.444H1897.95V303.185H1902.79V312.444H1912V317.301Z" fill="white"/>
<path d="M490.998 165.301H481.787V174.512H476.954V165.301H467.694V160.444H476.954V151.185H481.787V160.444H490.998V165.301Z" fill="white"/>
<path d="M1217.74 98.4084H1213.37V102.772H1211.08V98.4084H1206.7V96.1077H1211.08V91.7218H1213.37V96.1077H1217.74V98.4084Z" fill="white"/>
<path d="M408.472 437.912H399.745V446.639H395.167V437.912H386.395V433.311H395.167V424.539H399.745V433.311H408.472V437.912Z" fill="white"/>
<g filter="url(#filter0_b_0_1)">
<ellipse cx="1808.66" cy="420.375" rx="61.0558" ry="59.3531" transform="rotate(15.4448 1808.66 420.375)" fill="url(#paint0_radial_0_1)" fill-opacity="0.4"/>
<path d="M1864.62 435.836C1856.35 465.758 1824.63 483.253 1793.65 474.693C1762.67 466.133 1744.43 434.836 1752.7 404.914C1760.96 374.991 1792.68 357.496 1823.66 366.057C1854.65 374.617 1872.88 405.913 1864.62 435.836Z" stroke="url(#paint1_radial_0_1)" stroke-width="6"/>
<path d="M1864.62 435.836C1856.35 465.758 1824.63 483.253 1793.65 474.693C1762.67 466.133 1744.43 434.836 1752.7 404.914C1760.96 374.991 1792.68 357.496 1823.66 366.057C1854.65 374.617 1872.88 405.913 1864.62 435.836Z" stroke="url(#paint2_radial_0_1)" stroke-width="6"/>
</g>
<g filter="url(#filter1_b_0_1)">
<ellipse cx="226.5" cy="147.905" rx="48.5" ry="47" fill="url(#paint3_radial_0_1)" fill-opacity="0.4"/>
<path d="M273 147.905C273 172.699 252.241 192.905 226.5 192.905C200.759 192.905 180 172.699 180 147.905C180 123.111 200.759 102.905 226.5 102.905C252.241 102.905 273 123.111 273 147.905Z" stroke="url(#paint4_radial_0_1)" stroke-width="4"/>
<path d="M273 147.905C273 172.699 252.241 192.905 226.5 192.905C200.759 192.905 180 172.699 180 147.905C180 123.111 200.759 102.905 226.5 102.905C252.241 102.905 273 123.111 273 147.905Z" stroke="url(#paint5_radial_0_1)" stroke-width="4"/>
</g>
<path d="M312.766 254.897L303.996 274.097C302.355 277.69 300.806 280.138 299.348 281.44C297.889 282.743 296.04 283.394 293.801 283.394C292.316 283.394 291.105 283.179 290.168 282.749V276.987C291.236 277.677 292.342 278.022 293.488 278.022C295.064 278.022 296.451 276.746 297.648 274.194L288.449 254.897H295.637L300.285 266.108C300.559 266.785 300.773 267.547 300.93 268.394H300.969C301.112 267.69 301.333 266.955 301.633 266.187L306.125 254.897H312.766ZM329.445 282.183C328.051 282.99 326.04 283.394 323.409 283.394C320.336 283.394 317.849 282.463 315.948 280.601C314.047 278.739 313.097 276.336 313.097 273.394C313.097 269.995 314.112 267.319 316.144 265.366C318.188 263.4 320.916 262.417 324.327 262.417C326.684 262.417 328.39 262.729 329.445 263.354V268.589C328.155 267.625 326.717 267.144 325.128 267.144C323.357 267.144 321.951 267.664 320.909 268.706C319.881 269.735 319.366 271.16 319.366 272.983C319.366 274.754 319.861 276.147 320.851 277.163C321.84 278.166 323.201 278.667 324.933 278.667C326.469 278.667 327.973 278.185 329.445 277.222V282.183ZM354.268 282.905H346.866L340.557 273.14H340.479V282.905H334.307V262.905H340.479V272.3H340.557L346.709 262.905H354.034L346.67 272.417L354.268 282.905ZM366.357 283.394C363.024 283.394 360.4 282.463 358.486 280.601C356.585 278.726 355.634 276.187 355.634 272.983C355.634 269.676 356.624 267.091 358.603 265.229C360.582 263.354 363.258 262.417 366.63 262.417C369.951 262.417 372.555 263.354 374.443 265.229C376.331 267.091 377.275 269.559 377.275 272.632C377.275 275.952 376.298 278.576 374.345 280.503C372.405 282.43 369.742 283.394 366.357 283.394ZM366.513 267.144C365.055 267.144 363.922 267.645 363.115 268.647C362.308 269.65 361.904 271.069 361.904 272.905C361.904 276.746 363.453 278.667 366.552 278.667C369.508 278.667 370.986 276.694 370.986 272.749C370.986 269.012 369.495 267.144 366.513 267.144ZM388.329 280.581H388.251V292.104H382.079V262.905H388.251V265.913H388.329C389.852 263.582 391.994 262.417 394.755 262.417C397.346 262.417 399.345 263.309 400.751 265.093C402.17 266.864 402.88 269.279 402.88 272.339C402.88 275.672 402.053 278.348 400.399 280.366C398.759 282.384 396.571 283.394 393.837 283.394C391.428 283.394 389.592 282.456 388.329 280.581ZM388.153 272.378V273.979C388.153 275.36 388.518 276.486 389.247 277.358C389.976 278.231 390.933 278.667 392.118 278.667C393.524 278.667 394.611 278.127 395.38 277.046C396.161 275.952 396.552 274.409 396.552 272.417C396.552 268.901 395.184 267.144 392.45 267.144C391.187 267.144 390.152 267.625 389.345 268.589C388.55 269.539 388.153 270.802 388.153 272.378ZM427.566 282.905H421.961V269.819C421.453 270.848 420.906 271.799 420.32 272.671L413.523 282.905H407.684V262.905H413.328V275.581C413.745 274.709 414.201 273.895 414.695 273.14L421.492 262.905H427.566V282.905ZM448.562 267.593H443.21V282.905H436.999V267.593H431.609V262.905H448.562V267.593ZM452.604 282.905V262.905H458.776V269.897H464.049C466.315 269.897 468.079 270.451 469.342 271.558C470.605 272.651 471.237 274.194 471.237 276.187C471.237 278.231 470.612 279.865 469.362 281.089C468.112 282.3 466.38 282.905 464.166 282.905H452.604ZM458.776 273.784V278.979H461.764C463.847 278.979 464.889 278.088 464.889 276.304C464.889 274.624 463.873 273.784 461.842 273.784H458.776ZM486.606 282.378V277.905C488.533 278.791 490.454 279.233 492.368 279.233C495.141 279.233 496.528 278.472 496.528 276.948C496.528 275.373 495.018 274.585 491.997 274.585H489.204V270.776H492.036C494.627 270.776 495.923 270.021 495.923 268.511C495.923 267.17 494.764 266.499 492.446 266.499C490.701 266.499 488.957 266.89 487.212 267.671V263.433C489.555 262.756 491.671 262.417 493.559 262.417C499.38 262.417 502.29 264.22 502.29 267.827C502.29 270.327 500.74 271.87 497.641 272.456V272.554C499.282 272.697 500.565 273.192 501.489 274.038C502.414 274.884 502.876 275.959 502.876 277.261C502.876 281.284 499.614 283.296 493.091 283.296C490.604 283.296 488.442 282.99 486.606 282.378ZM524.301 282.905H518.461V280.034H518.383C517.042 282.274 515.056 283.394 512.426 283.394C510.486 283.394 508.956 282.847 507.836 281.753C506.729 280.646 506.176 279.175 506.176 277.339C506.176 273.459 508.474 271.219 513.07 270.62L518.5 269.897C518.5 267.71 517.315 266.616 514.945 266.616C512.562 266.616 510.297 267.326 508.148 268.745V264.097C509.008 263.654 510.18 263.263 511.664 262.925C513.161 262.586 514.522 262.417 515.746 262.417C521.449 262.417 524.301 265.262 524.301 270.952V282.905ZM518.5 274.78V273.433L514.867 273.901C512.862 274.162 511.859 275.067 511.859 276.616C511.859 277.319 512.1 277.899 512.582 278.354C513.077 278.797 513.741 279.019 514.574 279.019C515.733 279.019 516.677 278.621 517.406 277.827C518.135 277.02 518.5 276.004 518.5 274.78ZM549.261 282.905H543.07V267.261H536.155V282.905H529.984V262.905H549.261V282.905ZM574.319 262.905L566.194 284.507C564.241 289.702 561.298 292.3 557.366 292.3C555.868 292.3 554.638 292.131 553.674 291.792V286.87C554.495 287.352 555.386 287.593 556.35 287.593C557.939 287.593 559.045 286.844 559.67 285.347L560.725 282.866L552.6 262.905H559.436L563.166 275.073C563.401 275.828 563.583 276.72 563.713 277.749H563.791C563.909 276.994 564.123 276.115 564.436 275.112L568.205 262.905H574.319ZM592.599 282.183C591.206 282.99 589.194 283.394 586.564 283.394C583.491 283.394 581.004 282.463 579.103 280.601C577.202 278.739 576.252 276.336 576.252 273.394C576.252 269.995 577.267 267.319 579.298 265.366C581.343 263.4 584.071 262.417 587.482 262.417C589.839 262.417 591.545 262.729 592.599 263.354V268.589C591.31 267.625 589.871 267.144 588.283 267.144C586.512 267.144 585.106 267.664 584.064 268.706C583.035 269.735 582.521 271.16 582.521 272.983C582.521 274.754 583.016 276.147 584.005 277.163C584.995 278.166 586.356 278.667 588.087 278.667C589.624 278.667 591.128 278.185 592.599 277.222V282.183ZM617.423 282.905H610.02L603.712 273.14H603.634V282.905H597.462V262.905H603.634V272.3H603.712L609.864 262.905H617.188L609.825 272.417L617.423 282.905ZM638.749 280.581H638.671V292.104H632.499V262.905H638.671V265.913H638.749C640.273 263.582 642.415 262.417 645.175 262.417C647.766 262.417 649.765 263.309 651.171 265.093C652.59 266.864 653.3 269.279 653.3 272.339C653.3 275.672 652.473 278.348 650.82 280.366C649.179 282.384 646.991 283.394 644.257 283.394C641.848 283.394 640.012 282.456 638.749 280.581ZM638.573 272.378V273.979C638.573 275.36 638.938 276.486 639.667 277.358C640.396 278.231 641.353 278.667 642.538 278.667C643.945 278.667 645.032 278.127 645.8 277.046C646.581 275.952 646.972 274.409 646.972 272.417C646.972 268.901 645.605 267.144 642.87 267.144C641.607 267.144 640.572 267.625 639.765 268.589C638.971 269.539 638.573 270.802 638.573 272.378ZM676.073 274.663H663.026C663.234 277.567 665.064 279.019 668.514 279.019C670.715 279.019 672.648 278.498 674.315 277.456V281.909C672.466 282.899 670.064 283.394 667.108 283.394C663.879 283.394 661.372 282.502 659.588 280.718C657.804 278.921 656.913 276.421 656.913 273.218C656.913 269.897 657.876 267.267 659.803 265.327C661.73 263.387 664.1 262.417 666.913 262.417C669.829 262.417 672.082 263.283 673.67 265.015C675.272 266.746 676.073 269.097 676.073 272.065V274.663ZM670.35 270.874C670.35 268.009 669.191 266.577 666.873 266.577C665.884 266.577 665.024 266.987 664.295 267.808C663.579 268.628 663.143 269.65 662.987 270.874H670.35ZM700.505 282.905H693.103L686.795 273.14H686.716V282.905H680.545V262.905H686.716V272.3H686.795L692.947 262.905H700.271L692.908 272.417L700.505 282.905ZM723.317 282.905H717.106V267.261H713.708C712.992 273.315 711.917 277.476 710.485 279.741C709.066 282.007 707.074 283.14 704.509 283.14C703.623 283.14 702.822 283.009 702.106 282.749V278.55C702.562 278.758 703.044 278.862 703.552 278.862C704.776 278.862 705.791 277.723 706.598 275.444C707.406 273.166 708.135 268.986 708.786 262.905H723.317V282.905ZM745.973 282.905H740.133V280.034H740.055C738.714 282.274 736.728 283.394 734.098 283.394C732.158 283.394 730.628 282.847 729.508 281.753C728.401 280.646 727.848 279.175 727.848 277.339C727.848 273.459 730.146 271.219 734.742 270.62L740.172 269.897C740.172 267.71 738.987 266.616 736.617 266.616C734.234 266.616 731.969 267.326 729.82 268.745V264.097C730.68 263.654 731.852 263.263 733.336 262.925C734.833 262.586 736.194 262.417 737.418 262.417C743.121 262.417 745.973 265.262 745.973 270.952V282.905ZM740.172 274.78V273.433L736.539 273.901C734.534 274.162 733.531 275.067 733.531 276.616C733.531 277.319 733.772 277.899 734.254 278.354C734.749 278.797 735.413 279.019 736.246 279.019C737.405 279.019 738.349 278.621 739.078 277.827C739.807 277.02 740.172 276.004 740.172 274.78ZM777.534 282.905H771.773V267.339C771.642 268.068 771.297 269.299 770.737 271.03L766.851 282.905H761.421L757.534 271.03C756.896 269.077 756.551 267.86 756.499 267.378V282.905H751.655V262.905H759.78L763.57 274.312C764.155 276.069 764.481 277.254 764.546 277.866C764.637 277.28 764.969 276.108 765.542 274.351L769.292 262.905H777.534V282.905ZM810.952 282.905H804.76V262.905H810.952V282.905ZM783.549 282.905V262.905H789.721V269.897H794.995C797.26 269.897 799.024 270.451 800.288 271.558C801.551 272.651 802.182 274.194 802.182 276.187C802.182 278.231 801.557 279.865 800.307 281.089C799.057 282.3 797.325 282.905 795.112 282.905H783.549ZM789.721 273.784V278.979H792.709C794.793 278.979 795.834 278.088 795.834 276.304C795.834 274.624 794.819 273.784 792.788 273.784H789.721ZM848.704 282.905H843.098V269.819C842.591 270.848 842.044 271.799 841.458 272.671L834.661 282.905H828.821V262.905H834.466V275.581C834.882 274.709 835.338 273.895 835.833 273.14L842.63 262.905H848.704V282.905ZM885.87 282.905H879.679V267.261H872.765V282.905H866.593V262.905H885.87V282.905ZM901.416 283.394C898.083 283.394 895.459 282.463 893.545 280.601C891.644 278.726 890.694 276.187 890.694 272.983C890.694 269.676 891.683 267.091 893.662 265.229C895.642 263.354 898.317 262.417 901.69 262.417C905.01 262.417 907.614 263.354 909.502 265.229C911.39 267.091 912.334 269.559 912.334 272.632C912.334 275.952 911.358 278.576 909.405 280.503C907.465 282.43 904.802 283.394 901.416 283.394ZM901.573 267.144C900.114 267.144 898.981 267.645 898.174 268.647C897.367 269.65 896.963 271.069 896.963 272.905C896.963 276.746 898.513 278.667 901.612 278.667C904.567 278.667 906.045 276.694 906.045 272.749C906.045 269.012 904.554 267.144 901.573 267.144ZM936.064 282.905H929.853V267.261H926.455C925.739 273.315 924.664 277.476 923.232 279.741C921.813 282.007 919.821 283.14 917.255 283.14C916.37 283.14 915.569 283.009 914.853 282.749V278.55C915.309 278.758 915.791 278.862 916.298 278.862C917.522 278.862 918.538 277.723 919.345 275.444C920.153 273.166 920.882 268.986 921.533 262.905H936.064V282.905ZM961.122 262.905L952.997 284.507C951.044 289.702 948.101 292.3 944.169 292.3C942.671 292.3 941.441 292.131 940.477 291.792V286.87C941.298 287.352 942.19 287.593 943.153 287.593C944.742 287.593 945.848 286.844 946.473 285.347L947.528 282.866L939.403 262.905H946.239L949.97 275.073C950.204 275.828 950.386 276.72 950.516 277.749H950.595C950.712 276.994 950.927 276.115 951.239 275.112L955.009 262.905H961.122ZM983.211 282.905H977.039V275.991C974.943 277.163 972.918 277.749 970.965 277.749C966.434 277.749 964.168 275.457 964.168 270.874V262.905H970.086V269.897C970.086 271.955 971.004 272.983 972.84 272.983C974.142 272.983 975.542 272.586 977.039 271.792V262.905H983.211V282.905ZM1009.11 282.905H1003.5V269.819C1003 270.848 1002.45 271.799 1001.86 272.671L995.066 282.905H989.226V262.905H994.87V275.581C995.287 274.709 995.743 273.895 996.237 273.14L1003.03 262.905H1009.11V282.905ZM1030.1 267.593H1024.75V282.905H1018.54V267.593H1013.15V262.905H1030.1V267.593ZM1034.15 282.905V262.905H1040.32V269.897H1045.59C1047.86 269.897 1049.62 270.451 1050.88 271.558C1052.15 272.651 1052.78 274.194 1052.78 276.187C1052.78 278.231 1052.15 279.865 1050.9 281.089C1049.65 282.3 1047.92 282.905 1045.71 282.905H1034.15ZM1040.32 273.784V278.979H1043.31C1045.39 278.979 1046.43 278.088 1046.43 276.304C1046.43 274.624 1045.42 273.784 1043.38 273.784H1040.32ZM300.129 328.394C296.796 328.394 294.172 327.463 292.258 325.601C290.357 323.726 289.406 321.187 289.406 317.983C289.406 314.676 290.396 312.091 292.375 310.229C294.354 308.354 297.03 307.417 300.402 307.417C303.723 307.417 306.327 308.354 308.215 310.229C310.103 312.091 311.047 314.559 311.047 317.632C311.047 320.952 310.07 323.576 308.117 325.503C306.177 327.43 303.514 328.394 300.129 328.394ZM300.285 312.144C298.827 312.144 297.694 312.645 296.887 313.647C296.079 314.65 295.676 316.069 295.676 317.905C295.676 321.746 297.225 323.667 300.324 323.667C303.28 323.667 304.758 321.694 304.758 317.749C304.758 314.012 303.267 312.144 300.285 312.144ZM330.226 312.593H324.874V327.905H318.663V312.593H313.273V307.905H330.226V312.593ZM334.268 327.905V307.905H345.44C350.205 307.905 352.588 309.533 352.588 312.788C352.588 313.947 352.211 314.93 351.455 315.737C350.713 316.532 349.743 317.052 348.545 317.3C350.017 317.482 351.169 317.996 352.002 318.843C352.849 319.676 353.272 320.698 353.272 321.909C353.272 323.719 352.627 325.171 351.338 326.265C350.049 327.358 348.278 327.905 346.026 327.905H334.268ZM340.44 311.675V315.874H343.467C345.342 315.874 346.28 315.138 346.28 313.667C346.28 312.339 345.394 311.675 343.623 311.675H340.44ZM340.44 319.507V324.058H343.995C345.961 324.058 346.944 323.263 346.944 321.675C346.944 320.229 345.935 319.507 343.916 319.507H340.44ZM376.24 319.663H363.193C363.401 322.567 365.231 324.019 368.681 324.019C370.882 324.019 372.815 323.498 374.482 322.456V326.909C372.633 327.899 370.231 328.394 367.275 328.394C364.046 328.394 361.539 327.502 359.755 325.718C357.972 323.921 357.08 321.421 357.08 318.218C357.08 314.897 358.043 312.267 359.97 310.327C361.897 308.387 364.267 307.417 367.08 307.417C369.996 307.417 372.249 308.283 373.838 310.015C375.439 311.746 376.24 314.097 376.24 317.065V319.663ZM370.517 315.874C370.517 313.009 369.358 311.577 367.041 311.577C366.051 311.577 365.192 311.987 364.463 312.808C363.746 313.628 363.31 314.65 363.154 315.874H370.517ZM395.673 312.593H390.321V327.905H384.11V312.593H378.72V307.905H395.673V312.593ZM427.117 327.905H420.926V307.905H427.117V327.905ZM399.715 327.905V307.905H405.887V314.897H411.16C413.426 314.897 415.19 315.451 416.453 316.558C417.716 317.651 418.348 319.194 418.348 321.187C418.348 323.231 417.723 324.865 416.473 326.089C415.223 327.3 413.491 327.905 411.277 327.905H399.715ZM405.887 318.784V323.979H408.875C410.958 323.979 412 323.088 412 321.304C412 319.624 410.984 318.784 408.953 318.784H405.887ZM464.264 327.905H458.073V319.546H451.159V327.905H444.987V307.905H451.159V315.308H458.073V307.905H464.264V327.905ZM486.92 327.905H481.08V325.034H481.002C479.66 327.274 477.675 328.394 475.045 328.394C473.104 328.394 471.574 327.847 470.455 326.753C469.348 325.646 468.795 324.175 468.795 322.339C468.795 318.459 471.093 316.219 475.689 315.62L481.119 314.897C481.119 312.71 479.934 311.616 477.564 311.616C475.181 311.616 472.916 312.326 470.767 313.745V309.097C471.627 308.654 472.798 308.263 474.283 307.925C475.78 307.586 477.141 307.417 478.365 307.417C484.068 307.417 486.92 310.262 486.92 315.952V327.905ZM481.119 319.78V318.433L477.486 318.901C475.481 319.162 474.478 320.067 474.478 321.616C474.478 322.319 474.719 322.899 475.201 323.354C475.696 323.797 476.36 324.019 477.193 324.019C478.352 324.019 479.296 323.621 480.025 322.827C480.754 322.02 481.119 321.004 481.119 319.78ZM504.457 327.905V307.905H515.629C520.395 307.905 522.777 309.533 522.777 312.788C522.777 313.947 522.4 314.93 521.645 315.737C520.902 316.532 519.932 317.052 518.734 317.3C520.206 317.482 521.358 317.996 522.191 318.843C523.038 319.676 523.461 320.698 523.461 321.909C523.461 323.719 522.816 325.171 521.527 326.265C520.238 327.358 518.467 327.905 516.215 327.905H504.457ZM510.629 311.675V315.874H513.656C515.531 315.874 516.469 315.138 516.469 313.667C516.469 312.339 515.583 311.675 513.812 311.675H510.629ZM510.629 319.507V324.058H514.184C516.15 324.058 517.133 323.263 517.133 321.675C517.133 320.229 516.124 319.507 514.105 319.507H510.629ZM543.616 327.183C542.223 327.99 540.211 328.394 537.581 328.394C534.508 328.394 532.021 327.463 530.12 325.601C528.219 323.739 527.269 321.336 527.269 318.394C527.269 314.995 528.284 312.319 530.316 310.366C532.36 308.4 535.088 307.417 538.499 307.417C540.856 307.417 542.562 307.729 543.616 308.354V313.589C542.327 312.625 540.889 312.144 539.3 312.144C537.529 312.144 536.123 312.664 535.081 313.706C534.053 314.735 533.538 316.16 533.538 317.983C533.538 319.754 534.033 321.147 535.023 322.163C536.012 323.166 537.373 323.667 539.105 323.667C540.641 323.667 542.145 323.185 543.616 322.222V327.183ZM566.448 319.663H553.401C553.609 322.567 555.439 324.019 558.889 324.019C561.09 324.019 563.023 323.498 564.69 322.456V326.909C562.841 327.899 560.439 328.394 557.483 328.394C554.254 328.394 551.747 327.502 549.963 325.718C548.179 323.921 547.288 321.421 547.288 318.218C547.288 314.897 548.251 312.267 550.178 310.327C552.105 308.387 554.475 307.417 557.288 307.417C560.204 307.417 562.457 308.283 564.045 310.015C565.647 311.746 566.448 314.097 566.448 317.065V319.663ZM560.725 315.874C560.725 313.009 559.566 311.577 557.248 311.577C556.259 311.577 555.399 311.987 554.67 312.808C553.954 313.628 553.518 314.65 553.362 315.874H560.725ZM582.774 327.905V307.905H593.946C598.712 307.905 601.095 309.533 601.095 312.788C601.095 313.947 600.717 314.93 599.962 315.737C599.22 316.532 598.249 317.052 597.052 317.3C598.523 317.482 599.675 317.996 600.509 318.843C601.355 319.676 601.778 320.698 601.778 321.909C601.778 323.719 601.134 325.171 599.845 326.265C598.555 327.358 596.785 327.905 594.532 327.905H582.774ZM588.946 311.675V315.874H591.973C593.848 315.874 594.786 315.138 594.786 313.667C594.786 312.339 593.901 311.675 592.13 311.675H588.946ZM588.946 319.507V324.058H592.501C594.467 324.058 595.45 323.263 595.45 321.675C595.45 320.229 594.441 319.507 592.423 319.507H588.946ZM616.309 328.394C612.975 328.394 610.352 327.463 608.438 325.601C606.536 323.726 605.586 321.187 605.586 317.983C605.586 314.676 606.576 312.091 608.555 310.229C610.534 308.354 613.21 307.417 616.582 307.417C619.902 307.417 622.507 308.354 624.395 310.229C626.283 312.091 627.227 314.559 627.227 317.632C627.227 320.952 626.25 323.576 624.297 325.503C622.357 327.43 619.694 328.394 616.309 328.394ZM616.465 312.144C615.007 312.144 613.874 312.645 613.066 313.647C612.259 314.65 611.855 316.069 611.855 317.905C611.855 321.746 613.405 323.667 616.504 323.667C619.46 323.667 620.938 321.694 620.938 317.749C620.938 314.012 619.447 312.144 616.465 312.144ZM651.308 327.905H645.116V312.261H638.202V327.905H632.03V307.905H651.308V327.905ZM663.573 325.581H663.495V337.104H657.323V307.905H663.495V310.913H663.573C665.096 308.582 667.238 307.417 669.998 307.417C672.59 307.417 674.588 308.309 675.995 310.093C677.414 311.864 678.123 314.279 678.123 317.339C678.123 320.672 677.297 323.348 675.643 325.366C674.002 327.384 671.815 328.394 669.08 328.394C666.672 328.394 664.836 327.456 663.573 325.581ZM663.397 317.378V318.979C663.397 320.36 663.761 321.486 664.491 322.358C665.22 323.231 666.177 323.667 667.362 323.667C668.768 323.667 669.855 323.127 670.623 322.046C671.405 320.952 671.795 319.409 671.795 317.417C671.795 313.901 670.428 312.144 667.694 312.144C666.431 312.144 665.396 312.625 664.588 313.589C663.794 314.539 663.397 315.802 663.397 317.378ZM692.459 328.394C689.125 328.394 686.502 327.463 684.587 325.601C682.686 323.726 681.736 321.187 681.736 317.983C681.736 314.676 682.726 312.091 684.705 310.229C686.684 308.354 689.36 307.417 692.732 307.417C696.052 307.417 698.657 308.354 700.545 310.229C702.433 312.091 703.377 314.559 703.377 317.632C703.377 320.952 702.4 323.576 700.447 325.503C698.507 327.43 695.844 328.394 692.459 328.394ZM692.615 312.144C691.157 312.144 690.024 312.645 689.216 313.647C688.409 314.65 688.005 316.069 688.005 317.905C688.005 321.746 689.555 323.667 692.654 323.667C695.61 323.667 697.087 321.694 697.087 317.749C697.087 314.012 695.597 312.144 692.615 312.144ZM723.337 327.183C721.944 327.99 719.932 328.394 717.302 328.394C714.229 328.394 711.742 327.463 709.841 325.601C707.94 323.739 706.989 321.336 706.989 318.394C706.989 314.995 708.005 312.319 710.036 310.366C712.08 308.4 714.808 307.417 718.22 307.417C720.576 307.417 722.282 307.729 723.337 308.354V313.589C722.048 312.625 720.609 312.144 719.02 312.144C717.249 312.144 715.843 312.664 714.802 313.706C713.773 314.735 713.259 316.16 713.259 317.983C713.259 319.754 713.753 321.147 714.743 322.163C715.733 323.166 717.093 323.667 718.825 323.667C720.361 323.667 721.865 323.185 723.337 322.222V327.183ZM755.602 327.905H749.41V307.905H755.602V327.905ZM728.199 327.905V307.905H734.371V314.897H739.645C741.91 314.897 743.674 315.451 744.938 316.558C746.201 317.651 746.832 319.194 746.832 321.187C746.832 323.231 746.207 324.865 744.957 326.089C743.707 327.3 741.975 327.905 739.762 327.905H728.199ZM734.371 318.784V323.979H737.359C739.443 323.979 740.484 323.088 740.484 321.304C740.484 319.624 739.469 318.784 737.438 318.784H734.371ZM764.37 314.097C763.355 314.097 762.508 313.791 761.831 313.179C761.154 312.554 760.816 311.785 760.816 310.874C760.816 309.937 761.161 309.168 761.851 308.569C762.554 307.97 763.426 307.671 764.468 307.671C765.523 307.671 766.382 307.977 767.046 308.589C767.723 309.188 768.062 309.95 768.062 310.874C768.062 311.825 767.717 312.599 767.027 313.198C766.349 313.797 765.464 314.097 764.37 314.097ZM764.37 328.394C763.355 328.394 762.508 328.081 761.831 327.456C761.154 326.831 760.816 326.063 760.816 325.151C760.816 324.214 761.161 323.446 761.851 322.847C762.554 322.248 763.426 321.948 764.468 321.948C765.523 321.948 766.382 322.254 767.046 322.866C767.723 323.465 768.062 324.227 768.062 325.151C768.062 326.102 767.717 326.883 767.027 327.495C766.349 328.094 765.464 328.394 764.37 328.394Z" fill="white"/>
<path d="M191.626 473.969L37.2732 535.647C25.4693 540.364 13.1438 530.097 15.6502 517.635L51.4982 339.399C54.0046 326.937 69.3413 322.233 78.4037 331.147L196.909 447.704C205.14 455.801 202.348 469.685 191.626 473.969Z" stroke="white" stroke-opacity="0.35" stroke-width="30"/>
<path d="M2044.32 128.592L1941 169.88C1925.51 176.071 1909.33 162.595 1912.62 146.239L1936.62 26.9264C1939.9 10.5703 1960.03 4.39644 1971.93 16.0954L2051.26 94.1199C2062.06 104.746 2058.4 122.969 2044.32 128.592Z" stroke="white" stroke-opacity="0.35" stroke-width="20"/>
<defs>
<filter id="filter0_b_0_1" x="1731.71" y="344.884" width="153.904" height="150.981" filterUnits="userSpaceOnUse" color-interpolation-filters="sRGB">
<feFlood flood-opacity="0" result="BackgroundImageFix"/>
<feGaussianBlur in="BackgroundImage" stdDeviation="8"/>
<feComposite in2="SourceAlpha" operator="in" result="effect1_backgroundBlur_0_1"/>
<feBlend mode="normal" in="SourceGraphic" in2="effect1_backgroundBlur_0_1" result="shape"/>
</filter>
<filter id="filter1_b_0_1" x="162" y="84.905" width="129" height="126" filterUnits="userSpaceOnUse" color-interpolation-filters="sRGB">
<feFlood flood-opacity="0" result="BackgroundImageFix"/>
<feGaussianBlur in="BackgroundImage" stdDeviation="8"/>
<feComposite in2="SourceAlpha" operator="in" result="effect1_backgroundBlur_0_1"/>
<feBlend mode="normal" in="SourceGraphic" in2="effect1_backgroundBlur_0_1" result="shape"/>
</filter>
<radialGradient id="paint0_radial_0_1" cx="0" cy="0" r="1" gradientUnits="userSpaceOnUse" gradientTransform="translate(1854.54 432.925) rotate(-154.986) scale(95.5903 98.3326)">
<stop stop-color="white" stop-opacity="0"/>
<stop offset="1" stop-color="white" stop-opacity="0.23"/>
</radialGradient>
<radialGradient id="paint1_radial_0_1" cx="0" cy="0" r="1" gradientUnits="userSpaceOnUse" gradientTransform="translate(1761.97 366.852) rotate(52.0908) scale(107.291 110.369)">
<stop stop-color="#F8F8F8" stop-opacity="0.22"/>
<stop offset="1" stop-color="white" stop-opacity="0"/>
<stop offset="1" stop-color="#A0FFAA" stop-opacity="0"/>
</radialGradient>
<radialGradient id="paint2_radial_0_1" cx="0" cy="0" r="1" gradientUnits="userSpaceOnUse" gradientTransform="translate(1849.3 475.341) rotate(-133.852) scale(94.4491 97.1587)">
<stop stop-color="#1AD091"/>
<stop offset="1" stop-color="#13FFAD" stop-opacity="0"/>
</radialGradient>
<radialGradient id="paint3_radial_0_1" cx="0" cy="0" r="1" gradientUnits="userSpaceOnUse" gradientTransform="translate(262.95 157.843) rotate(-155.055) scale(75.8902 77.9103)">
<stop stop-color="white" stop-opacity="0"/>
<stop offset="1" stop-color="white" stop-opacity="0.23"/>
</radialGradient>
<radialGradient id="paint4_radial_0_1" cx="0" cy="0" r="1" gradientUnits="userSpaceOnUse" gradientTransform="translate(179.433 116.897) rotate(36.5602) scale(85.1323 87.4955)">
<stop stop-color="#13936A"/>
<stop offset="0.0001" stop-color="#30D7A2"/>
<stop offset="1" stop-color="white" stop-opacity="0"/>
<stop offset="1" stop-color="#0D7318" stop-opacity="0"/>
</radialGradient>
<radialGradient id="paint5_radial_0_1" cx="0" cy="0" r="1" gradientUnits="userSpaceOnUse" gradientTransform="translate(269.247 181.289) rotate(-149.376) scale(74.965 76.9999)">
<stop stop-color="#25AF7F"/>
<stop offset="1" stop-color="#13FFAD" stop-opacity="0"/>
</radialGradient>
</defs>
</svg>
