<svg width="414" height="609" viewBox="0 0 414 609" fill="none" xmlns="http://www.w3.org/2000/svg">
<path d="M56.5195 91.2441C54.5143 91.2441 52.8802 90.5931 51.6172 89.291C50.3542 87.9824 49.7227 86.2799 49.7227 84.1836C49.7227 81.9701 50.3639 80.1797 51.6465 78.8125C52.929 77.4453 54.6283 76.7617 56.7441 76.7617C58.7428 76.7617 60.3574 77.416 61.5879 78.7246C62.8249 80.0332 63.4434 81.7585 63.4434 83.9004C63.4434 86.1009 62.8021 87.875 61.5195 89.2227C60.2435 90.5703 58.5768 91.2441 56.5195 91.2441ZM56.6562 79.4766C55.5495 79.4766 54.6706 79.8932 54.0195 80.7266C53.3685 81.5534 53.043 82.6504 53.043 84.0176C53.043 85.4043 53.3685 86.5013 54.0195 87.3086C54.6706 88.1159 55.5234 88.5195 56.5781 88.5195C57.6654 88.5195 58.528 88.1289 59.166 87.3477C59.804 86.5599 60.123 85.4694 60.123 84.0762C60.123 82.6243 59.8138 81.4948 59.1953 80.6875C58.5768 79.8802 57.7305 79.4766 56.6562 79.4766ZM73.4527 90.6387C72.7561 91.0423 71.7503 91.2441 70.4352 91.2441C68.8987 91.2441 67.6552 90.7786 66.7047 89.8477C65.7542 88.9167 65.2789 87.7155 65.2789 86.2441C65.2789 84.5449 65.7867 83.207 66.8023 82.2305C67.8245 81.2474 69.1884 80.7559 70.8941 80.7559C72.0725 80.7559 72.9254 80.9121 73.4527 81.2246V83.8418C72.8082 83.36 72.0888 83.1191 71.2945 83.1191C70.4091 83.1191 69.706 83.3796 69.1852 83.9004C68.6708 84.4147 68.4137 85.1276 68.4137 86.0391C68.4137 86.9245 68.6611 87.6211 69.1559 88.1289C69.6507 88.6302 70.331 88.8809 71.1969 88.8809C71.9651 88.8809 72.7171 88.64 73.4527 88.1582V90.6387ZM83.3645 83.3438H80.6887V91H77.5832V83.3438H74.8879V81H83.3645V83.3438ZM93.7059 91H90.7859V89.5645H90.7469C90.0763 90.6842 89.0835 91.2441 87.7684 91.2441C86.7983 91.2441 86.0333 90.9707 85.4734 90.4238C84.9201 89.8704 84.6434 89.1348 84.6434 88.2168C84.6434 86.2767 85.7924 85.1569 88.0906 84.8574L90.8055 84.4961C90.8055 83.4023 90.213 82.8555 89.0281 82.8555C87.8367 82.8555 86.7039 83.2103 85.6297 83.9199V81.5957C86.0594 81.3743 86.6453 81.179 87.3875 81.0098C88.1362 80.8405 88.8165 80.7559 89.4285 80.7559C92.2801 80.7559 93.7059 82.1784 93.7059 85.0234V91ZM90.8055 86.9375V86.2637L88.9891 86.498C87.9865 86.6283 87.4852 87.0807 87.4852 87.8555C87.4852 88.207 87.6056 88.4967 87.8465 88.7246C88.0939 88.946 88.4259 89.0566 88.8426 89.0566C89.422 89.0566 89.894 88.8581 90.2586 88.4609C90.6232 88.0573 90.8055 87.5495 90.8055 86.9375ZM96.5473 91V81H102.133C104.516 81 105.707 81.8138 105.707 83.4414C105.707 84.0208 105.519 84.5124 105.141 84.916C104.77 85.3132 104.285 85.5736 103.686 85.6973C104.422 85.7884 104.998 86.0456 105.414 86.4688C105.838 86.8854 106.049 87.3965 106.049 88.002C106.049 88.9069 105.727 89.6328 105.082 90.1797C104.438 90.7266 103.552 91 102.426 91H96.5473ZM99.6332 82.8848V84.9844H101.147C102.084 84.9844 102.553 84.6165 102.553 83.8809C102.553 83.2168 102.11 82.8848 101.225 82.8848H99.6332ZM99.6332 86.8008V89.0762H101.411C102.394 89.0762 102.885 88.679 102.885 87.8848C102.885 87.1621 102.381 86.8008 101.371 86.8008H99.6332ZM118.49 91H115.688V84.457C115.434 84.9714 115.16 85.4466 114.867 85.8828L111.469 91H108.549V81H111.371V87.3379C111.579 86.9017 111.807 86.4948 112.055 86.1172L115.453 81H118.49V91ZM128.988 83.3438H126.312V91H123.207V83.3438H120.511V81H128.988V83.3438ZM131.009 91V81H134.095V84.4961H136.732C137.864 84.4961 138.747 84.7728 139.378 85.3262C140.01 85.873 140.325 86.6445 140.325 87.6406C140.325 88.6628 140.013 89.4798 139.388 90.0918C138.763 90.6973 137.897 91 136.79 91H131.009ZM134.095 86.4395V89.0371H135.589C136.631 89.0371 137.152 88.5911 137.152 87.6992C137.152 86.8594 136.644 86.4395 135.628 86.4395H134.095ZM148.01 90.7363V88.5C148.974 88.9427 149.934 89.1641 150.891 89.1641C152.278 89.1641 152.971 88.7832 152.971 88.0215C152.971 87.2337 152.216 86.8398 150.705 86.8398H149.309V84.9355H150.725C152.021 84.9355 152.668 84.5579 152.668 83.8027C152.668 83.1322 152.089 82.7969 150.93 82.7969C150.058 82.7969 149.185 82.9922 148.313 83.3828V81.2637C149.485 80.9251 150.543 80.7559 151.487 80.7559C154.397 80.7559 155.852 81.6576 155.852 83.4609C155.852 84.7109 155.077 85.4824 153.528 85.7754V85.8242C154.348 85.8958 154.989 86.1432 155.452 86.5664C155.914 86.9896 156.145 87.5267 156.145 88.1777C156.145 90.1895 154.514 91.1953 151.252 91.1953C150.009 91.1953 148.928 91.0423 148.01 90.7363ZM166.857 91H163.938V89.5645H163.898C163.228 90.6842 162.235 91.2441 160.92 91.2441C159.95 91.2441 159.185 90.9707 158.625 90.4238C158.072 89.8704 157.795 89.1348 157.795 88.2168C157.795 86.2767 158.944 85.1569 161.242 84.8574L163.957 84.4961C163.957 83.4023 163.365 82.8555 162.18 82.8555C160.988 82.8555 159.855 83.2103 158.781 83.9199V81.5957C159.211 81.3743 159.797 81.179 160.539 81.0098C161.288 80.8405 161.968 80.7559 162.58 80.7559C165.432 80.7559 166.857 82.1784 166.857 85.0234V91ZM163.957 86.9375V86.2637L162.141 86.498C161.138 86.6283 160.637 87.0807 160.637 87.8555C160.637 88.207 160.757 88.4967 160.998 88.7246C161.245 88.946 161.577 89.0566 161.994 89.0566C162.574 89.0566 163.046 88.8581 163.41 88.4609C163.775 88.0573 163.957 87.5495 163.957 86.9375ZM178.478 91H175.421V87.2598H174.718C174.178 87.2598 173.686 87.7383 173.244 88.6953L172.179 91H168.742L170.197 88.1582C170.64 87.2988 171.261 86.752 172.062 86.5176C170.395 86.2311 169.562 85.3652 169.562 83.9199C169.562 81.9733 170.988 81 173.839 81H178.478V91ZM175.421 85.4238V82.9629H174.259C173.192 82.9629 172.658 83.3698 172.658 84.1836C172.658 85.0104 173.192 85.4238 174.259 85.4238H175.421ZM181.466 91V81H187.052C189.435 81 190.626 81.8138 190.626 83.4414C190.626 84.0208 190.437 84.5124 190.06 84.916C189.689 85.3132 189.204 85.5736 188.605 85.6973C189.34 85.7884 189.917 86.0456 190.333 86.4688C190.756 86.8854 190.968 87.3965 190.968 88.002C190.968 88.9069 190.646 89.6328 190.001 90.1797C189.357 90.7266 188.471 91 187.345 91H181.466ZM184.552 82.8848V84.9844H186.066C187.003 84.9844 187.472 84.6165 187.472 83.8809C187.472 83.2168 187.029 82.8848 186.144 82.8848H184.552ZM184.552 86.8008V89.0762H186.329C187.312 89.0762 187.804 88.679 187.804 87.8848C187.804 87.1621 187.299 86.8008 186.29 86.8008H184.552ZM203.448 91H199.747L196.593 86.1172H196.554V91H193.468V81H196.554V85.6973H196.593L199.669 81H203.331L199.649 85.7559L203.448 91ZM214.58 81L210.518 91.8008C209.541 94.3984 208.07 95.6973 206.104 95.6973C205.355 95.6973 204.74 95.6126 204.258 95.4434V92.9824C204.668 93.2233 205.114 93.3438 205.596 93.3438C206.39 93.3438 206.944 92.9694 207.256 92.2207L207.784 90.9805L203.721 81H207.139L209.004 87.084C209.121 87.4616 209.213 87.9076 209.278 88.4219H209.317C209.375 88.0443 209.483 87.6048 209.639 87.1035L211.524 81H214.58ZM217.598 84.0957C217.09 84.0957 216.667 83.9427 216.328 83.6367C215.99 83.3242 215.82 82.9401 215.82 82.4844C215.82 82.0156 215.993 81.6315 216.338 81.332C216.689 81.0326 217.126 80.8828 217.646 80.8828C218.174 80.8828 218.604 81.0358 218.936 81.3418C219.274 81.6413 219.443 82.0221 219.443 82.4844C219.443 82.9596 219.271 83.347 218.926 83.6465C218.587 83.946 218.145 84.0957 217.598 84.0957ZM217.598 91.2441C217.09 91.2441 216.667 91.0879 216.328 90.7754C215.99 90.4629 215.82 90.0788 215.82 89.623C215.82 89.1543 215.993 88.7702 216.338 88.4707C216.689 88.1712 217.126 88.0215 217.646 88.0215C218.174 88.0215 218.604 88.1745 218.936 88.4805C219.274 88.7799 219.443 89.1608 219.443 89.623C219.443 90.0983 219.271 90.4889 218.926 90.7949C218.587 91.0944 218.145 91.2441 217.598 91.2441Z" fill="black"/>
<circle cx="379.415" cy="561.415" r="144.645" transform="rotate(-47.0396 379.415 561.415)" stroke="#2CFC73" stroke-opacity="0.19" stroke-width="1.5"/>
<circle cx="383.856" cy="579.886" r="107.406" transform="rotate(-47.0396 383.856 579.886)" stroke="#2CFC73" stroke-opacity="0.19" stroke-width="1.5"/>
<circle cx="387.323" cy="589.679" r="89.1128" transform="rotate(-47.0396 387.323 589.679)" stroke="#2CFC73" stroke-opacity="0.19" stroke-width="1.5"/>
<path d="M87.2176 528.111H83.3366V531.992H81.3003V528.111H77.3992V526.065H81.3003V522.163H83.3366V526.065H87.2176V528.111Z" fill="#48D8A5"/>
<path d="M388.218 164.111H384.337V167.992H382.3V164.111H378.399V162.065H382.3V158.163H384.337V162.065H388.218V164.111Z" fill="#48D8A5" fill-opacity="0.74"/>
<path d="M262.072 25.7683H256.331V31.5089H253.319V25.7683H247.549V22.7414H253.319V16.9709H256.331V22.7414H262.072V25.7683Z" fill="#48D8A5" fill-opacity="0.74"/>
<path d="M-36.0268 6.07472L49.8594 31.2925C60.0709 34.2908 62.8772 47.4254 54.7825 54.3349L-19.6831 117.897C-27.7778 124.807 -40.3089 119.973 -41.6668 109.418L-53.0874 20.6374C-54.3208 11.0493 -45.3023 3.35127 -36.0268 6.07472Z" stroke="#3BE9AB" stroke-opacity="0.12" stroke-width="9.31899"/>
</svg>
