<svg width="414" height="549" viewBox="0 0 414 549" fill="none" xmlns="http://www.w3.org/2000/svg">
<rect x="-1" y="102" width="415" height="411" fill="url(#paint0_radial_178_354)"/>
<circle cx="375.099" cy="399.914" r="107.84" transform="rotate(75 375.099 399.914)" stroke="#C9FFDB" stroke-opacity="0.23" stroke-width="0.970965"/>
<circle cx="375.099" cy="399.914" r="107.84" transform="rotate(75 375.099 399.914)" stroke="#C9FFDB" stroke-opacity="0.23" stroke-width="0.970965"/>
<circle cx="375.099" cy="399.914" r="107.84" transform="rotate(75 375.099 399.914)" stroke="#C9FFDB" stroke-opacity="0.23" stroke-width="0.970965"/>
<circle cx="375.099" cy="399.914" r="107.84" transform="rotate(75 375.099 399.914)" stroke="#C9FFDB" stroke-opacity="0.23" stroke-width="0.970965"/>
<circle cx="375.099" cy="399.914" r="107.84" transform="rotate(75 375.099 399.914)" stroke="#C9FFDB" stroke-opacity="0.23" stroke-width="0.970965"/>
<circle cx="375.272" cy="414.272" r="81.5339" transform="rotate(75 375.272 414.272)" stroke="#C9FFDB" stroke-opacity="0.23" stroke-width="0.675231"/>
<circle cx="375.272" cy="414.272" r="81.5339" transform="rotate(75 375.272 414.272)" stroke="#C9FFDB" stroke-opacity="0.23" stroke-width="0.675231"/>
<circle cx="375.272" cy="414.272" r="81.5339" transform="rotate(75 375.272 414.272)" stroke="#C9FFDB" stroke-opacity="0.23" stroke-width="0.675231"/>
<circle cx="375.272" cy="414.272" r="81.5339" transform="rotate(75 375.272 414.272)" stroke="#C9FFDB" stroke-opacity="0.23" stroke-width="0.675231"/>
<circle cx="375.272" cy="414.272" r="81.5339" transform="rotate(75 375.272 414.272)" stroke="#C9FFDB" stroke-opacity="0.23" stroke-width="0.675231"/>
<path d="M359.21 333.114H355.331V336.993H353.296V333.114H349.398V331.069H353.296V327.17H355.331V331.069H359.21V333.114Z" fill="white"/>
<path d="M41.2097 122.114H37.3312V125.993H35.2963V122.114H31.3976V120.069H35.2963V116.17H37.3312V120.069H41.2097V122.114Z" fill="white"/>
<path d="M510.436 94.1199C521.24 104.746 517.575 122.969 503.503 128.592L400.178 169.88C384.685 176.071 368.508 162.595 371.798 146.239L395.794 26.9264C399.084 10.5703 419.213 4.39643 431.108 16.0954L510.436 94.1199Z" stroke="white" stroke-opacity="0.35" stroke-width="20"/>
<path d="M114.909 444.799C123.14 452.896 120.348 466.779 109.626 471.064L-44.7271 532.742C-56.5309 537.459 -68.8564 527.191 -66.35 514.73L-30.502 336.494C-27.9956 324.032 -12.659 319.328 -3.59655 328.242L114.909 444.799Z" stroke="white" stroke-opacity="0.15" stroke-width="30"/>
<path d="M61.3828 189.996L56.998 199.596C56.1777 201.393 55.403 202.617 54.6738 203.268C53.9447 203.919 53.0202 204.244 51.9004 204.244C51.1582 204.244 50.5527 204.137 50.084 203.922V201.041C50.6178 201.386 51.1712 201.559 51.7441 201.559C52.5319 201.559 53.2253 200.921 53.8242 199.645L49.2246 189.996H52.8184L55.1426 195.602C55.2793 195.94 55.3867 196.321 55.4648 196.744H55.4844C55.556 196.393 55.6667 196.025 55.8164 195.641L58.0625 189.996H61.3828ZM69.7223 203.639C69.0257 204.042 68.0198 204.244 66.7047 204.244C65.1682 204.244 63.9247 203.779 62.9742 202.848C62.0237 201.917 61.5484 200.715 61.5484 199.244C61.5484 197.545 62.0562 196.207 63.0719 195.23C64.094 194.247 65.4579 193.756 67.1637 193.756C68.3421 193.756 69.1949 193.912 69.7223 194.225V196.842C69.0777 196.36 68.3583 196.119 67.5641 196.119C66.6786 196.119 65.9755 196.38 65.4547 196.9C64.9404 197.415 64.6832 198.128 64.6832 199.039C64.6832 199.924 64.9306 200.621 65.4254 201.129C65.9202 201.63 66.6005 201.881 67.4664 201.881C68.2346 201.881 68.9866 201.64 69.7223 201.158V203.639ZM82.134 204H78.4328L75.2785 199.117H75.2395V204H72.1535V194H75.2395V198.697H75.2785L78.3547 194H82.0168L78.3352 198.756L82.134 204ZM88.1785 204.244C86.5118 204.244 85.2 203.779 84.243 202.848C83.2924 201.91 82.8172 200.641 82.8172 199.039C82.8172 197.385 83.312 196.093 84.3016 195.162C85.2911 194.225 86.629 193.756 88.3152 193.756C89.9754 193.756 91.2775 194.225 92.2215 195.162C93.1655 196.093 93.6375 197.327 93.6375 198.863C93.6375 200.523 93.1492 201.835 92.1727 202.799C91.2026 203.762 89.8712 204.244 88.1785 204.244ZM88.2566 196.119C87.5275 196.119 86.9611 196.37 86.5574 196.871C86.1538 197.372 85.952 198.082 85.952 199C85.952 200.921 86.7267 201.881 88.2762 201.881C89.754 201.881 90.493 200.895 90.493 198.922C90.493 197.053 89.7475 196.119 88.2566 196.119ZM99.1645 202.838H99.1254V208.6H96.0395V194H99.1254V195.504H99.1645C99.9262 194.339 100.997 193.756 102.377 193.756C103.673 193.756 104.672 194.202 105.375 195.094C106.085 195.979 106.44 197.187 106.44 198.717C106.44 200.383 106.026 201.721 105.2 202.73C104.379 203.74 103.286 204.244 101.918 204.244C100.714 204.244 99.796 203.775 99.1645 202.838ZM99.0766 198.736V199.537C99.0766 200.227 99.2589 200.79 99.6234 201.227C99.988 201.663 100.467 201.881 101.059 201.881C101.762 201.881 102.306 201.611 102.69 201.07C103.08 200.523 103.276 199.752 103.276 198.756C103.276 196.998 102.592 196.119 101.225 196.119C100.593 196.119 100.076 196.36 99.6723 196.842C99.2751 197.317 99.0766 197.949 99.0766 198.736ZM118.783 204H115.98V197.457C115.727 197.971 115.453 198.447 115.16 198.883L111.762 204H108.842V194H111.664V200.338C111.872 199.902 112.1 199.495 112.348 199.117L115.746 194H118.783V204ZM129.281 196.344H126.605V204H123.5V196.344H120.804V194H129.281V196.344ZM131.302 204V194H134.388V197.496H137.025C138.157 197.496 139.04 197.773 139.671 198.326C140.303 198.873 140.618 199.645 140.618 200.641C140.618 201.663 140.306 202.48 139.681 203.092C139.056 203.697 138.19 204 137.083 204H131.302ZM134.388 199.439V202.037H135.882C136.924 202.037 137.445 201.591 137.445 200.699C137.445 199.859 136.937 199.439 135.921 199.439H134.388ZM148.303 203.736V201.5C149.267 201.943 150.227 202.164 151.184 202.164C152.571 202.164 153.264 201.783 153.264 201.021C153.264 200.234 152.509 199.84 150.998 199.84H149.602V197.936H151.018C152.314 197.936 152.961 197.558 152.961 196.803C152.961 196.132 152.382 195.797 151.223 195.797C150.351 195.797 149.478 195.992 148.606 196.383V194.264C149.778 193.925 150.836 193.756 151.78 193.756C154.69 193.756 156.145 194.658 156.145 196.461C156.145 197.711 155.37 198.482 153.821 198.775V198.824C154.641 198.896 155.282 199.143 155.745 199.566C156.207 199.99 156.438 200.527 156.438 201.178C156.438 203.189 154.807 204.195 151.545 204.195C150.302 204.195 149.221 204.042 148.303 203.736ZM167.15 204H164.23V202.564H164.191C163.521 203.684 162.528 204.244 161.213 204.244C160.243 204.244 159.478 203.971 158.918 203.424C158.365 202.87 158.088 202.135 158.088 201.217C158.088 199.277 159.237 198.157 161.535 197.857L164.25 197.496C164.25 196.402 163.658 195.855 162.473 195.855C161.281 195.855 160.148 196.21 159.074 196.92V194.596C159.504 194.374 160.09 194.179 160.832 194.01C161.581 193.84 162.261 193.756 162.873 193.756C165.725 193.756 167.15 195.178 167.15 198.023V204ZM164.25 199.938V199.264L162.434 199.498C161.431 199.628 160.93 200.081 160.93 200.855C160.93 201.207 161.05 201.497 161.291 201.725C161.538 201.946 161.87 202.057 162.287 202.057C162.867 202.057 163.339 201.858 163.703 201.461C164.068 201.057 164.25 200.549 164.25 199.938ZM179.63 204H176.535V196.178H173.078V204H169.992V194H179.63V204ZM192.159 194L188.097 204.801C187.12 207.398 185.649 208.697 183.683 208.697C182.934 208.697 182.319 208.613 181.837 208.443V205.982C182.247 206.223 182.693 206.344 183.175 206.344C183.969 206.344 184.523 205.969 184.835 205.221L185.363 203.98L181.3 194H184.718L186.583 200.084C186.7 200.462 186.792 200.908 186.857 201.422H186.896C186.954 201.044 187.062 200.605 187.218 200.104L189.103 194H192.159ZM201.3 203.639C200.603 204.042 199.597 204.244 198.282 204.244C196.746 204.244 195.502 203.779 194.552 202.848C193.601 201.917 193.126 200.715 193.126 199.244C193.126 197.545 193.634 196.207 194.649 195.23C195.671 194.247 197.035 193.756 198.741 193.756C199.919 193.756 200.772 193.912 201.3 194.225V196.842C200.655 196.36 199.936 196.119 199.141 196.119C198.256 196.119 197.553 196.38 197.032 196.9C196.518 197.415 196.261 198.128 196.261 199.039C196.261 199.924 196.508 200.621 197.003 201.129C197.498 201.63 198.178 201.881 199.044 201.881C199.812 201.881 200.564 201.64 201.3 201.158V203.639ZM213.711 204H210.01L206.856 199.117H206.817V204H203.731V194H206.817V198.697H206.856L209.932 194H213.594L209.913 198.756L213.711 204ZM224.375 202.838H224.336V208.6H221.25V194H224.336V195.504H224.375C225.136 194.339 226.207 193.756 227.587 193.756C228.883 193.756 229.882 194.202 230.586 195.094C231.295 195.979 231.65 197.187 231.65 198.717C231.65 200.383 231.237 201.721 230.41 202.73C229.589 203.74 228.496 204.244 227.129 204.244C225.924 204.244 225.006 203.775 224.375 202.838ZM224.287 198.736V199.537C224.287 200.227 224.469 200.79 224.834 201.227C225.198 201.663 225.677 201.881 226.269 201.881C226.972 201.881 227.516 201.611 227.9 201.07C228.291 200.523 228.486 199.752 228.486 198.756C228.486 196.998 227.802 196.119 226.435 196.119C225.804 196.119 225.286 196.36 224.882 196.842C224.485 197.317 224.287 197.949 224.287 198.736ZM243.036 199.879H236.513C236.617 201.331 237.532 202.057 239.257 202.057C240.357 202.057 241.324 201.796 242.157 201.275V203.502C241.233 203.997 240.032 204.244 238.554 204.244C236.939 204.244 235.686 203.798 234.794 202.906C233.902 202.008 233.456 200.758 233.456 199.156C233.456 197.496 233.938 196.181 234.902 195.211C235.865 194.241 237.05 193.756 238.456 193.756C239.915 193.756 241.041 194.189 241.835 195.055C242.636 195.921 243.036 197.096 243.036 198.58V199.879ZM240.175 197.984C240.175 196.552 239.596 195.836 238.437 195.836C237.942 195.836 237.512 196.041 237.148 196.451C236.79 196.861 236.571 197.372 236.493 197.984H240.175ZM255.253 204H251.552L248.397 199.117H248.358V204H245.272V194H248.358V198.697H248.397L251.473 194H255.136L251.454 198.756L255.253 204ZM266.659 204H263.553V196.178H261.854C261.496 199.205 260.959 201.285 260.243 202.418C259.533 203.551 258.537 204.117 257.254 204.117C256.812 204.117 256.411 204.052 256.053 203.922V201.822C256.281 201.926 256.522 201.979 256.776 201.979C257.388 201.979 257.896 201.409 258.299 200.27C258.703 199.13 259.067 197.04 259.393 194H266.659V204ZM277.986 204H275.066V202.564H275.027C274.357 203.684 273.364 204.244 272.049 204.244C271.079 204.244 270.314 203.971 269.754 203.424C269.201 202.87 268.924 202.135 268.924 201.217C268.924 199.277 270.073 198.157 272.371 197.857L275.086 197.496C275.086 196.402 274.493 195.855 273.309 195.855C272.117 195.855 270.984 196.21 269.91 196.92V194.596C270.34 194.374 270.926 194.179 271.668 194.01C272.417 193.84 273.097 193.756 273.709 193.756C276.561 193.756 277.986 195.178 277.986 198.023V204ZM275.086 199.938V199.264L273.27 199.498C272.267 199.628 271.766 200.081 271.766 200.855C271.766 201.207 271.886 201.497 272.127 201.725C272.374 201.946 272.706 202.057 273.123 202.057C273.702 202.057 274.174 201.858 274.539 201.461C274.904 201.057 275.086 200.549 275.086 199.938ZM293.767 204H290.886V196.217C290.821 196.581 290.649 197.197 290.369 198.062L288.425 204H285.711L283.767 198.062C283.448 197.086 283.276 196.477 283.25 196.236V204H280.828V194H284.89L286.785 199.703C287.078 200.582 287.24 201.174 287.273 201.48C287.319 201.188 287.485 200.602 287.771 199.723L289.646 194H293.767V204ZM310.476 204H307.38V194H310.476V204ZM296.775 204V194H299.861V197.496H302.497C303.63 197.496 304.512 197.773 305.144 198.326C305.775 198.873 306.091 199.645 306.091 200.641C306.091 201.663 305.779 202.48 305.154 203.092C304.529 203.697 303.663 204 302.556 204H296.775ZM299.861 199.439V202.037H301.355C302.396 202.037 302.917 201.591 302.917 200.699C302.917 199.859 302.409 199.439 301.394 199.439H299.861ZM329.352 204H326.549V197.457C326.295 197.971 326.022 198.447 325.729 198.883L322.33 204H319.411V194H322.233V200.338C322.441 199.902 322.669 199.495 322.916 199.117L326.315 194H329.352V204ZM59.9375 229H56.8418V221.178H53.3848V229H50.2988V219H59.9375V229ZM67.7105 229.244C66.0439 229.244 64.732 228.779 63.775 227.848C62.8245 226.91 62.3492 225.641 62.3492 224.039C62.3492 222.385 62.844 221.093 63.8336 220.162C64.8232 219.225 66.1611 218.756 67.8473 218.756C69.5074 218.756 70.8095 219.225 71.7535 220.162C72.6975 221.093 73.1695 222.327 73.1695 223.863C73.1695 225.523 72.6812 226.835 71.7047 227.799C70.7346 228.762 69.4033 229.244 67.7105 229.244ZM67.7887 221.119C67.0595 221.119 66.4931 221.37 66.0895 221.871C65.6858 222.372 65.484 223.082 65.484 224C65.484 225.921 66.2587 226.881 67.8082 226.881C69.2861 226.881 70.025 225.895 70.025 223.922C70.025 222.053 69.2796 221.119 67.7887 221.119ZM85.0344 229H81.9289V221.178H80.2297C79.8716 224.205 79.3345 226.285 78.6184 227.418C77.9087 228.551 76.9126 229.117 75.6301 229.117C75.1874 229.117 74.787 229.052 74.4289 228.922V226.822C74.6568 226.926 74.8977 226.979 75.1516 226.979C75.7635 226.979 76.2714 226.409 76.675 225.27C77.0786 224.13 77.4432 222.04 77.7687 219H85.0344V229ZM97.5633 219L93.5008 229.801C92.5242 232.398 91.0529 233.697 89.0867 233.697C88.338 233.697 87.7228 233.613 87.241 233.443V230.982C87.6512 231.223 88.0971 231.344 88.5789 231.344C89.3732 231.344 89.9266 230.969 90.2391 230.221L90.7664 228.98L86.7039 219H90.1219L91.9871 225.084C92.1043 225.462 92.1954 225.908 92.2605 226.422H92.2996C92.3582 226.044 92.4656 225.605 92.6219 225.104L94.5066 219H97.5633ZM108.608 229H105.522V225.543C104.474 226.129 103.461 226.422 102.485 226.422C100.219 226.422 99.0863 225.276 99.0863 222.984V219H102.045V222.496C102.045 223.525 102.504 224.039 103.422 224.039C104.073 224.039 104.773 223.84 105.522 223.443V219H108.608V229ZM121.557 229H118.754V222.457C118.5 222.971 118.227 223.447 117.934 223.883L114.535 229H111.615V219H114.438V225.338C114.646 224.902 114.874 224.495 115.121 224.117L118.52 219H121.557V229ZM132.054 221.344H129.379V229H126.273V221.344H123.578V219H132.054V221.344ZM134.075 229V219H137.161V222.496H139.798C140.931 222.496 141.813 222.773 142.445 223.326C143.076 223.873 143.392 224.645 143.392 225.641C143.392 226.663 143.079 227.48 142.454 228.092C141.829 228.697 140.963 229 139.857 229H134.075ZM137.161 224.439V227.037H138.655C139.697 227.037 140.218 226.591 140.218 225.699C140.218 224.859 139.71 224.439 138.695 224.439H137.161ZM156.36 229.244C154.693 229.244 153.381 228.779 152.424 227.848C151.474 226.91 150.998 225.641 150.998 224.039C150.998 222.385 151.493 221.093 152.483 220.162C153.472 219.225 154.81 218.756 156.496 218.756C158.157 218.756 159.459 219.225 160.403 220.162C161.347 221.093 161.819 222.327 161.819 223.863C161.819 225.523 161.33 226.835 160.354 227.799C159.384 228.762 158.052 229.244 156.36 229.244ZM156.438 221.119C155.709 221.119 155.142 221.37 154.739 221.871C154.335 222.372 154.133 223.082 154.133 224C154.133 225.921 154.908 226.881 156.457 226.881C157.935 226.881 158.674 225.895 158.674 223.922C158.674 222.053 157.929 221.119 156.438 221.119ZM171.408 221.344H168.732V229H165.627V221.344H162.932V219H171.408V221.344ZM173.429 229V219H179.015C181.398 219 182.589 219.814 182.589 221.441C182.589 222.021 182.401 222.512 182.023 222.916C181.652 223.313 181.167 223.574 180.568 223.697C181.304 223.788 181.88 224.046 182.296 224.469C182.72 224.885 182.931 225.396 182.931 226.002C182.931 226.907 182.609 227.633 181.964 228.18C181.32 228.727 180.435 229 179.308 229H173.429ZM176.515 220.885V222.984H178.029C178.966 222.984 179.435 222.617 179.435 221.881C179.435 221.217 178.992 220.885 178.107 220.885H176.515ZM176.515 224.801V227.076H178.293C179.276 227.076 179.767 226.679 179.767 225.885C179.767 225.162 179.263 224.801 178.254 224.801H176.515ZM194.415 224.879H187.892C187.996 226.331 188.911 227.057 190.636 227.057C191.736 227.057 192.703 226.796 193.536 226.275V228.502C192.612 228.997 191.411 229.244 189.933 229.244C188.318 229.244 187.065 228.798 186.173 227.906C185.281 227.008 184.835 225.758 184.835 224.156C184.835 222.496 185.317 221.181 186.28 220.211C187.244 219.241 188.429 218.756 189.835 218.756C191.293 218.756 192.42 219.189 193.214 220.055C194.015 220.921 194.415 222.096 194.415 223.58V224.879ZM191.554 222.984C191.554 221.552 190.974 220.836 189.816 220.836C189.321 220.836 188.891 221.041 188.527 221.451C188.168 221.861 187.95 222.372 187.872 222.984H191.554ZM204.132 221.344H201.456V229H198.35V221.344H195.655V219H204.132V221.344ZM219.854 229H216.758V219H219.854V229ZM206.153 229V219H209.239V222.496H211.875C213.008 222.496 213.89 222.773 214.522 223.326C215.153 223.873 215.469 224.645 215.469 225.641C215.469 226.663 215.157 227.48 214.532 228.092C213.907 228.697 213.041 229 211.934 229H206.153ZM209.239 224.439V227.037H210.733C211.774 227.037 212.295 226.591 212.295 225.699C212.295 224.859 211.788 224.439 210.772 224.439H209.239ZM238.427 229H235.332V224.82H231.875V229H228.789V219H231.875V222.701H235.332V219H238.427V229ZM249.755 229H246.835V227.564H246.796C246.126 228.684 245.133 229.244 243.818 229.244C242.848 229.244 242.083 228.971 241.523 228.424C240.969 227.87 240.693 227.135 240.693 226.217C240.693 224.277 241.842 223.157 244.14 222.857L246.855 222.496C246.855 221.402 246.262 220.855 245.077 220.855C243.886 220.855 242.753 221.21 241.679 221.92V219.596C242.109 219.374 242.695 219.179 243.437 219.01C244.185 218.84 244.866 218.756 245.478 218.756C248.329 218.756 249.755 220.178 249.755 223.023V229ZM246.855 224.938V224.264L245.038 224.498C244.036 224.628 243.534 225.081 243.534 225.855C243.534 226.207 243.655 226.497 243.896 226.725C244.143 226.946 244.475 227.057 244.892 227.057C245.471 227.057 245.943 226.858 246.308 226.461C246.672 226.057 246.855 225.549 246.855 224.938ZM258.524 229V219H264.11C266.493 219 267.684 219.814 267.684 221.441C267.684 222.021 267.495 222.512 267.118 222.916C266.746 223.313 266.261 223.574 265.663 223.697C266.398 223.788 266.974 224.046 267.391 224.469C267.814 224.885 268.026 225.396 268.026 226.002C268.026 226.907 267.704 227.633 267.059 228.18C266.414 228.727 265.529 229 264.403 229H258.524ZM261.61 220.885V222.984H263.123C264.061 222.984 264.53 222.617 264.53 221.881C264.53 221.217 264.087 220.885 263.202 220.885H261.61ZM261.61 224.801V227.076H263.387C264.37 227.076 264.862 226.679 264.862 225.885C264.862 225.162 264.357 224.801 263.348 224.801H261.61ZM278.104 228.639C277.407 229.042 276.401 229.244 275.086 229.244C273.549 229.244 272.306 228.779 271.355 227.848C270.405 226.917 269.93 225.715 269.93 224.244C269.93 222.545 270.438 221.207 271.453 220.23C272.475 219.247 273.839 218.756 275.545 218.756C276.723 218.756 277.576 218.912 278.104 219.225V221.842C277.459 221.36 276.74 221.119 275.945 221.119C275.06 221.119 274.357 221.38 273.836 221.9C273.322 222.415 273.064 223.128 273.064 224.039C273.064 224.924 273.312 225.621 273.807 226.129C274.301 226.63 274.982 226.881 275.848 226.881C276.616 226.881 277.368 226.64 278.104 226.158V228.639ZM289.519 224.879H282.996C283.1 226.331 284.015 227.057 285.74 227.057C286.84 227.057 287.807 226.796 288.64 226.275V228.502C287.716 228.997 286.515 229.244 285.037 229.244C283.422 229.244 282.169 228.798 281.277 227.906C280.385 227.008 279.939 225.758 279.939 224.156C279.939 222.496 280.421 221.181 281.384 220.211C282.348 219.241 283.533 218.756 284.939 218.756C286.397 218.756 287.524 219.189 288.318 220.055C289.119 220.921 289.519 222.096 289.519 223.58V224.879ZM286.658 222.984C286.658 221.552 286.078 220.836 284.92 220.836C284.425 220.836 283.995 221.041 283.63 221.451C283.272 221.861 283.054 222.372 282.976 222.984H286.658ZM50.2988 254V244H55.8848C58.2676 244 59.459 244.814 59.459 246.441C59.459 247.021 59.2702 247.512 58.8926 247.916C58.5215 248.313 58.0365 248.574 57.4375 248.697C58.1732 248.788 58.7493 249.046 59.166 249.469C59.5892 249.885 59.8008 250.396 59.8008 251.002C59.8008 251.907 59.4785 252.633 58.834 253.18C58.1895 253.727 57.304 254 56.1777 254H50.2988ZM53.3848 245.885V247.984H54.8984C55.8359 247.984 56.3047 247.617 56.3047 246.881C56.3047 246.217 55.862 245.885 54.9766 245.885H53.3848ZM53.3848 249.801V252.076H55.1621C56.1452 252.076 56.6367 251.679 56.6367 250.885C56.6367 250.162 56.1322 249.801 55.123 249.801H53.3848ZM67.066 254.244C65.3993 254.244 64.0875 253.779 63.1305 252.848C62.1799 251.91 61.7047 250.641 61.7047 249.039C61.7047 247.385 62.1995 246.093 63.1891 245.162C64.1786 244.225 65.5165 243.756 67.2027 243.756C68.8629 243.756 70.165 244.225 71.109 245.162C72.053 246.093 72.525 247.327 72.525 248.863C72.525 250.523 72.0367 251.835 71.0602 252.799C70.0901 253.762 68.7587 254.244 67.066 254.244ZM67.1441 246.119C66.415 246.119 65.8486 246.37 65.4449 246.871C65.0413 247.372 64.8395 248.082 64.8395 249C64.8395 250.921 65.6142 251.881 67.1637 251.881C68.6415 251.881 69.3805 250.895 69.3805 248.922C69.3805 247.053 68.635 246.119 67.1441 246.119ZM84.5656 254H81.4699V246.178H78.0129V254H74.927V244H84.5656V254ZM90.698 252.838H90.659V258.6H87.573V244H90.659V245.504H90.698C91.4598 244.339 92.5307 243.756 93.9109 243.756C95.2065 243.756 96.2059 244.202 96.909 245.094C97.6186 245.979 97.9734 247.187 97.9734 248.717C97.9734 250.383 97.56 251.721 96.7332 252.73C95.9129 253.74 94.8191 254.244 93.452 254.244C92.2475 254.244 91.3296 253.775 90.698 252.838ZM90.6102 248.736V249.537C90.6102 250.227 90.7924 250.79 91.157 251.227C91.5216 251.663 92.0001 251.881 92.5926 251.881C93.2957 251.881 93.8393 251.611 94.2234 251.07C94.6141 250.523 94.8094 249.752 94.8094 248.756C94.8094 246.998 94.1258 246.119 92.7586 246.119C92.1271 246.119 91.6095 246.36 91.2059 246.842C90.8087 247.317 90.6102 247.949 90.6102 248.736ZM105.141 254.244C103.474 254.244 102.162 253.779 101.205 252.848C100.255 251.91 99.7797 250.641 99.7797 249.039C99.7797 247.385 100.274 246.093 101.264 245.162C102.254 244.225 103.592 243.756 105.278 243.756C106.938 243.756 108.24 244.225 109.184 245.162C110.128 246.093 110.6 247.327 110.6 248.863C110.6 250.523 110.112 251.835 109.135 252.799C108.165 253.762 106.834 254.244 105.141 254.244ZM105.219 246.119C104.49 246.119 103.924 246.37 103.52 246.871C103.116 247.372 102.914 248.082 102.914 249C102.914 250.921 103.689 251.881 105.239 251.881C106.717 251.881 107.455 250.895 107.455 248.922C107.455 247.053 106.71 246.119 105.219 246.119ZM120.58 253.639C119.883 254.042 118.878 254.244 117.562 254.244C116.026 254.244 114.783 253.779 113.832 252.848C112.882 251.917 112.406 250.715 112.406 249.244C112.406 247.545 112.914 246.207 113.93 245.23C114.952 244.247 116.316 243.756 118.021 243.756C119.2 243.756 120.053 243.912 120.58 244.225V246.842C119.936 246.36 119.216 246.119 118.422 246.119C117.536 246.119 116.833 246.38 116.312 246.9C115.798 247.415 115.541 248.128 115.541 249.039C115.541 249.924 115.788 250.621 116.283 251.129C116.778 251.63 117.458 251.881 118.324 251.881C119.092 251.881 119.844 251.64 120.58 251.158V253.639ZM136.713 254H133.617V244H136.713V254ZM123.011 254V244H126.097V247.496H128.734C129.867 247.496 130.749 247.773 131.38 248.326C132.012 248.873 132.328 249.645 132.328 250.641C132.328 251.663 132.015 252.48 131.39 253.092C130.765 253.697 129.899 254 128.793 254H123.011ZM126.097 249.439V252.037H127.591C128.633 252.037 129.154 251.591 129.154 250.699C129.154 249.859 128.646 249.439 127.63 249.439H126.097ZM141.097 247.096C140.589 247.096 140.166 246.943 139.827 246.637C139.489 246.324 139.32 245.94 139.32 245.484C139.32 245.016 139.492 244.632 139.837 244.332C140.189 244.033 140.625 243.883 141.146 243.883C141.673 243.883 142.103 244.036 142.435 244.342C142.773 244.641 142.943 245.022 142.943 245.484C142.943 245.96 142.77 246.347 142.425 246.646C142.086 246.946 141.644 247.096 141.097 247.096ZM141.097 254.244C140.589 254.244 140.166 254.088 139.827 253.775C139.489 253.463 139.32 253.079 139.32 252.623C139.32 252.154 139.492 251.77 139.837 251.471C140.189 251.171 140.625 251.021 141.146 251.021C141.673 251.021 142.103 251.174 142.435 251.48C142.773 251.78 142.943 252.161 142.943 252.623C142.943 253.098 142.77 253.489 142.425 253.795C142.086 254.094 141.644 254.244 141.097 254.244Z" fill="white"/>
<g filter="url(#filter0_b_178_354)">
<ellipse cx="395.281" cy="464.688" rx="30.4895" ry="29.6392" transform="rotate(15.4448 395.281 464.688)" fill="url(#paint1_radial_178_354)" fill-opacity="0.4"/>
<path d="M424.188 472.675C419.906 488.174 403.499 497.19 387.521 492.775C371.544 488.361 362.093 472.201 366.375 456.702C370.657 441.203 387.064 432.187 403.041 436.602C419.019 441.016 428.47 457.176 424.188 472.675Z" stroke="url(#paint2_radial_178_354)"/>
<path d="M424.188 472.675C419.906 488.174 403.499 497.19 387.521 492.775C371.544 488.361 362.093 472.201 366.375 456.702C370.657 441.203 387.064 432.187 403.041 436.602C419.019 441.016 428.47 457.176 424.188 472.675Z" stroke="url(#paint3_radial_178_354)"/>
</g>
<g filter="url(#filter1_b_178_354)">
<ellipse cx="11.2813" cy="134.688" rx="30.4895" ry="29.6392" transform="rotate(15.4448 11.2813 134.688)" fill="url(#paint4_radial_178_354)" fill-opacity="0.4"/>
<path d="M40.1878 142.675C35.9056 158.174 19.4988 167.19 3.5213 162.775C-12.4562 158.361 -21.9074 142.201 -17.6251 126.702C-13.3429 111.203 3.06385 102.187 19.0414 106.602C35.0189 111.016 44.47 127.176 40.1878 142.675Z" stroke="url(#paint5_radial_178_354)"/>
<path d="M40.1878 142.675C35.9056 158.174 19.4988 167.19 3.5213 162.775C-12.4562 158.361 -21.9074 142.201 -17.6251 126.702C-13.3429 111.203 3.06385 102.187 19.0414 106.602C35.0189 111.016 44.47 127.176 40.1878 142.675Z" stroke="url(#paint6_radial_178_354)"/>
</g>
<path d="M389.21 257.114H385.331V260.993H383.296V257.114H379.398V255.069H383.296V251.17H385.331V255.069H389.21V257.114Z" fill="white"/>
<path d="M71.2097 481.114H67.3312V484.993H65.2963V481.114H61.3976V479.069H65.2963V475.17H67.3312V479.069H71.2097V481.114Z" fill="white"/>
<defs>
<filter id="filter0_b_178_354" x="356.854" y="426.991" width="76.8548" height="75.3956" filterUnits="userSpaceOnUse" color-interpolation-filters="sRGB">
<feFlood flood-opacity="0" result="BackgroundImageFix"/>
<feGaussianBlur in="BackgroundImage" stdDeviation="3.99496"/>
<feComposite in2="SourceAlpha" operator="in" result="effect1_backgroundBlur_178_354"/>
<feBlend mode="normal" in="SourceGraphic" in2="effect1_backgroundBlur_178_354" result="shape"/>
</filter>
<filter id="filter1_b_178_354" x="-27.1462" y="96.9907" width="76.8548" height="75.3956" filterUnits="userSpaceOnUse" color-interpolation-filters="sRGB">
<feFlood flood-opacity="0" result="BackgroundImageFix"/>
<feGaussianBlur in="BackgroundImage" stdDeviation="3.99496"/>
<feComposite in2="SourceAlpha" operator="in" result="effect1_backgroundBlur_178_354"/>
<feBlend mode="normal" in="SourceGraphic" in2="effect1_backgroundBlur_178_354" result="shape"/>
</filter>
<radialGradient id="paint0_radial_178_354" cx="0" cy="0" r="1" gradientUnits="userSpaceOnUse" gradientTransform="translate(-10.2634 307.5) rotate(-6.42735) scale(345.053 1067.02)">
<stop stop-color="#20B687"/>
<stop offset="1" stop-color="#16E59A"/>
</radialGradient>
<radialGradient id="paint1_radial_178_354" cx="0" cy="0" r="1" gradientUnits="userSpaceOnUse" gradientTransform="translate(418.195 470.956) rotate(-154.986) scale(47.7349 49.1044)">
<stop stop-color="white" stop-opacity="0"/>
<stop offset="1" stop-color="white" stop-opacity="0.23"/>
</radialGradient>
<radialGradient id="paint2_radial_178_354" cx="0" cy="0" r="1" gradientUnits="userSpaceOnUse" gradientTransform="translate(371.969 437.961) rotate(52.0908) scale(53.578 55.115)">
<stop stop-color="#F8F8F8" stop-opacity="0.22"/>
<stop offset="1" stop-color="white" stop-opacity="0"/>
<stop offset="1" stop-color="#A0FFAA" stop-opacity="0"/>
</radialGradient>
<radialGradient id="paint3_radial_178_354" cx="0" cy="0" r="1" gradientUnits="userSpaceOnUse" gradientTransform="translate(415.577 492.137) rotate(-133.852) scale(47.1651 48.5182)">
<stop stop-color="#1AD091"/>
<stop offset="1" stop-color="#13FFAD" stop-opacity="0"/>
</radialGradient>
<radialGradient id="paint4_radial_178_354" cx="0" cy="0" r="1" gradientUnits="userSpaceOnUse" gradientTransform="translate(34.1955 140.956) rotate(-154.986) scale(47.7349 49.1044)">
<stop stop-color="white" stop-opacity="0"/>
<stop offset="1" stop-color="white" stop-opacity="0.23"/>
</radialGradient>
<radialGradient id="paint5_radial_178_354" cx="0" cy="0" r="1" gradientUnits="userSpaceOnUse" gradientTransform="translate(-12.031 107.961) rotate(52.0908) scale(53.578 55.115)">
<stop stop-color="#F8F8F8" stop-opacity="0.22"/>
<stop offset="1" stop-color="white" stop-opacity="0"/>
<stop offset="1" stop-color="#A0FFAA" stop-opacity="0"/>
</radialGradient>
<radialGradient id="paint6_radial_178_354" cx="0" cy="0" r="1" gradientUnits="userSpaceOnUse" gradientTransform="translate(31.5775 162.137) rotate(-133.852) scale(47.1651 48.5182)">
<stop stop-color="#1AD091"/>
<stop offset="1" stop-color="#13FFAD" stop-opacity="0"/>
</radialGradient>
</defs>
</svg>
