<svg width="342" height="76" viewBox="0 0 342 76" fill="none" xmlns="http://www.w3.org/2000/svg">
<path d="M0.984375 48.2754V44.4062C2.54297 45.4544 4.31576 45.9785 6.30273 45.9785C8.76367 45.9785 9.99414 45.0898 9.99414 43.3125C9.99414 41.5078 8.64062 40.6055 5.93359 40.6055H3.41797V37.2969H5.82422C8.23047 37.2969 9.43359 36.4492 9.43359 34.7539C9.43359 33.2044 8.4082 32.4297 6.35742 32.4297C4.88997 32.4297 3.32227 32.8945 1.6543 33.8242V30.2148C3.33138 29.4492 5.1862 29.0664 7.21875 29.0664C9.36068 29.0664 11.0195 29.513 12.1953 30.4062C13.3802 31.2904 13.9727 32.4935 13.9727 34.0156C13.9727 35.2096 13.6354 36.2259 12.9609 37.0645C12.2956 37.8939 11.3431 38.4544 10.1035 38.7461V38.8145C11.498 38.9967 12.5872 39.5026 13.3711 40.332C14.1641 41.1523 14.5605 42.1732 14.5605 43.3945C14.5605 45.2812 13.877 46.7441 12.5098 47.7832C11.1426 48.8223 9.17383 49.3418 6.60352 49.3418C4.16081 49.3418 2.28776 48.9863 0.984375 48.2754ZM29.1074 49H25.0195V46.9902H24.9648C24.026 48.5579 22.6361 49.3418 20.7949 49.3418C19.4368 49.3418 18.3659 48.959 17.582 48.1934C16.8073 47.4186 16.4199 46.3887 16.4199 45.1035C16.4199 42.3874 18.0286 40.8197 21.2461 40.4004L25.0469 39.8945C25.0469 38.3633 24.2174 37.5977 22.5586 37.5977C20.8906 37.5977 19.3047 38.0944 17.8008 39.0879V35.834C18.4023 35.5241 19.2227 35.2507 20.2617 35.0137C21.3099 34.7767 22.2624 34.6582 23.1191 34.6582C27.1113 34.6582 29.1074 36.6497 29.1074 40.6328V49ZM25.0469 43.3125V42.3691L22.5039 42.6973C21.1003 42.8796 20.3984 43.513 20.3984 44.5977C20.3984 45.0898 20.5671 45.4954 20.9043 45.8145C21.2507 46.1243 21.7155 46.2793 22.2988 46.2793C23.11 46.2793 23.7708 46.0013 24.2812 45.4453C24.7917 44.8802 25.0469 44.1693 25.0469 43.3125ZM46.0195 49H41.6855V38.0488H36.8457V49H32.5254V35H46.0195V49ZM63 35L57.3125 50.1211C55.9453 53.7578 53.8854 55.5762 51.1328 55.5762C50.0846 55.5762 49.2233 55.4577 48.5488 55.2207V51.7754C49.123 52.1126 49.7474 52.2812 50.4219 52.2812C51.5339 52.2812 52.3086 51.7572 52.7461 50.709L53.4844 48.9727L47.7969 35H52.582L55.1934 43.5176C55.3574 44.0462 55.485 44.6706 55.5762 45.3906H55.6309C55.7129 44.862 55.8633 44.2467 56.082 43.5449L58.7207 35H63ZM75.2363 48.4941C74.2611 49.0592 72.8529 49.3418 71.0117 49.3418C68.8607 49.3418 67.1198 48.6901 65.7891 47.3867C64.4583 46.0833 63.793 44.4017 63.793 42.3418C63.793 39.9629 64.5039 38.0898 65.9258 36.7227C67.3568 35.3464 69.2663 34.6582 71.6543 34.6582C73.304 34.6582 74.498 34.877 75.2363 35.3145V38.9785C74.334 38.304 73.3268 37.9668 72.2148 37.9668C70.9753 37.9668 69.9909 38.3314 69.2617 39.0605C68.5417 39.7806 68.1816 40.7786 68.1816 42.0547C68.1816 43.2943 68.528 44.2695 69.2207 44.9805C69.9134 45.6823 70.8659 46.0332 72.0781 46.0332C73.1536 46.0332 74.2064 45.696 75.2363 45.0215V48.4941ZM88.5527 38.2812H84.8066V49H80.459V38.2812H76.6855V35H88.5527V38.2812ZM104.74 49H100.816V39.8398C100.461 40.5599 100.078 41.2253 99.668 41.8359L94.9102 49H90.8223V35H94.7734V43.873C95.0651 43.2624 95.3841 42.6927 95.7305 42.1641L100.488 35H104.74V49ZM118.877 38.2812H115.131V49H110.783V38.2812H107.01V35H118.877V38.2812ZM121.146 49V35H125.467V39.8945H129.158C130.744 39.8945 131.979 40.2819 132.863 41.0566C133.747 41.8223 134.189 42.9023 134.189 44.2969C134.189 45.7279 133.752 46.8717 132.877 47.7285C132.002 48.5762 130.79 49 129.24 49H121.146ZM125.467 42.6152V46.252H127.559C129.017 46.252 129.746 45.6276 129.746 44.3789C129.746 43.2031 129.035 42.6152 127.613 42.6152H125.467ZM148.928 47.373H148.873V55.4395H144.553V35H148.873V37.1055H148.928C149.994 35.474 151.493 34.6582 153.426 34.6582C155.24 34.6582 156.639 35.2826 157.623 36.5312C158.617 37.7708 159.113 39.4616 159.113 41.6035C159.113 43.9368 158.535 45.8099 157.377 47.2227C156.229 48.6354 154.697 49.3418 152.783 49.3418C151.097 49.3418 149.812 48.6855 148.928 47.373ZM148.805 41.6309V42.752C148.805 43.7181 149.06 44.5065 149.57 45.1172C150.081 45.7279 150.751 46.0332 151.58 46.0332C152.564 46.0332 153.326 45.6549 153.863 44.8984C154.41 44.1328 154.684 43.0527 154.684 41.6582C154.684 39.1973 153.727 37.9668 151.812 37.9668C150.928 37.9668 150.204 38.304 149.639 38.9785C149.083 39.6439 148.805 40.528 148.805 41.6309ZM174.494 43.2305H165.361C165.507 45.263 166.788 46.2793 169.203 46.2793C170.743 46.2793 172.097 45.9147 173.264 45.1855V48.3027C171.969 48.9954 170.288 49.3418 168.219 49.3418C165.958 49.3418 164.204 48.7174 162.955 47.4688C161.706 46.2109 161.082 44.4609 161.082 42.2188C161.082 39.8945 161.757 38.0534 163.105 36.6953C164.454 35.3372 166.113 34.6582 168.082 34.6582C170.124 34.6582 171.701 35.2643 172.812 36.4766C173.934 37.6888 174.494 39.334 174.494 41.4121V43.2305ZM170.488 40.5781C170.488 38.5729 169.677 37.5703 168.055 37.5703C167.362 37.5703 166.76 37.8574 166.25 38.4316C165.749 39.0059 165.443 39.7214 165.334 40.5781H170.488ZM191.037 49H185.855L181.439 42.1641H181.385V49H177.064V35H181.385V41.5762H181.439L185.746 35H190.873L185.719 41.6582L191.037 49ZM206.445 49H202.098V38.0488H199.719C199.217 42.2871 198.465 45.1992 197.463 46.7852C196.469 48.3711 195.075 49.1641 193.279 49.1641C192.66 49.1641 192.099 49.0729 191.598 48.8906V45.9512C191.917 46.097 192.254 46.1699 192.609 46.1699C193.466 46.1699 194.177 45.3724 194.742 43.7773C195.307 42.1823 195.818 39.2565 196.273 35H206.445V49ZM221.744 49H217.656V46.9902H217.602C216.663 48.5579 215.273 49.3418 213.432 49.3418C212.074 49.3418 211.003 48.959 210.219 48.1934C209.444 47.4186 209.057 46.3887 209.057 45.1035C209.057 42.3874 210.665 40.8197 213.883 40.4004L217.684 39.8945C217.684 38.3633 216.854 37.5977 215.195 37.5977C213.527 37.5977 211.941 38.0944 210.438 39.0879V35.834C211.039 35.5241 211.859 35.2507 212.898 35.0137C213.947 34.7767 214.899 34.6582 215.756 34.6582C219.748 34.6582 221.744 36.6497 221.744 40.6328V49ZM217.684 43.3125V42.3691L215.141 42.6973C213.737 42.8796 213.035 43.513 213.035 44.5977C213.035 45.0898 213.204 45.4954 213.541 45.8145C213.887 46.1243 214.352 46.2793 214.936 46.2793C215.747 46.2793 216.408 46.0013 216.918 45.4453C217.428 44.8802 217.684 44.1693 217.684 43.3125ZM243.277 49H239.244V38.1035C239.153 38.6139 238.911 39.4753 238.52 40.6875L235.799 49H231.998L229.277 40.6875C228.831 39.3203 228.589 38.4681 228.553 38.1309V49H225.162V35H230.85L233.502 42.9844C233.912 44.2148 234.14 45.0443 234.186 45.4727C234.249 45.0625 234.482 44.2422 234.883 43.0117L237.508 35H243.277V49ZM260.258 35L254.57 50.1211C253.203 53.7578 251.143 55.5762 248.391 55.5762C247.342 55.5762 246.481 55.4577 245.807 55.2207V51.7754C246.381 52.1126 247.005 52.2812 247.68 52.2812C248.792 52.2812 249.566 51.7572 250.004 50.709L250.742 48.9727L245.055 35H249.84L252.451 43.5176C252.615 44.0462 252.743 44.6706 252.834 45.3906H252.889C252.971 44.862 253.121 44.2467 253.34 43.5449L255.979 35H260.258Z" fill="black"/>
<path d="M335.998 46.396H326.787V55.6074H321.954V46.396H312.694V41.5391H321.954V32.2798H326.787V41.5391H335.998V46.396Z" fill="black"/>
<rect x="1" y="71" width="332" height="5" fill="black"/>
</svg>
