<svg width="459" height="177" viewBox="0 0 459 177" fill="none" xmlns="http://www.w3.org/2000/svg">
<rect x="15" y="1" width="443" height="160" rx="32" stroke="url(#paint0_linear_0_1)" stroke-width="2"/>
<g filter="url(#filter0_b_0_1)">
<rect y="20.9053" width="433" height="155.688" rx="42" fill="url(#paint1_radial_0_1)" fill-opacity="0.55"/>
<rect x="1.5" y="22.4053" width="430" height="152.688" rx="40.5" stroke="url(#paint2_linear_0_1)" stroke-width="3"/>
</g>
<path d="M65.209 102.905H60.7793V94.9209H52.6582V102.905H48.2422V83.2998H52.6582V91.1201H60.7793V83.2998H65.209V102.905ZM80.9316 102.905H76.8438V100.896H76.7891C75.8503 102.463 74.4603 103.247 72.6191 103.247C71.2611 103.247 70.1901 102.864 69.4062 102.099C68.6315 101.324 68.2441 100.294 68.2441 99.0088C68.2441 96.2926 69.8529 94.7249 73.0703 94.3057L76.8711 93.7998C76.8711 92.2686 76.0417 91.5029 74.3828 91.5029C72.7148 91.5029 71.1289 91.9997 69.625 92.9932V89.7393C70.2266 89.4294 71.0469 89.1559 72.0859 88.9189C73.1341 88.682 74.0866 88.5635 74.9434 88.5635C78.9355 88.5635 80.9316 90.555 80.9316 94.5381V102.905ZM76.8711 97.2178V96.2744L74.3281 96.6025C72.9245 96.7848 72.2227 97.4183 72.2227 98.5029C72.2227 98.9951 72.3913 99.4007 72.7285 99.7197C73.0749 100.03 73.5397 100.185 74.123 100.185C74.9342 100.185 75.5951 99.9066 76.1055 99.3506C76.6159 98.7855 76.8711 98.0745 76.8711 97.2178ZM97.8438 102.905H93.5098V91.9541H88.6699V102.905H84.3496V88.9053H97.8438V102.905ZM115.412 102.905H111.488V93.7451C111.133 94.4652 110.75 95.1305 110.34 95.7412L105.582 102.905H101.494V88.9053H105.445V97.7783C105.737 97.1676 106.056 96.598 106.402 96.0693L111.16 88.9053H115.412V102.905ZM129.686 102.399C128.71 102.965 127.302 103.247 125.461 103.247C123.31 103.247 121.569 102.595 120.238 101.292C118.908 99.9886 118.242 98.307 118.242 96.2471C118.242 93.8682 118.953 91.9951 120.375 90.6279C121.806 89.2516 123.715 88.5635 126.104 88.5635C127.753 88.5635 128.947 88.7822 129.686 89.2197V92.8838C128.783 92.2093 127.776 91.8721 126.664 91.8721C125.424 91.8721 124.44 92.2367 123.711 92.9658C122.991 93.6859 122.631 94.6839 122.631 95.96C122.631 97.1995 122.977 98.1748 123.67 98.8857C124.363 99.5876 125.315 99.9385 126.527 99.9385C127.603 99.9385 128.656 99.6012 129.686 98.9268V102.399ZM144.178 102.905H140.09V100.896H140.035C139.096 102.463 137.706 103.247 135.865 103.247C134.507 103.247 133.436 102.864 132.652 102.099C131.878 101.324 131.49 100.294 131.49 99.0088C131.49 96.2926 133.099 94.7249 136.316 94.3057L140.117 93.7998C140.117 92.2686 139.288 91.5029 137.629 91.5029C135.961 91.5029 134.375 91.9997 132.871 92.9932V89.7393C133.473 89.4294 134.293 89.1559 135.332 88.9189C136.38 88.682 137.333 88.5635 138.189 88.5635C142.182 88.5635 144.178 90.555 144.178 94.5381V102.905ZM140.117 97.2178V96.2744L137.574 96.6025C136.171 96.7848 135.469 97.4183 135.469 98.5029C135.469 98.9951 135.637 99.4007 135.975 99.7197C136.321 100.03 136.786 100.185 137.369 100.185C138.18 100.185 138.841 99.9066 139.352 99.3506C139.862 98.7855 140.117 98.0745 140.117 97.2178ZM158.068 92.1865H154.322V102.905H149.975V92.1865H146.201V88.9053H158.068V92.1865ZM160.338 102.905V88.9053H164.658V93.7998H168.35C169.936 93.7998 171.171 94.1872 172.055 94.9619C172.939 95.7275 173.381 96.8076 173.381 98.2021C173.381 99.6331 172.943 100.777 172.068 101.634C171.193 102.481 169.981 102.905 168.432 102.905H160.338ZM164.658 96.5205V100.157H166.75C168.208 100.157 168.938 99.5329 168.938 98.2842C168.938 97.1084 168.227 96.5205 166.805 96.5205H164.658ZM183.744 102.905V88.9053H191.564C194.9 88.9053 196.568 90.0446 196.568 92.3232C196.568 93.1344 196.304 93.8226 195.775 94.3877C195.256 94.9437 194.577 95.3083 193.738 95.4814C194.768 95.609 195.575 95.9691 196.158 96.5615C196.751 97.1449 197.047 97.8604 197.047 98.708C197.047 99.9749 196.596 100.991 195.693 101.757C194.791 102.522 193.551 102.905 191.975 102.905H183.744ZM188.064 91.5439V94.4834H190.184C191.496 94.4834 192.152 93.9684 192.152 92.9385C192.152 92.0088 191.533 91.5439 190.293 91.5439H188.064ZM188.064 97.0264V100.212H190.553C191.929 100.212 192.617 99.6559 192.617 98.5439C192.617 97.5322 191.911 97.0264 190.498 97.0264H188.064ZM221.916 86.8955H216.324V102.905H211.895V86.8955H206.33V83.2998H221.916V86.8955ZM234.193 97.1357H225.061C225.206 99.1683 226.487 100.185 228.902 100.185C230.443 100.185 231.796 99.82 232.963 99.0908V102.208C231.669 102.901 229.987 103.247 227.918 103.247C225.658 103.247 223.903 102.623 222.654 101.374C221.406 100.116 220.781 98.3662 220.781 96.124C220.781 93.7998 221.456 91.9587 222.805 90.6006C224.154 89.2425 225.812 88.5635 227.781 88.5635C229.823 88.5635 231.4 89.1696 232.512 90.3818C233.633 91.5941 234.193 93.2393 234.193 95.3174V97.1357ZM230.188 94.4834C230.188 92.4782 229.376 91.4756 227.754 91.4756C227.061 91.4756 226.46 91.7627 225.949 92.3369C225.448 92.9111 225.143 93.6266 225.033 94.4834H230.188ZM241.084 102.905H236.764V82.1787H241.084V102.905ZM257.299 97.1357H248.166C248.312 99.1683 249.592 100.185 252.008 100.185C253.548 100.185 254.902 99.82 256.068 99.0908V102.208C254.774 102.901 253.092 103.247 251.023 103.247C248.763 103.247 247.008 102.623 245.76 101.374C244.511 100.116 243.887 98.3662 243.887 96.124C243.887 93.7998 244.561 91.9587 245.91 90.6006C247.259 89.2425 248.918 88.5635 250.887 88.5635C252.928 88.5635 254.505 89.1696 255.617 90.3818C256.738 91.5941 257.299 93.2393 257.299 95.3174V97.1357ZM253.293 94.4834C253.293 92.4782 252.482 91.4756 250.859 91.4756C250.167 91.4756 249.565 91.7627 249.055 92.3369C248.553 92.9111 248.248 93.6266 248.139 94.4834H253.293ZM273.596 101.306C273.596 103.903 272.844 105.913 271.34 107.335C269.836 108.766 267.658 109.481 264.805 109.481C262.918 109.481 261.423 109.213 260.32 108.675V105.038C261.76 105.877 263.214 106.296 264.682 106.296C266.14 106.296 267.27 105.909 268.072 105.134C268.874 104.368 269.275 103.325 269.275 102.003V100.896H269.221C268.236 102.463 266.783 103.247 264.859 103.247C263.073 103.247 261.656 102.618 260.607 101.36C259.559 100.103 259.035 98.4163 259.035 96.3018C259.035 93.932 259.618 92.0498 260.785 90.6553C261.952 89.2607 263.488 88.5635 265.393 88.5635C267.097 88.5635 268.373 89.2197 269.221 90.5322H269.275V88.9053H273.596V101.306ZM269.33 96.1787V95.0713C269.33 94.1872 269.066 93.4352 268.537 92.8154C268.018 92.1865 267.339 91.8721 266.5 91.8721C265.543 91.8721 264.791 92.2458 264.244 92.9932C263.697 93.7406 263.424 94.7933 263.424 96.1514C263.424 97.318 263.684 98.2432 264.203 98.9268C264.723 99.6012 265.434 99.9385 266.336 99.9385C267.229 99.9385 267.949 99.5967 268.496 98.9131C269.052 98.2204 269.33 97.3089 269.33 96.1787ZM286.338 92.8018C285.818 92.5192 285.212 92.3779 284.52 92.3779C283.581 92.3779 282.847 92.7243 282.318 93.417C281.79 94.1006 281.525 95.0348 281.525 96.2197V102.905H277.205V88.9053H281.525V91.5029H281.58C282.264 89.6071 283.494 88.6592 285.271 88.6592C285.727 88.6592 286.083 88.7139 286.338 88.8232V92.8018ZM300.01 102.905H295.922V100.896H295.867C294.928 102.463 293.538 103.247 291.697 103.247C290.339 103.247 289.268 102.864 288.484 102.099C287.71 101.324 287.322 100.294 287.322 99.0088C287.322 96.2926 288.931 94.7249 292.148 94.3057L295.949 93.7998C295.949 92.2686 295.12 91.5029 293.461 91.5029C291.793 91.5029 290.207 91.9997 288.703 92.9932V89.7393C289.305 89.4294 290.125 89.1559 291.164 88.9189C292.212 88.682 293.165 88.5635 294.021 88.5635C298.014 88.5635 300.01 90.555 300.01 94.5381V102.905ZM295.949 97.2178V96.2744L293.406 96.6025C292.003 96.7848 291.301 97.4183 291.301 98.5029C291.301 98.9951 291.469 99.4007 291.807 99.7197C292.153 100.03 292.618 100.185 293.201 100.185C294.012 100.185 294.673 99.9066 295.184 99.3506C295.694 98.7855 295.949 98.0745 295.949 97.2178ZM325.658 102.905H321.352V94.9209C321.352 92.8883 320.604 91.8721 319.109 91.8721C318.398 91.8721 317.82 92.1774 317.373 92.7881C316.926 93.3988 316.703 94.1598 316.703 95.0713V102.905H312.383V94.8389C312.383 92.861 311.649 91.8721 310.182 91.8721C309.443 91.8721 308.851 92.1637 308.404 92.7471C307.967 93.3304 307.748 94.1234 307.748 95.126V102.905H303.428V88.9053H307.748V91.0928H307.803C308.249 90.3454 308.874 89.7393 309.676 89.2744C310.487 88.8005 311.371 88.5635 312.328 88.5635C314.306 88.5635 315.66 89.4339 316.389 91.1748C317.455 89.4339 319.023 88.5635 321.092 88.5635C324.136 88.5635 325.658 90.4411 325.658 94.1963V102.905Z" fill="black"/>
<path d="M381.998 100.301H372.787V109.513H367.954V100.301H358.694V95.4443H367.954V86.1851H372.787V95.4443H381.998V100.301Z" fill="black"/>
<rect x="47" y="124.905" width="332" height="5" fill="black"/>
<defs>
<filter id="filter0_b_0_1" x="-9" y="11.9053" width="451" height="173.688" filterUnits="userSpaceOnUse" color-interpolation-filters="sRGB">
<feFlood flood-opacity="0" result="BackgroundImageFix"/>
<feGaussianBlur in="BackgroundImage" stdDeviation="4.5"/>
<feComposite in2="SourceAlpha" operator="in" result="effect1_backgroundBlur_0_1"/>
<feBlend mode="normal" in="SourceGraphic" in2="effect1_backgroundBlur_0_1" result="shape"/>
</filter>
<linearGradient id="paint0_linear_0_1" x1="427.637" y1="-7.15548" x2="373.358" y2="198.178" gradientUnits="userSpaceOnUse">
<stop stop-color="#4EEBB2"/>
<stop offset="1" stop-color="#67EEBD"/>
</linearGradient>
<radialGradient id="paint1_radial_0_1" cx="0" cy="0" r="1" gradientUnits="userSpaceOnUse" gradientTransform="translate(136.5 58.1077) rotate(32.2512) scale(290.286 286.339)">
<stop stop-color="white" stop-opacity="0.71"/>
<stop offset="1" stop-color="white" stop-opacity="0.17"/>
</radialGradient>
<linearGradient id="paint2_linear_0_1" x1="43.5" y1="20.9053" x2="77.4706" y2="218.041" gradientUnits="userSpaceOnUse">
<stop stop-color="white" stop-opacity="0.18"/>
<stop offset="1" stop-color="#1DCD8D"/>
</linearGradient>
</defs>
</svg>
