<svg width="413" height="709" viewBox="0 0 413 709" fill="none" xmlns="http://www.w3.org/2000/svg">
<path d="M61.916 75H58.4785L57.4824 71.8848H52.502L51.5156 75H48.0977L53.1953 60.9961H56.9355L61.916 75ZM56.7598 69.4629L55.2559 64.7559C55.1452 64.4043 55.0671 63.9844 55.0215 63.4961H54.9434C54.9108 63.9062 54.8294 64.3132 54.6992 64.7168L53.1758 69.4629H56.7598ZM66.8863 73.8379H66.8473V79.5996H63.7613V65H66.8473V66.5039H66.8863C67.648 65.3385 68.719 64.7559 70.0992 64.7559C71.3948 64.7559 72.3941 65.2018 73.0973 66.0938C73.8069 66.9792 74.1617 68.1868 74.1617 69.7168C74.1617 71.3835 73.7483 72.7214 72.9215 73.7305C72.1012 74.7396 71.0074 75.2441 69.6402 75.2441C68.4358 75.2441 67.5178 74.7754 66.8863 73.8379ZM66.7984 69.7363V70.5371C66.7984 71.2272 66.9807 71.7904 67.3453 72.2266C67.7099 72.6628 68.1884 72.8809 68.7809 72.8809C69.484 72.8809 70.0276 72.6107 70.4117 72.0703C70.8023 71.5234 70.9977 70.752 70.9977 69.7559C70.9977 67.998 70.3141 67.1191 68.9469 67.1191C68.3154 67.1191 67.7978 67.36 67.3941 67.8418C66.997 68.3171 66.7984 68.9486 66.7984 69.7363ZM85.548 70.8789H79.0246C79.1288 72.3307 80.0435 73.0566 81.7687 73.0566C82.869 73.0566 83.8358 72.7962 84.6691 72.2754V74.502C83.7447 74.9967 82.5435 75.2441 81.0656 75.2441C79.451 75.2441 78.1978 74.7982 77.3059 73.9062C76.4139 73.0078 75.968 71.7578 75.968 70.1562C75.968 68.4961 76.4497 67.181 77.4133 66.2109C78.3768 65.2409 79.5617 64.7559 80.968 64.7559C82.4263 64.7559 83.5526 65.1888 84.3469 66.0547C85.1477 66.9206 85.548 68.0957 85.548 69.5801V70.8789ZM82.6867 68.9844C82.6867 67.5521 82.1073 66.8359 80.9484 66.8359C80.4536 66.8359 80.024 67.041 79.6594 67.4512C79.3013 67.8613 79.0832 68.3724 79.0051 68.9844H82.6867ZM97.4227 75H94.327V70.8203H90.8699V75H87.784V65H90.8699V68.7012H94.327V65H97.4227V75ZM111.036 78.6426H108.516V75H101.787V78.6426H99.307V72.8223H100.196C101.608 70.6087 102.354 68.0013 102.432 65H109.454V72.8223H111.036V78.6426ZM106.368 72.8223V67.1582H104.834C104.685 69.2676 104.138 71.1556 103.194 72.8223H106.368ZM121.553 75H118.633V73.5645H118.594C117.923 74.6842 116.93 75.2441 115.615 75.2441C114.645 75.2441 113.88 74.9707 113.32 74.4238C112.767 73.8704 112.49 73.1348 112.49 72.2168C112.49 70.2767 113.639 69.1569 115.938 68.8574L118.652 68.4961C118.652 67.4023 118.06 66.8555 116.875 66.8555C115.684 66.8555 114.551 67.2103 113.477 67.9199V65.5957C113.906 65.3743 114.492 65.179 115.234 65.0098C115.983 64.8405 116.663 64.7559 117.275 64.7559C120.127 64.7559 121.553 66.1784 121.553 69.0234V75ZM118.652 70.9375V70.2637L116.836 70.498C115.833 70.6283 115.332 71.0807 115.332 71.8555C115.332 72.207 115.452 72.4967 115.693 72.7246C115.941 72.946 116.273 73.0566 116.689 73.0566C117.269 73.0566 117.741 72.8581 118.105 72.4609C118.47 72.0573 118.652 71.5495 118.652 70.9375ZM138.642 75H135.722V73.5645H135.683C135.012 74.6842 134.019 75.2441 132.704 75.2441C131.734 75.2441 130.969 74.9707 130.409 74.4238C129.856 73.8704 129.579 73.1348 129.579 72.2168C129.579 70.2767 130.728 69.1569 133.027 68.8574L135.741 68.4961C135.741 67.4023 135.149 66.8555 133.964 66.8555C132.773 66.8555 131.64 67.2103 130.566 67.9199V65.5957C130.995 65.3743 131.581 65.179 132.323 65.0098C133.072 64.8405 133.752 64.7559 134.364 64.7559C137.216 64.7559 138.642 66.1784 138.642 69.0234V75ZM135.741 70.9375V70.2637L133.925 70.498C132.922 70.6283 132.421 71.0807 132.421 71.8555C132.421 72.207 132.542 72.4967 132.782 72.7246C133.03 72.946 133.362 73.0566 133.779 73.0566C134.358 73.0566 134.83 72.8581 135.195 72.4609C135.559 72.0573 135.741 71.5495 135.741 70.9375ZM151.464 75H147.762L144.608 70.1172H144.569V75H141.483V65H144.569V69.6973H144.608L147.684 65H151.346L147.665 69.7559L151.464 75ZM161.395 75H158.475V73.5645H158.436C157.765 74.6842 156.773 75.2441 155.457 75.2441C154.487 75.2441 153.722 74.9707 153.162 74.4238C152.609 73.8704 152.332 73.1348 152.332 72.2168C152.332 70.2767 153.482 69.1569 155.78 68.8574L158.495 68.4961C158.495 67.4023 157.902 66.8555 156.717 66.8555C155.526 66.8555 154.393 67.2103 153.319 67.9199V65.5957C153.748 65.3743 154.334 65.179 155.077 65.0098C155.825 64.8405 156.506 64.7559 157.118 64.7559C159.969 64.7559 161.395 66.1784 161.395 69.0234V75ZM158.495 70.9375V70.2637L156.678 70.498C155.676 70.6283 155.174 71.0807 155.174 71.8555C155.174 72.207 155.295 72.4967 155.536 72.7246C155.783 72.946 156.115 73.0566 156.532 73.0566C157.111 73.0566 157.583 72.8581 157.948 72.4609C158.312 72.0573 158.495 71.5495 158.495 70.9375ZM173.758 65L169.695 75.8008C168.719 78.3984 167.247 79.6973 165.281 79.6973C164.533 79.6973 163.917 79.6126 163.436 79.4434V76.9824C163.846 77.2233 164.292 77.3438 164.773 77.3438C165.568 77.3438 166.121 76.9694 166.434 76.2207L166.961 74.9805L162.898 65H166.316L168.182 71.084C168.299 71.4616 168.39 71.9076 168.455 72.4219H168.494C168.553 72.0443 168.66 71.6048 168.816 71.1035L170.701 65H173.758ZM183.211 67.3438H180.535V75H177.429V67.3438H174.734V65H183.211V67.3438ZM194.87 75H191.775V70.8203H188.318V75H185.232V65H188.318V68.7012H191.775V65H194.87V75ZM202.643 75.2441C200.977 75.2441 199.665 74.7786 198.708 73.8477C197.757 72.9102 197.282 71.6406 197.282 70.0391C197.282 68.3854 197.777 67.0931 198.766 66.1621C199.756 65.2246 201.094 64.7559 202.78 64.7559C204.44 64.7559 205.742 65.2246 206.686 66.1621C207.63 67.0931 208.102 68.3268 208.102 69.8633C208.102 71.5234 207.614 72.8353 206.637 73.7988C205.667 74.7624 204.336 75.2441 202.643 75.2441ZM202.721 67.1191C201.992 67.1191 201.426 67.3698 201.022 67.8711C200.619 68.3724 200.417 69.082 200.417 70C200.417 71.9206 201.192 72.8809 202.741 72.8809C204.219 72.8809 204.958 71.8945 204.958 69.9219C204.958 68.0534 204.212 67.1191 202.721 67.1191ZM210.504 75V65H216.09C218.473 65 219.664 65.8138 219.664 67.4414C219.664 68.0208 219.476 68.5124 219.098 68.916C218.727 69.3132 218.242 69.5736 217.643 69.6973C218.379 69.7884 218.955 70.0456 219.371 70.4688C219.795 70.8854 220.006 71.3965 220.006 72.002C220.006 72.9069 219.684 73.6328 219.039 74.1797C218.395 74.7266 217.51 75 216.383 75H210.504ZM213.59 66.8848V68.9844H215.104C216.041 68.9844 216.51 68.6165 216.51 67.8809C216.51 67.2168 216.067 66.8848 215.182 66.8848H213.59ZM213.59 70.8008V73.0762H215.368C216.351 73.0762 216.842 72.679 216.842 71.8848C216.842 71.1621 216.338 70.8008 215.329 70.8008H213.59ZM239.039 78.6426H236.519V75H229.791V78.6426H227.31V72.8223H228.199C229.612 70.6087 230.357 68.0013 230.435 65H237.457V72.8223H239.039V78.6426ZM234.371 72.8223V67.1582H232.837C232.688 69.2676 232.141 71.1556 231.197 72.8223H234.371ZM250.855 75H247.749V67.1777H246.05C245.692 70.2051 245.155 72.2852 244.439 73.418C243.729 74.5508 242.733 75.1172 241.45 75.1172C241.008 75.1172 240.607 75.0521 240.249 74.9219V72.8223C240.477 72.9264 240.718 72.9785 240.972 72.9785C241.584 72.9785 242.092 72.4089 242.495 71.2695C242.899 70.1302 243.264 68.0404 243.589 65H250.855V75ZM262.641 75H259.585V71.2598H258.882C258.341 71.2598 257.85 71.7383 257.407 72.6953L256.343 75H252.905L254.36 72.1582C254.803 71.2988 255.425 70.752 256.225 70.5176C254.559 70.2311 253.725 69.3652 253.725 67.9199C253.725 65.9733 255.151 65 258.003 65H262.641V75ZM259.585 69.4238V66.9629H258.423C257.355 66.9629 256.821 67.3698 256.821 68.1836C256.821 69.0104 257.355 69.4238 258.423 69.4238H259.585ZM267.006 68.0957C266.498 68.0957 266.075 67.9427 265.737 67.6367C265.398 67.3242 265.229 66.9401 265.229 66.4844C265.229 66.0156 265.401 65.6315 265.746 65.332C266.098 65.0326 266.534 64.8828 267.055 64.8828C267.582 64.8828 268.012 65.0358 268.344 65.3418C268.683 65.6413 268.852 66.0221 268.852 66.4844C268.852 66.9596 268.679 67.347 268.334 67.6465C267.996 67.946 267.553 68.0957 267.006 68.0957ZM267.006 75.2441C266.498 75.2441 266.075 75.0879 265.737 74.7754C265.398 74.4629 265.229 74.0788 265.229 73.623C265.229 73.1543 265.401 72.7702 265.746 72.4707C266.098 72.1712 266.534 72.0215 267.055 72.0215C267.582 72.0215 268.012 72.1745 268.344 72.4805C268.683 72.7799 268.852 73.1608 268.852 73.623C268.852 74.0983 268.679 74.4889 268.334 74.7949C267.996 75.0944 267.553 75.2441 267.006 75.2441Z" fill="black"/>
<circle cx="423.465" cy="467.027" r="214.184" transform="rotate(75 423.465 467.027)" stroke="#2CFC73" stroke-opacity="0.11" stroke-width="29.7533"/>
<g filter="url(#filter0_b_178_343)">
<rect x="21" y="163" width="370" height="99" rx="23" fill="url(#paint0_linear_178_343)" fill-opacity="0.77"/>
<rect x="21.5" y="163.5" width="369" height="98" rx="22.5" stroke="url(#paint1_linear_178_343)"/>
</g>
<path d="M64.2803 215.658V220H61.4414V207.396H65.8887C69.0645 207.396 70.6523 208.735 70.6523 211.413C70.6523 212.679 70.1953 213.704 69.2812 214.489C68.373 215.269 67.1572 215.658 65.6338 215.658H64.2803ZM64.2803 209.576V213.505H65.3965C66.9082 213.505 67.6641 212.843 67.6641 211.519C67.6641 210.224 66.9082 209.576 65.3965 209.576H64.2803ZM79.7666 216.291H73.8955C73.9893 217.598 74.8125 218.251 76.3652 218.251C77.3555 218.251 78.2256 218.017 78.9756 217.548V219.552C78.1436 219.997 77.0625 220.22 75.7324 220.22C74.2793 220.22 73.1514 219.818 72.3486 219.016C71.5459 218.207 71.1445 217.082 71.1445 215.641C71.1445 214.146 71.5781 212.963 72.4453 212.09C73.3125 211.217 74.3789 210.78 75.6445 210.78C76.957 210.78 77.9707 211.17 78.6855 211.949C79.4062 212.729 79.7666 213.786 79.7666 215.122V216.291ZM77.1914 214.586C77.1914 213.297 76.6699 212.652 75.627 212.652C75.1816 212.652 74.7949 212.837 74.4668 213.206C74.1445 213.575 73.9482 214.035 73.8779 214.586H77.1914ZM90.4014 220H87.0703L84.2314 215.605H84.1963V220H81.4189V211H84.1963V215.228H84.2314L87 211H90.2959L86.9824 215.28L90.4014 220ZM100.307 220H97.5117V212.96H95.9824C95.6602 215.685 95.1768 217.557 94.5322 218.576C93.8936 219.596 92.9971 220.105 91.8428 220.105C91.4443 220.105 91.084 220.047 90.7617 219.93V218.04C90.9668 218.134 91.1836 218.181 91.4121 218.181C91.9629 218.181 92.4199 217.668 92.7832 216.643C93.1465 215.617 93.4746 213.736 93.7676 211H100.307V220ZM110.142 220H107.514V218.708H107.479C106.875 219.716 105.981 220.22 104.798 220.22C103.925 220.22 103.236 219.974 102.732 219.481C102.234 218.983 101.985 218.321 101.985 217.495C101.985 215.749 103.02 214.741 105.088 214.472L107.531 214.146C107.531 213.162 106.998 212.67 105.932 212.67C104.859 212.67 103.84 212.989 102.873 213.628V211.536C103.26 211.337 103.787 211.161 104.455 211.009C105.129 210.856 105.741 210.78 106.292 210.78C108.858 210.78 110.142 212.061 110.142 214.621V220ZM107.531 216.344V215.737L105.896 215.948C104.994 216.065 104.543 216.473 104.543 217.17C104.543 217.486 104.651 217.747 104.868 217.952C105.091 218.151 105.39 218.251 105.765 218.251C106.286 218.251 106.711 218.072 107.039 217.715C107.367 217.352 107.531 216.895 107.531 216.344ZM123.984 220H121.392V212.995C121.333 213.323 121.178 213.877 120.926 214.656L119.177 220H116.733L114.984 214.656C114.697 213.777 114.542 213.229 114.519 213.013V220H112.339V211H115.995L117.7 216.133C117.964 216.924 118.11 217.457 118.14 217.732C118.181 217.469 118.33 216.941 118.588 216.15L120.275 211H123.984V220ZM135.006 220H132.22V216.238H129.108V220H126.331V211H129.108V214.331H132.22V211H135.006V220ZM149.684 220H146.897V211H149.684V220ZM137.353 220V211H140.13V214.146H142.503C143.522 214.146 144.316 214.396 144.885 214.894C145.453 215.386 145.737 216.08 145.737 216.977C145.737 217.896 145.456 218.632 144.894 219.183C144.331 219.728 143.552 220 142.556 220H137.353ZM140.13 215.896V218.233H141.475C142.412 218.233 142.881 217.832 142.881 217.029C142.881 216.273 142.424 215.896 141.51 215.896H140.13ZM160.723 211L157.752 215.359L160.705 220H157.506L156.205 217.574C156.1 217.381 155.974 217.108 155.827 216.757H155.792C155.704 217.003 155.584 217.267 155.432 217.548L154.122 220H150.932L153.973 215.518L151.116 211H154.333L155.616 213.522C155.786 213.856 155.906 214.138 155.977 214.366H156.012C156.105 214.091 156.231 213.804 156.39 213.505L157.699 211H160.723ZM174.442 220H171.814V218.708H171.779C171.176 219.716 170.282 220.22 169.099 220.22C168.226 220.22 167.537 219.974 167.033 219.481C166.535 218.983 166.286 218.321 166.286 217.495C166.286 215.749 167.32 214.741 169.389 214.472L171.832 214.146C171.832 213.162 171.299 212.67 170.232 212.67C169.16 212.67 168.141 212.989 167.174 213.628V211.536C167.561 211.337 168.088 211.161 168.756 211.009C169.43 210.856 170.042 210.78 170.593 210.78C173.159 210.78 174.442 212.061 174.442 214.621V220ZM171.832 216.344V215.737L170.197 215.948C169.295 216.065 168.844 216.473 168.844 217.17C168.844 217.486 168.952 217.747 169.169 217.952C169.392 218.151 169.69 218.251 170.065 218.251C170.587 218.251 171.012 218.072 171.34 217.715C171.668 217.352 171.832 216.895 171.832 216.344ZM182.511 213.109H179.417V220H176.64V211H182.511V213.109ZM191.845 216.291H185.974C186.067 217.598 186.891 218.251 188.443 218.251C189.434 218.251 190.304 218.017 191.054 217.548V219.552C190.222 219.997 189.141 220.22 187.811 220.22C186.357 220.22 185.229 219.818 184.427 219.016C183.624 218.207 183.223 217.082 183.223 215.641C183.223 214.146 183.656 212.963 184.523 212.09C185.391 211.217 186.457 210.78 187.723 210.78C189.035 210.78 190.049 211.17 190.764 211.949C191.484 212.729 191.845 213.786 191.845 215.122V216.291ZM189.27 214.586C189.27 213.297 188.748 212.652 187.705 212.652C187.26 212.652 186.873 212.837 186.545 213.206C186.223 213.575 186.026 214.035 185.956 214.586H189.27ZM202.172 220H199.386V216.238H196.274V220H193.497V211H196.274V214.331H199.386V211H202.172V220ZM211.339 219.675C210.712 220.038 209.807 220.22 208.623 220.22C207.24 220.22 206.121 219.801 205.266 218.963C204.41 218.125 203.982 217.044 203.982 215.72C203.982 214.19 204.439 212.986 205.354 212.107C206.273 211.223 207.501 210.78 209.036 210.78C210.097 210.78 210.864 210.921 211.339 211.202V213.558C210.759 213.124 210.111 212.907 209.396 212.907C208.6 212.907 207.967 213.142 207.498 213.61C207.035 214.073 206.804 214.715 206.804 215.535C206.804 216.332 207.026 216.959 207.472 217.416C207.917 217.867 208.529 218.093 209.309 218.093C210 218.093 210.677 217.876 211.339 217.442V219.675ZM219.899 213.109H217.491V220H214.696V213.109H212.271V211H219.899V213.109ZM221.358 220V211H226.386C228.53 211 229.603 211.732 229.603 213.197C229.603 213.719 229.433 214.161 229.093 214.524C228.759 214.882 228.322 215.116 227.783 215.228C228.445 215.31 228.964 215.541 229.339 215.922C229.72 216.297 229.91 216.757 229.91 217.302C229.91 218.116 229.62 218.77 229.04 219.262C228.46 219.754 227.663 220 226.649 220H221.358ZM224.136 212.696V214.586H225.498C226.342 214.586 226.764 214.255 226.764 213.593C226.764 212.995 226.365 212.696 225.568 212.696H224.136ZM224.136 216.221V218.269H225.735C226.62 218.269 227.062 217.911 227.062 217.196C227.062 216.546 226.608 216.221 225.7 216.221H224.136Z" fill="white"/>
<g filter="url(#filter1_b_178_343)">
<rect x="21" y="325" width="370" height="99" rx="23" fill="url(#paint2_linear_178_343)" fill-opacity="0.77"/>
<rect x="21.5" y="325.5" width="369" height="98" rx="22.5" stroke="url(#paint3_linear_178_343)"/>
</g>
<path d="M75.8027 372H72.999V364.459C72.999 363.645 73.0342 362.745 73.1045 361.761H73.0342C72.8877 362.534 72.7559 363.091 72.6387 363.431L69.6855 372H67.3652L64.3594 363.519C64.2773 363.29 64.1455 362.704 63.9639 361.761H63.8848C63.9609 363.003 63.999 364.093 63.999 365.03V372H61.4414V359.396H65.5986L68.1738 366.867C68.3789 367.465 68.5283 368.065 68.6221 368.669H68.6748C68.833 367.972 69 367.365 69.1758 366.85L71.751 359.396H75.8027V372ZM85.8838 372H83.2559V370.708H83.2207C82.6172 371.716 81.7236 372.22 80.54 372.22C79.667 372.22 78.9785 371.974 78.4746 371.481C77.9766 370.983 77.7275 370.321 77.7275 369.495C77.7275 367.749 78.7617 366.741 80.8301 366.472L83.2734 366.146C83.2734 365.162 82.7402 364.67 81.6738 364.67C80.6016 364.67 79.582 364.989 78.6152 365.628V363.536C79.002 363.337 79.5293 363.161 80.1973 363.009C80.8711 362.856 81.4834 362.78 82.0342 362.78C84.6006 362.78 85.8838 364.061 85.8838 366.621V372ZM83.2734 368.344V367.737L81.6387 367.948C80.7363 368.065 80.2852 368.473 80.2852 369.17C80.2852 369.486 80.3936 369.747 80.6104 369.952C80.833 370.151 81.1318 370.251 81.5068 370.251C82.0283 370.251 82.4531 370.072 82.7812 369.715C83.1094 369.352 83.2734 368.895 83.2734 368.344ZM96.5977 372H93.8027V364.96H92.2734C91.9512 367.685 91.4678 369.557 90.8232 370.576C90.1846 371.596 89.2881 372.105 88.1338 372.105C87.7354 372.105 87.375 372.047 87.0527 371.93V370.04C87.2578 370.134 87.4746 370.181 87.7031 370.181C88.2539 370.181 88.7109 369.668 89.0742 368.643C89.4375 367.617 89.7656 365.736 90.0586 363H96.5977V372ZM111.275 372H108.489V363H111.275V372ZM98.9443 372V363H101.722V366.146H104.095C105.114 366.146 105.908 366.396 106.477 366.894C107.045 367.386 107.329 368.08 107.329 368.977C107.329 369.896 107.048 370.632 106.485 371.183C105.923 371.728 105.144 372 104.147 372H98.9443ZM101.722 367.896V370.233H103.066C104.004 370.233 104.473 369.832 104.473 369.029C104.473 368.273 104.016 367.896 103.102 367.896H101.722ZM122.314 363L119.344 367.359L122.297 372H119.098L117.797 369.574C117.691 369.381 117.565 369.108 117.419 368.757H117.384C117.296 369.003 117.176 369.267 117.023 369.548L115.714 372H112.523L115.564 367.518L112.708 363H115.925L117.208 365.522C117.378 365.856 117.498 366.138 117.568 366.366H117.604C117.697 366.091 117.823 365.804 117.981 365.505L119.291 363H122.314ZM136.518 358.465V360.662C136.236 360.879 135.861 361.022 135.393 361.093C134.074 361.298 133.286 361.43 133.028 361.488C132.495 361.611 132.105 361.778 131.859 361.989C131.619 362.2 131.42 362.508 131.262 362.912C131.109 363.316 131.004 363.809 130.945 364.389H130.98C131.648 363.621 132.542 363.237 133.661 363.237C134.938 363.237 135.932 363.618 136.641 364.38C137.355 365.136 137.713 366.182 137.713 367.518C137.713 368.947 137.276 370.09 136.403 370.945C135.53 371.795 134.347 372.22 132.853 372.22C131.288 372.22 130.099 371.722 129.284 370.726C128.47 369.729 128.062 368.288 128.062 366.401C128.062 365.499 128.13 364.685 128.265 363.958C128.399 363.226 128.602 362.581 128.871 362.024C129.141 361.462 129.472 360.993 129.864 360.618C130.263 360.243 130.667 359.971 131.077 359.801C131.493 359.625 131.9 359.496 132.299 359.414C132.697 359.326 133.696 359.159 135.296 358.913C135.823 358.778 136.23 358.629 136.518 358.465ZM130.901 366.331C130.89 366.472 130.884 366.747 130.884 367.157C130.884 368.054 131.062 368.769 131.42 369.302C131.783 369.829 132.284 370.093 132.923 370.093C133.503 370.093 133.975 369.87 134.338 369.425C134.701 368.979 134.883 368.385 134.883 367.641C134.883 366.885 134.698 366.296 134.329 365.874C133.966 365.446 133.474 365.232 132.853 365.232C132.448 365.232 132.064 365.338 131.701 365.549C131.344 365.76 131.077 366.021 130.901 366.331ZM148.462 372H145.939V366.111C145.711 366.574 145.465 367.002 145.201 367.395L142.143 372H139.515V363H142.055V368.704C142.242 368.312 142.447 367.945 142.67 367.605L145.729 363H148.462V372ZM150.352 371.763V369.75C151.219 370.148 152.083 370.348 152.944 370.348C154.192 370.348 154.816 370.005 154.816 369.319C154.816 368.61 154.137 368.256 152.777 368.256H151.521V366.542H152.795C153.961 366.542 154.544 366.202 154.544 365.522C154.544 364.919 154.022 364.617 152.979 364.617C152.194 364.617 151.409 364.793 150.624 365.145V363.237C151.679 362.933 152.631 362.78 153.48 362.78C156.1 362.78 157.409 363.592 157.409 365.215C157.409 366.34 156.712 367.034 155.317 367.298V367.342C156.056 367.406 156.633 367.629 157.049 368.01C157.465 368.391 157.673 368.874 157.673 369.46C157.673 371.271 156.205 372.176 153.27 372.176C152.15 372.176 151.178 372.038 150.352 371.763ZM168.141 372H165.354V368.238H162.243V372H159.466V363H162.243V366.331H165.354V363H168.141V372ZM178.573 368.291H172.702C172.796 369.598 173.619 370.251 175.172 370.251C176.162 370.251 177.032 370.017 177.782 369.548V371.552C176.95 371.997 175.869 372.22 174.539 372.22C173.086 372.22 171.958 371.818 171.155 371.016C170.353 370.207 169.951 369.082 169.951 367.641C169.951 366.146 170.385 364.963 171.252 364.09C172.119 363.217 173.186 362.78 174.451 362.78C175.764 362.78 176.777 363.17 177.492 363.949C178.213 364.729 178.573 365.786 178.573 367.122V368.291ZM175.998 366.586C175.998 365.297 175.477 364.652 174.434 364.652C173.988 364.652 173.602 364.837 173.273 365.206C172.951 365.575 172.755 366.035 172.685 366.586H175.998ZM187.046 371.675C186.419 372.038 185.514 372.22 184.33 372.22C182.947 372.22 181.828 371.801 180.973 370.963C180.117 370.125 179.689 369.044 179.689 367.72C179.689 366.19 180.146 364.986 181.061 364.107C181.98 363.223 183.208 362.78 184.743 362.78C185.804 362.78 186.571 362.921 187.046 363.202V365.558C186.466 365.124 185.818 364.907 185.104 364.907C184.307 364.907 183.674 365.142 183.205 365.61C182.742 366.073 182.511 366.715 182.511 367.535C182.511 368.332 182.733 368.959 183.179 369.416C183.624 369.867 184.236 370.093 185.016 370.093C185.707 370.093 186.384 369.876 187.046 369.442V371.675ZM193.163 372.22C191.663 372.22 190.482 371.801 189.621 370.963C188.766 370.119 188.338 368.977 188.338 367.535C188.338 366.047 188.783 364.884 189.674 364.046C190.564 363.202 191.769 362.78 193.286 362.78C194.78 362.78 195.952 363.202 196.802 364.046C197.651 364.884 198.076 365.994 198.076 367.377C198.076 368.871 197.637 370.052 196.758 370.919C195.885 371.786 194.687 372.22 193.163 372.22ZM193.233 364.907C192.577 364.907 192.067 365.133 191.704 365.584C191.341 366.035 191.159 366.674 191.159 367.5C191.159 369.229 191.856 370.093 193.251 370.093C194.581 370.093 195.246 369.205 195.246 367.43C195.246 365.748 194.575 364.907 193.233 364.907ZM199.878 372V363H204.905C207.05 363 208.122 363.732 208.122 365.197C208.122 365.719 207.952 366.161 207.612 366.524C207.278 366.882 206.842 367.116 206.303 367.228C206.965 367.31 207.483 367.541 207.858 367.922C208.239 368.297 208.43 368.757 208.43 369.302C208.43 370.116 208.14 370.77 207.56 371.262C206.979 371.754 206.183 372 205.169 372H199.878ZM202.655 364.696V366.586H204.018C204.861 366.586 205.283 366.255 205.283 365.593C205.283 364.995 204.885 364.696 204.088 364.696H202.655ZM202.655 368.221V370.269H204.255C205.14 370.269 205.582 369.911 205.582 369.196C205.582 368.546 205.128 368.221 204.22 368.221H202.655ZM222.114 371.675C221.487 372.038 220.582 372.22 219.398 372.22C218.016 372.22 216.896 371.801 216.041 370.963C215.186 370.125 214.758 369.044 214.758 367.72C214.758 366.19 215.215 364.986 216.129 364.107C217.049 363.223 218.276 362.78 219.812 362.78C220.872 362.78 221.64 362.921 222.114 363.202V365.558C221.534 365.124 220.887 364.907 220.172 364.907C219.375 364.907 218.742 365.142 218.273 365.61C217.811 366.073 217.579 366.715 217.579 367.535C217.579 368.332 217.802 368.959 218.247 369.416C218.692 369.867 219.305 370.093 220.084 370.093C220.775 370.093 221.452 369.876 222.114 369.442V371.675ZM236.889 358.465V360.662C236.607 360.879 236.232 361.022 235.764 361.093C234.445 361.298 233.657 361.43 233.399 361.488C232.866 361.611 232.477 361.778 232.23 361.989C231.99 362.2 231.791 362.508 231.633 362.912C231.48 363.316 231.375 363.809 231.316 364.389H231.352C232.02 363.621 232.913 363.237 234.032 363.237C235.31 363.237 236.303 363.618 237.012 364.38C237.727 365.136 238.084 366.182 238.084 367.518C238.084 368.947 237.647 370.09 236.774 370.945C235.901 371.795 234.718 372.22 233.224 372.22C231.659 372.22 230.47 371.722 229.655 370.726C228.841 369.729 228.434 368.288 228.434 366.401C228.434 365.499 228.501 364.685 228.636 363.958C228.771 363.226 228.973 362.581 229.242 362.024C229.512 361.462 229.843 360.993 230.235 360.618C230.634 360.243 231.038 359.971 231.448 359.801C231.864 359.625 232.271 359.496 232.67 359.414C233.068 359.326 234.067 359.159 235.667 358.913C236.194 358.778 236.602 358.629 236.889 358.465ZM231.272 366.331C231.261 366.472 231.255 366.747 231.255 367.157C231.255 368.054 231.434 368.769 231.791 369.302C232.154 369.829 232.655 370.093 233.294 370.093C233.874 370.093 234.346 369.87 234.709 369.425C235.072 368.979 235.254 368.385 235.254 367.641C235.254 366.885 235.069 366.296 234.7 365.874C234.337 365.446 233.845 365.232 233.224 365.232C232.819 365.232 232.436 365.338 232.072 365.549C231.715 365.76 231.448 366.021 231.272 366.331ZM244.509 368.326H242.663V372H239.886V363H242.663V366.349H244.588C244.811 365.218 245.335 364.342 246.161 363.721C246.993 363.094 248.033 362.78 249.281 362.78C250.764 362.78 251.918 363.196 252.744 364.028C253.57 364.86 253.983 365.977 253.983 367.377C253.983 368.883 253.556 370.066 252.7 370.928C251.851 371.789 250.67 372.22 249.158 372.22C247.822 372.22 246.75 371.883 245.941 371.209C245.139 370.529 244.661 369.568 244.509 368.326ZM249.211 364.907C247.939 364.907 247.304 365.76 247.304 367.465C247.304 369.217 247.951 370.093 249.246 370.093C250.518 370.093 251.153 369.205 251.153 367.43C251.153 365.748 250.506 364.907 249.211 364.907ZM265.181 375.278H262.913V372H256.857V375.278H254.625V370.04H255.425C256.696 368.048 257.367 365.701 257.438 363H263.757V370.04H265.181V375.278ZM260.979 370.04V364.942H259.6C259.465 366.841 258.973 368.54 258.123 370.04H260.979ZM280.843 372H277.564L274.664 367.5H274.629V372H271.896V367.5H271.86L268.978 372H265.699L269.118 367.28L265.787 363H269.048L271.86 367.263H271.896V363H274.629V367.263H274.664L277.477 363H280.729L277.397 367.28L280.843 372ZM289.843 368.291H283.972C284.065 369.598 284.889 370.251 286.441 370.251C287.432 370.251 288.302 370.017 289.052 369.548V371.552C288.22 371.997 287.139 372.22 285.809 372.22C284.355 372.22 283.228 371.818 282.425 371.016C281.622 370.207 281.221 369.082 281.221 367.641C281.221 366.146 281.654 364.963 282.521 364.09C283.389 363.217 284.455 362.78 285.721 362.78C287.033 362.78 288.047 363.17 288.762 363.949C289.482 364.729 289.843 365.786 289.843 367.122V368.291ZM287.268 366.586C287.268 365.297 286.746 364.652 285.703 364.652C285.258 364.652 284.871 364.837 284.543 365.206C284.221 365.575 284.024 366.035 283.954 366.586H287.268ZM298.228 365.109H295.819V372H293.024V365.109H290.599V363H298.228V365.109ZM307.175 372H304.547V370.708H304.512C303.908 371.716 303.015 372.22 301.831 372.22C300.958 372.22 300.27 371.974 299.766 371.481C299.268 370.983 299.019 370.321 299.019 369.495C299.019 367.749 300.053 366.741 302.121 366.472L304.564 366.146C304.564 365.162 304.031 364.67 302.965 364.67C301.893 364.67 300.873 364.989 299.906 365.628V363.536C300.293 363.337 300.82 363.161 301.488 363.009C302.162 362.856 302.774 362.78 303.325 362.78C305.892 362.78 307.175 364.061 307.175 366.621V372ZM304.564 368.344V367.737L302.93 367.948C302.027 368.065 301.576 368.473 301.576 369.17C301.576 369.486 301.685 369.747 301.901 369.952C302.124 370.151 302.423 370.251 302.798 370.251C303.319 370.251 303.744 370.072 304.072 369.715C304.4 369.352 304.564 368.895 304.564 368.344ZM321.018 372H318.425V364.995C318.366 365.323 318.211 365.877 317.959 366.656L316.21 372H313.767L312.018 366.656C311.73 365.777 311.575 365.229 311.552 365.013V372H309.372V363H313.028L314.733 368.133C314.997 368.924 315.144 369.457 315.173 369.732C315.214 369.469 315.363 368.941 315.621 368.15L317.309 363H321.018V372ZM332.312 372H329.789V366.111C329.561 366.574 329.314 367.002 329.051 367.395L325.992 372H323.364V363H325.904V368.704C326.092 368.312 326.297 367.945 326.52 367.605L329.578 363H332.312V372ZM65.458 392.22C63.958 392.22 62.7773 391.801 61.916 390.963C61.0605 390.119 60.6328 388.977 60.6328 387.535C60.6328 386.047 61.0781 384.884 61.9688 384.046C62.8594 383.202 64.0635 382.78 65.5811 382.78C67.0752 382.78 68.2471 383.202 69.0967 384.046C69.9463 384.884 70.3711 385.994 70.3711 387.377C70.3711 388.871 69.9316 390.052 69.0527 390.919C68.1797 391.786 66.9814 392.22 65.458 392.22ZM65.5283 384.907C64.8721 384.907 64.3623 385.133 63.999 385.584C63.6357 386.035 63.4541 386.674 63.4541 387.5C63.4541 389.229 64.1514 390.093 65.5459 390.093C66.876 390.093 67.541 389.205 67.541 387.43C67.541 385.748 66.8701 384.907 65.5283 384.907ZM78.6416 385.109H76.2334V392H73.4385V385.109H71.0127V383H78.6416V385.109ZM91.2188 379.115V392H88.4502V382.244C88.2979 382.379 88.1162 382.508 87.9053 382.631C87.7002 382.748 87.4805 382.856 87.2461 382.956C87.0117 383.05 86.7686 383.132 86.5166 383.202C86.2646 383.267 86.0156 383.313 85.7695 383.343V381.005C86.4902 380.794 87.1699 380.524 87.8086 380.196C88.4473 379.868 89.0244 379.508 89.54 379.115H91.2188ZM99.3662 392.22C96.3662 392.22 94.8662 390.113 94.8662 385.9C94.8662 383.715 95.2705 382.051 96.0791 380.908C96.8936 379.76 98.0713 379.186 99.6123 379.186C102.542 379.186 104.007 381.327 104.007 385.61C104.007 387.743 103.605 389.378 102.803 390.515C102.006 391.651 100.86 392.22 99.3662 392.22ZM99.4893 381.304C98.2881 381.304 97.6875 382.812 97.6875 385.83C97.6875 388.672 98.2764 390.093 99.4541 390.093C100.603 390.093 101.177 388.628 101.177 385.698C101.177 382.769 100.614 381.304 99.4893 381.304ZM109.72 392.22C106.72 392.22 105.22 390.113 105.22 385.9C105.22 383.715 105.624 382.051 106.433 380.908C107.247 379.76 108.425 379.186 109.966 379.186C112.896 379.186 114.36 381.327 114.36 385.61C114.36 387.743 113.959 389.378 113.156 390.515C112.359 391.651 111.214 392.22 109.72 392.22ZM109.843 381.304C108.642 381.304 108.041 382.812 108.041 385.83C108.041 388.672 108.63 390.093 109.808 390.093C110.956 390.093 111.53 388.628 111.53 385.698C111.53 382.769 110.968 381.304 109.843 381.304ZM125.048 392.22C122.048 392.22 120.548 390.113 120.548 385.9C120.548 383.715 120.952 382.051 121.761 380.908C122.575 379.76 123.753 379.186 125.294 379.186C128.224 379.186 129.688 381.327 129.688 385.61C129.688 387.743 129.287 389.378 128.484 390.515C127.688 391.651 126.542 392.22 125.048 392.22ZM125.171 381.304C123.97 381.304 123.369 382.812 123.369 385.83C123.369 388.672 123.958 390.093 125.136 390.093C126.284 390.093 126.858 388.628 126.858 385.698C126.858 382.769 126.296 381.304 125.171 381.304ZM135.401 392.22C132.401 392.22 130.901 390.113 130.901 385.9C130.901 383.715 131.306 382.051 132.114 380.908C132.929 379.76 134.106 379.186 135.647 379.186C138.577 379.186 140.042 381.327 140.042 385.61C140.042 387.743 139.641 389.378 138.838 390.515C138.041 391.651 136.896 392.22 135.401 392.22ZM135.524 381.304C134.323 381.304 133.723 382.812 133.723 385.83C133.723 388.672 134.312 390.093 135.489 390.093C136.638 390.093 137.212 388.628 137.212 385.698C137.212 382.769 136.649 381.304 135.524 381.304ZM145.755 392.22C142.755 392.22 141.255 390.113 141.255 385.9C141.255 383.715 141.659 382.051 142.468 380.908C143.282 379.76 144.46 379.186 146.001 379.186C148.931 379.186 150.396 381.327 150.396 385.61C150.396 387.743 149.994 389.378 149.191 390.515C148.395 391.651 147.249 392.22 145.755 392.22ZM145.878 381.304C144.677 381.304 144.076 382.812 144.076 385.83C144.076 388.672 144.665 390.093 145.843 390.093C146.991 390.093 147.565 388.628 147.565 385.698C147.565 382.769 147.003 381.304 145.878 381.304ZM159.958 390.954H159.923V396.14H157.146V383H159.923V384.354H159.958C160.644 383.305 161.607 382.78 162.85 382.78C164.016 382.78 164.915 383.182 165.548 383.984C166.187 384.781 166.506 385.868 166.506 387.245C166.506 388.745 166.134 389.949 165.39 390.857C164.651 391.766 163.667 392.22 162.437 392.22C161.353 392.22 160.526 391.798 159.958 390.954ZM159.879 387.263V387.983C159.879 388.604 160.043 389.111 160.371 389.504C160.699 389.896 161.13 390.093 161.663 390.093C162.296 390.093 162.785 389.85 163.131 389.363C163.482 388.871 163.658 388.177 163.658 387.28C163.658 385.698 163.043 384.907 161.812 384.907C161.244 384.907 160.778 385.124 160.415 385.558C160.058 385.985 159.879 386.554 159.879 387.263ZM176.877 383L173.221 392.721C172.342 395.059 171.018 396.228 169.248 396.228C168.574 396.228 168.021 396.151 167.587 395.999V393.784C167.956 394.001 168.357 394.109 168.791 394.109C169.506 394.109 170.004 393.772 170.285 393.099L170.76 391.982L167.104 383H170.18L171.858 388.476C171.964 388.815 172.046 389.217 172.104 389.68H172.14C172.192 389.34 172.289 388.944 172.43 388.493L174.126 383H176.877ZM185.965 378.465V380.662C185.684 380.879 185.309 381.022 184.84 381.093C183.521 381.298 182.733 381.43 182.476 381.488C181.942 381.611 181.553 381.778 181.307 381.989C181.066 382.2 180.867 382.508 180.709 382.912C180.557 383.316 180.451 383.809 180.393 384.389H180.428C181.096 383.621 181.989 383.237 183.108 383.237C184.386 383.237 185.379 383.618 186.088 384.38C186.803 385.136 187.16 386.182 187.16 387.518C187.16 388.947 186.724 390.09 185.851 390.945C184.978 391.795 183.794 392.22 182.3 392.22C180.735 392.22 179.546 391.722 178.731 390.726C177.917 389.729 177.51 388.288 177.51 386.401C177.51 385.499 177.577 384.685 177.712 383.958C177.847 383.226 178.049 382.581 178.318 382.024C178.588 381.462 178.919 380.993 179.312 380.618C179.71 380.243 180.114 379.971 180.524 379.801C180.94 379.625 181.348 379.496 181.746 379.414C182.145 379.326 183.144 379.159 184.743 378.913C185.271 378.778 185.678 378.629 185.965 378.465ZM180.349 386.331C180.337 386.472 180.331 386.747 180.331 387.157C180.331 388.054 180.51 388.769 180.867 389.302C181.23 389.829 181.731 390.093 182.37 390.093C182.95 390.093 183.422 389.87 183.785 389.425C184.148 388.979 184.33 388.385 184.33 387.641C184.33 386.885 184.146 386.296 183.776 385.874C183.413 385.446 182.921 385.232 182.3 385.232C181.896 385.232 181.512 385.338 181.148 385.549C180.791 385.76 180.524 386.021 180.349 386.331ZM197.479 392H194.684V384.96H193.154C192.832 387.685 192.349 389.557 191.704 390.576C191.065 391.596 190.169 392.105 189.015 392.105C188.616 392.105 188.256 392.047 187.934 391.93V390.04C188.139 390.134 188.355 390.181 188.584 390.181C189.135 390.181 189.592 389.668 189.955 388.643C190.318 387.617 190.646 385.736 190.939 383H197.479V392ZM207.911 388.291H202.04C202.134 389.598 202.957 390.251 204.51 390.251C205.5 390.251 206.37 390.017 207.12 389.548V391.552C206.288 391.997 205.207 392.22 203.877 392.22C202.424 392.22 201.296 391.818 200.493 391.016C199.69 390.207 199.289 389.082 199.289 387.641C199.289 386.146 199.723 384.963 200.59 384.09C201.457 383.217 202.523 382.78 203.789 382.78C205.102 382.78 206.115 383.17 206.83 383.949C207.551 384.729 207.911 385.786 207.911 387.122V388.291ZM205.336 386.586C205.336 385.297 204.814 384.652 203.771 384.652C203.326 384.652 202.939 384.837 202.611 385.206C202.289 385.575 202.093 386.035 202.022 386.586H205.336ZM218.511 392H215.988V386.111C215.76 386.574 215.514 387.002 215.25 387.395L212.191 392H209.563V383H212.104V388.704C212.291 388.312 212.496 387.945 212.719 387.605L215.777 383H218.511V392ZM217.86 378.702C217.755 379.634 217.354 380.375 216.656 380.926C215.959 381.477 215.095 381.752 214.063 381.752C213.015 381.752 212.142 381.477 211.444 380.926C210.747 380.375 210.372 379.634 210.319 378.702H212.341C212.37 379.153 212.555 379.525 212.895 379.818C213.234 380.105 213.636 380.249 214.099 380.249C214.556 380.249 214.951 380.103 215.285 379.81C215.619 379.517 215.804 379.147 215.839 378.702H217.86Z" fill="white"/>
<g filter="url(#filter2_b_178_343)">
<rect x="21" y="487" width="370" height="99" rx="23" fill="url(#paint4_linear_178_343)" fill-opacity="0.77"/>
<rect x="21.5" y="487.5" width="369" height="98" rx="22.5" stroke="url(#paint5_linear_178_343)"/>
</g>
<path d="M70.4766 543.552C69.5566 543.997 68.3555 544.22 66.873 544.22C64.9395 544.22 63.4189 543.651 62.3115 542.515C61.2041 541.378 60.6504 539.863 60.6504 537.971C60.6504 535.955 61.2715 534.32 62.5137 533.066C63.7617 531.812 65.3789 531.186 67.3652 531.186C68.5957 531.186 69.6328 531.341 70.4766 531.651V534.385C69.6328 533.881 68.6719 533.629 67.5938 533.629C66.4102 533.629 65.4551 534.001 64.7285 534.745C64.002 535.489 63.6387 536.497 63.6387 537.769C63.6387 538.987 63.9814 539.96 64.667 540.687C65.3525 541.407 66.2754 541.768 67.4355 541.768C68.543 541.768 69.5566 541.498 70.4766 540.959V543.552ZM75.2139 542.954H75.1787V548.14H72.4014V535H75.1787V536.354H75.2139C75.8994 535.305 76.8633 534.78 78.1055 534.78C79.2715 534.78 80.1709 535.182 80.8037 535.984C81.4424 536.781 81.7617 537.868 81.7617 539.245C81.7617 540.745 81.3896 541.949 80.6455 542.857C79.9072 543.766 78.9229 544.22 77.6924 544.22C76.6084 544.22 75.7822 543.798 75.2139 542.954ZM75.1348 539.263V539.983C75.1348 540.604 75.2988 541.111 75.627 541.504C75.9551 541.896 76.3857 542.093 76.9189 542.093C77.5518 542.093 78.041 541.85 78.3867 541.363C78.7383 540.871 78.9141 540.177 78.9141 539.28C78.9141 537.698 78.2988 536.907 77.0684 536.907C76.5 536.907 76.0342 537.124 75.6709 537.558C75.3135 537.985 75.1348 538.554 75.1348 539.263ZM91.6494 540.291H85.7783C85.8721 541.598 86.6953 542.251 88.248 542.251C89.2383 542.251 90.1084 542.017 90.8584 541.548V543.552C90.0264 543.997 88.9453 544.22 87.6152 544.22C86.1621 544.22 85.0342 543.818 84.2314 543.016C83.4287 542.207 83.0273 541.082 83.0273 539.641C83.0273 538.146 83.4609 536.963 84.3281 536.09C85.1953 535.217 86.2617 534.78 87.5273 534.78C88.8398 534.78 89.8535 535.17 90.5684 535.949C91.2891 536.729 91.6494 537.786 91.6494 539.122V540.291ZM89.0742 538.586C89.0742 537.297 88.5527 536.652 87.5098 536.652C87.0645 536.652 86.6777 536.837 86.3496 537.206C86.0273 537.575 85.8311 538.035 85.7607 538.586H89.0742ZM102.847 547.278H100.579V544H94.5234V547.278H92.291V542.04H93.0908C94.3623 540.048 95.0332 537.701 95.1035 535H101.423V542.04H102.847V547.278ZM98.6455 542.04V536.942H97.2656C97.1309 538.841 96.6387 540.54 95.7891 542.04H98.6455ZM113.139 544H110.353V540.238H107.241V544H104.464V535H107.241V538.331H110.353V535H113.139V544ZM124.433 544H121.91V538.111C121.682 538.574 121.436 539.002 121.172 539.395L118.113 544H115.485V535H118.025V540.704C118.213 540.312 118.418 539.945 118.641 539.605L121.699 535H124.433V544ZM135.48 535L132.51 539.359L135.463 544H132.264L130.963 541.574C130.857 541.381 130.731 541.108 130.585 540.757H130.55C130.462 541.003 130.342 541.267 130.189 541.548L128.88 544H125.689L128.73 539.518L125.874 535H129.091L130.374 537.522C130.544 537.856 130.664 538.138 130.734 538.366H130.77C130.863 538.091 130.989 537.804 131.147 537.505L132.457 535H135.48ZM150.659 544H148.137V538.111C147.908 538.574 147.662 539.002 147.398 539.395L144.34 544H141.712V535H144.252V540.704C144.439 540.312 144.645 539.945 144.867 539.605L147.926 535H150.659V544ZM166.972 544H163.641L160.802 539.605H160.767V544H157.989V535H160.767V539.228H160.802L163.57 535H166.866L163.553 539.28L166.972 544ZM170.874 542.954H170.839V548.14H168.062V535H170.839V536.354H170.874C171.56 535.305 172.523 534.78 173.766 534.78C174.932 534.78 175.831 535.182 176.464 535.984C177.103 536.781 177.422 537.868 177.422 539.245C177.422 540.745 177.05 541.949 176.306 542.857C175.567 543.766 174.583 544.22 173.353 544.22C172.269 544.22 171.442 543.798 170.874 542.954ZM170.795 539.263V539.983C170.795 540.604 170.959 541.111 171.287 541.504C171.615 541.896 172.046 542.093 172.579 542.093C173.212 542.093 173.701 541.85 174.047 541.363C174.398 540.871 174.574 540.177 174.574 539.28C174.574 537.698 173.959 536.907 172.729 536.907C172.16 536.907 171.694 537.124 171.331 537.558C170.974 537.985 170.795 538.554 170.795 539.263ZM187.793 535L184.137 544.721C183.258 547.059 181.934 548.228 180.164 548.228C179.49 548.228 178.937 548.151 178.503 547.999V545.784C178.872 546.001 179.273 546.109 179.707 546.109C180.422 546.109 180.92 545.772 181.201 545.099L181.676 543.982L178.02 535H181.096L182.774 540.476C182.88 540.815 182.962 541.217 183.021 541.68H183.056C183.108 541.34 183.205 540.944 183.346 540.493L185.042 535H187.793ZM197.584 544H194.798V536.96H191.687V544H188.909V535H197.584V544ZM208.605 544H205.819V540.238H202.708V544H199.931V535H202.708V538.331H205.819V535H208.605V544ZM223.283 544H220.497V535H223.283V544ZM210.952 544V535H213.729V538.146H216.103C217.122 538.146 217.916 538.396 218.484 538.894C219.053 539.386 219.337 540.08 219.337 540.977C219.337 541.896 219.056 542.632 218.493 543.183C217.931 543.728 217.151 544 216.155 544H210.952ZM213.729 539.896V542.233H215.074C216.012 542.233 216.48 541.832 216.48 541.029C216.48 540.273 216.023 539.896 215.109 539.896H213.729ZM234.322 535L231.352 539.359L234.305 544H231.105L229.805 541.574C229.699 541.381 229.573 541.108 229.427 540.757H229.392C229.304 541.003 229.184 541.267 229.031 541.548L227.722 544H224.531L227.572 539.518L224.716 535H227.933L229.216 537.522C229.386 537.856 229.506 538.138 229.576 538.366H229.611C229.705 538.091 229.831 537.804 229.989 537.505L231.299 535H234.322ZM248.525 530.465V532.662C248.244 532.879 247.869 533.022 247.4 533.093C246.082 533.298 245.294 533.43 245.036 533.488C244.503 533.611 244.113 533.778 243.867 533.989C243.627 534.2 243.428 534.508 243.27 534.912C243.117 535.316 243.012 535.809 242.953 536.389H242.988C243.656 535.621 244.55 535.237 245.669 535.237C246.946 535.237 247.939 535.618 248.648 536.38C249.363 537.136 249.721 538.182 249.721 539.518C249.721 540.947 249.284 542.09 248.411 542.945C247.538 543.795 246.354 544.22 244.86 544.22C243.296 544.22 242.106 543.722 241.292 542.726C240.478 541.729 240.07 540.288 240.07 538.401C240.07 537.499 240.138 536.685 240.272 535.958C240.407 535.226 240.609 534.581 240.879 534.024C241.148 533.462 241.479 532.993 241.872 532.618C242.271 532.243 242.675 531.971 243.085 531.801C243.501 531.625 243.908 531.496 244.307 531.414C244.705 531.326 245.704 531.159 247.304 530.913C247.831 530.778 248.238 530.629 248.525 530.465ZM242.909 538.331C242.897 538.472 242.892 538.747 242.892 539.157C242.892 540.054 243.07 540.769 243.428 541.302C243.791 541.829 244.292 542.093 244.931 542.093C245.511 542.093 245.982 541.87 246.346 541.425C246.709 540.979 246.891 540.385 246.891 539.641C246.891 538.885 246.706 538.296 246.337 537.874C245.974 537.446 245.481 537.232 244.86 537.232C244.456 537.232 244.072 537.338 243.709 537.549C243.352 537.76 243.085 538.021 242.909 538.331ZM260.47 544H257.947V538.111C257.719 538.574 257.473 539.002 257.209 539.395L254.15 544H251.522V535H254.062V540.704C254.25 540.312 254.455 539.945 254.678 539.605L257.736 535H260.47V544ZM262.359 543.763V541.75C263.227 542.148 264.091 542.348 264.952 542.348C266.2 542.348 266.824 542.005 266.824 541.319C266.824 540.61 266.145 540.256 264.785 540.256H263.528V538.542H264.803C265.969 538.542 266.552 538.202 266.552 537.522C266.552 536.919 266.03 536.617 264.987 536.617C264.202 536.617 263.417 536.793 262.632 537.145V535.237C263.687 534.933 264.639 534.78 265.488 534.78C268.107 534.78 269.417 535.592 269.417 537.215C269.417 538.34 268.72 539.034 267.325 539.298V539.342C268.063 539.406 268.641 539.629 269.057 540.01C269.473 540.391 269.681 540.874 269.681 541.46C269.681 543.271 268.213 544.176 265.277 544.176C264.158 544.176 263.186 544.038 262.359 543.763ZM280.148 544H277.362V540.238H274.251V544H271.474V535H274.251V538.331H277.362V535H280.148V544ZM290.581 540.291H284.71C284.804 541.598 285.627 542.251 287.18 542.251C288.17 542.251 289.04 542.017 289.79 541.548V543.552C288.958 543.997 287.877 544.22 286.547 544.22C285.094 544.22 283.966 543.818 283.163 543.016C282.36 542.207 281.959 541.082 281.959 539.641C281.959 538.146 282.393 536.963 283.26 536.09C284.127 535.217 285.193 534.78 286.459 534.78C287.771 534.78 288.785 535.17 289.5 535.949C290.221 536.729 290.581 537.786 290.581 539.122V540.291ZM288.006 538.586C288.006 537.297 287.484 536.652 286.441 536.652C285.996 536.652 285.609 536.837 285.281 537.206C284.959 537.575 284.763 538.035 284.692 538.586H288.006ZM299.054 543.675C298.427 544.038 297.521 544.22 296.338 544.22C294.955 544.22 293.836 543.801 292.98 542.963C292.125 542.125 291.697 541.044 291.697 539.72C291.697 538.19 292.154 536.986 293.068 536.107C293.988 535.223 295.216 534.78 296.751 534.78C297.812 534.78 298.579 534.921 299.054 535.202V537.558C298.474 537.124 297.826 536.907 297.111 536.907C296.314 536.907 295.682 537.142 295.213 537.61C294.75 538.073 294.519 538.715 294.519 539.535C294.519 540.332 294.741 540.959 295.187 541.416C295.632 541.867 296.244 542.093 297.023 542.093C297.715 542.093 298.392 541.876 299.054 541.442V543.675ZM305.171 544.22C303.671 544.22 302.49 543.801 301.629 542.963C300.773 542.119 300.346 540.977 300.346 539.535C300.346 538.047 300.791 536.884 301.682 536.046C302.572 535.202 303.776 534.78 305.294 534.78C306.788 534.78 307.96 535.202 308.81 536.046C309.659 536.884 310.084 537.994 310.084 539.377C310.084 540.871 309.645 542.052 308.766 542.919C307.893 543.786 306.694 544.22 305.171 544.22ZM305.241 536.907C304.585 536.907 304.075 537.133 303.712 537.584C303.349 538.035 303.167 538.674 303.167 539.5C303.167 541.229 303.864 542.093 305.259 542.093C306.589 542.093 307.254 541.205 307.254 539.43C307.254 537.748 306.583 536.907 305.241 536.907ZM311.886 544V535H316.913C319.058 535 320.13 535.732 320.13 537.197C320.13 537.719 319.96 538.161 319.62 538.524C319.286 538.882 318.85 539.116 318.311 539.228C318.973 539.31 319.491 539.541 319.866 539.922C320.247 540.297 320.438 540.757 320.438 541.302C320.438 542.116 320.147 542.77 319.567 543.262C318.987 543.754 318.19 544 317.177 544H311.886ZM314.663 536.696V538.586H316.025C316.869 538.586 317.291 538.255 317.291 537.593C317.291 536.995 316.893 536.696 316.096 536.696H314.663ZM314.663 540.221V542.269H316.263C317.147 542.269 317.59 541.911 317.59 541.196C317.59 540.546 317.136 540.221 316.228 540.221H314.663Z" fill="white"/>
<path d="M34.8145 682.472H30.4262V686.86H28.1238V682.472H23.7127V680.158H28.1238V675.747H30.4262V680.158H34.8145V682.472Z" fill="#48D8A5"/>
<path d="M347.814 319.472H343.426V323.86H341.124V319.472H336.713V317.158H341.124V312.747H343.426V317.158H347.814V319.472Z" fill="#48D8A5"/>
<path d="M278.878 126.846H273.199V132.525H270.219V126.846H264.511V123.852H270.219V118.143H273.199V123.852H278.878V126.846Z" fill="#48D8A5"/>
<defs>
<filter id="filter0_b_178_343" x="4" y="146" width="404" height="133" filterUnits="userSpaceOnUse" color-interpolation-filters="sRGB">
<feFlood flood-opacity="0" result="BackgroundImageFix"/>
<feGaussianBlur in="BackgroundImage" stdDeviation="8.5"/>
<feComposite in2="SourceAlpha" operator="in" result="effect1_backgroundBlur_178_343"/>
<feBlend mode="normal" in="SourceGraphic" in2="effect1_backgroundBlur_178_343" result="shape"/>
</filter>
<filter id="filter1_b_178_343" x="4" y="308" width="404" height="133" filterUnits="userSpaceOnUse" color-interpolation-filters="sRGB">
<feFlood flood-opacity="0" result="BackgroundImageFix"/>
<feGaussianBlur in="BackgroundImage" stdDeviation="8.5"/>
<feComposite in2="SourceAlpha" operator="in" result="effect1_backgroundBlur_178_343"/>
<feBlend mode="normal" in="SourceGraphic" in2="effect1_backgroundBlur_178_343" result="shape"/>
</filter>
<filter id="filter2_b_178_343" x="4" y="470" width="404" height="133" filterUnits="userSpaceOnUse" color-interpolation-filters="sRGB">
<feFlood flood-opacity="0" result="BackgroundImageFix"/>
<feGaussianBlur in="BackgroundImage" stdDeviation="8.5"/>
<feComposite in2="SourceAlpha" operator="in" result="effect1_backgroundBlur_178_343"/>
<feBlend mode="normal" in="SourceGraphic" in2="effect1_backgroundBlur_178_343" result="shape"/>
</filter>
<linearGradient id="paint0_linear_178_343" x1="-9.4706" y1="100.129" x2="57.145" y2="404.281" gradientUnits="userSpaceOnUse">
<stop stop-color="#15B67F"/>
<stop offset="1" stop-color="#2DEFA9"/>
</linearGradient>
<linearGradient id="paint1_linear_178_343" x1="21" y1="148.491" x2="58.6971" y2="298.915" gradientUnits="userSpaceOnUse">
<stop stop-color="white" stop-opacity="0.55"/>
<stop offset="1" stop-color="#1BCB8F"/>
</linearGradient>
<linearGradient id="paint2_linear_178_343" x1="-9.4706" y1="262.129" x2="57.145" y2="566.281" gradientUnits="userSpaceOnUse">
<stop stop-color="#15B67F"/>
<stop offset="1" stop-color="#2DEFA9"/>
</linearGradient>
<linearGradient id="paint3_linear_178_343" x1="21" y1="310.491" x2="58.6971" y2="460.915" gradientUnits="userSpaceOnUse">
<stop stop-color="white" stop-opacity="0.55"/>
<stop offset="1" stop-color="#1BCB8F"/>
</linearGradient>
<linearGradient id="paint4_linear_178_343" x1="-9.4706" y1="424.129" x2="57.145" y2="728.281" gradientUnits="userSpaceOnUse">
<stop stop-color="#15B67F"/>
<stop offset="1" stop-color="#2DEFA9"/>
</linearGradient>
<linearGradient id="paint5_linear_178_343" x1="21" y1="472.491" x2="58.6971" y2="622.915" gradientUnits="userSpaceOnUse">
<stop stop-color="white" stop-opacity="0.55"/>
<stop offset="1" stop-color="#1BCB8F"/>
</linearGradient>
</defs>
</svg>
