<svg width="414" height="779" viewBox="0 0 414 779" fill="none" xmlns="http://www.w3.org/2000/svg">
<path d="M62.7207 80H59.5566V74.2969H53.7559V80H50.6016V65.9961H53.7559V71.582H59.5566V65.9961H62.7207V80ZM75.5523 70L71.4898 80.8008C70.5133 83.3984 69.0419 84.6973 67.0758 84.6973C66.3271 84.6973 65.7118 84.6126 65.2301 84.4434V81.9824C65.6402 82.2233 66.0862 82.3438 66.568 82.3438C67.3622 82.3438 67.9156 81.9694 68.2281 81.2207L68.7555 79.9805L64.693 70H68.1109L69.9762 76.084C70.0934 76.4616 70.1845 76.9076 70.2496 77.4219H70.2887C70.3473 77.0443 70.4547 76.6048 70.6109 76.1035L72.4957 70H75.5523ZM92.798 80H89.1555L85.9328 75H85.8937V80H82.8566V75H82.8176L79.6145 80H75.9719L79.7707 74.7559L76.0695 70H79.6926L82.8176 74.7363H82.8566V70H85.8937V74.7363H85.9328L89.0578 70H92.6711L88.9699 74.7559L92.798 80ZM104.184 80H101.089V75.8203H97.6316V80H94.5457V70H97.6316V73.7012H101.089V70H104.184V80ZM111.957 80.2441C110.291 80.2441 108.979 79.7786 108.022 78.8477C107.071 77.9102 106.596 76.6406 106.596 75.0391C106.596 73.3854 107.091 72.0931 108.08 71.1621C109.07 70.2246 110.408 69.7559 112.094 69.7559C113.754 69.7559 115.056 70.2246 116 71.1621C116.944 72.0931 117.416 73.3268 117.416 74.8633C117.416 76.5234 116.928 77.8353 115.952 78.7988C114.982 79.7624 113.65 80.2441 111.957 80.2441ZM112.036 72.1191C111.306 72.1191 110.74 72.3698 110.336 72.8711C109.933 73.3724 109.731 74.082 109.731 75C109.731 76.9206 110.506 77.8809 112.055 77.8809C113.533 77.8809 114.272 76.8945 114.272 74.9219C114.272 73.0534 113.526 72.1191 112.036 72.1191Z" fill="black"/>
<path d="M134.603 64.9609V67.4023C134.291 67.6432 133.874 67.8027 133.353 67.8809C131.888 68.1087 131.013 68.2552 130.726 68.3203C130.134 68.457 129.701 68.6426 129.427 68.877C129.16 69.1113 128.939 69.4531 128.763 69.9023C128.594 70.3516 128.477 70.8984 128.412 71.543H128.451C129.193 70.6901 130.186 70.2637 131.429 70.2637C132.849 70.2637 133.952 70.6868 134.74 71.5332C135.534 72.373 135.931 73.5352 135.931 75.0195C135.931 76.6081 135.446 77.8776 134.476 78.8281C133.506 79.7721 132.191 80.2441 130.531 80.2441C128.793 80.2441 127.471 79.6908 126.566 78.584C125.661 77.4772 125.209 75.8757 125.209 73.7793C125.209 72.7767 125.283 71.8717 125.433 71.0645C125.583 70.2507 125.808 69.5345 126.107 68.916C126.407 68.291 126.774 67.7702 127.211 67.3535C127.653 66.9368 128.102 66.6341 128.558 66.4453C129.02 66.25 129.473 66.1068 129.916 66.0156C130.358 65.918 131.468 65.7324 133.246 65.459C133.832 65.3092 134.284 65.1432 134.603 64.9609ZM128.363 73.7012C128.35 73.8574 128.343 74.1634 128.343 74.6191C128.343 75.6152 128.542 76.4095 128.939 77.002C129.343 77.5879 129.899 77.8809 130.609 77.8809C131.254 77.8809 131.778 77.6335 132.181 77.1387C132.585 76.6439 132.787 75.9831 132.787 75.1562C132.787 74.3164 132.582 73.6621 132.171 73.1934C131.768 72.7181 131.221 72.4805 130.531 72.4805C130.082 72.4805 129.655 72.5977 129.252 72.832C128.854 73.0664 128.558 73.3561 128.363 73.7012ZM143.099 80.2441C141.432 80.2441 140.12 79.7786 139.163 78.8477C138.213 77.9102 137.738 76.6406 137.738 75.0391C137.738 73.3854 138.232 72.0931 139.222 71.1621C140.211 70.2246 141.549 69.7559 143.236 69.7559C144.896 69.7559 146.198 70.2246 147.142 71.1621C148.086 72.0931 148.558 73.3268 148.558 74.8633C148.558 76.5234 148.07 77.8353 147.093 78.7988C146.123 79.7624 144.792 80.2441 143.099 80.2441ZM143.177 72.1191C142.448 72.1191 141.881 72.3698 141.478 72.8711C141.074 73.3724 140.872 74.082 140.872 75C140.872 76.9206 141.647 77.8809 143.196 77.8809C144.674 77.8809 145.413 76.8945 145.413 74.9219C145.413 73.0534 144.668 72.1191 143.177 72.1191ZM160.423 80H157.317V72.1777H155.618C155.26 75.2051 154.723 77.2852 154.007 78.418C153.297 79.5508 152.301 80.1172 151.018 80.1172C150.576 80.1172 150.175 80.0521 149.817 79.9219V77.8223C150.045 77.9264 150.286 77.9785 150.54 77.9785C151.152 77.9785 151.66 77.4089 152.063 76.2695C152.467 75.1302 152.832 73.0404 153.157 70H160.423V80ZM163.43 80V70H166.516V73.4961H169.153C170.286 73.4961 171.168 73.7728 171.799 74.3262C172.431 74.873 172.746 75.6445 172.746 76.6406C172.746 77.6628 172.434 78.4798 171.809 79.0918C171.184 79.6973 170.318 80 169.211 80H163.43ZM166.516 75.4395V78.0371H168.01C169.052 78.0371 169.573 77.5911 169.573 76.6992C169.573 75.8594 169.065 75.4395 168.049 75.4395H166.516ZM189.66 80H175.021V70H178.107V77.8223H180.783V70H183.879V77.8223H186.564V70H189.66V80ZM201.652 75.8789H195.129C195.233 77.3307 196.147 78.0566 197.873 78.0566C198.973 78.0566 199.94 77.7962 200.773 77.2754V79.502C199.849 79.9967 198.647 80.2441 197.17 80.2441C195.555 80.2441 194.302 79.7982 193.41 78.9062C192.518 78.0078 192.072 76.7578 192.072 75.1562C192.072 73.4961 192.554 72.181 193.517 71.2109C194.481 70.2409 195.666 69.7559 197.072 69.7559C198.53 69.7559 199.657 70.1888 200.451 71.0547C201.252 71.9206 201.652 73.0957 201.652 74.5801V75.8789ZM198.791 73.9844C198.791 72.5521 198.211 71.8359 197.052 71.8359C196.558 71.8359 196.128 72.041 195.763 72.4512C195.405 72.8613 195.187 73.3724 195.109 73.9844H198.791ZM219.757 80H216.954V73.457C216.7 73.9714 216.427 74.4466 216.134 74.8828L212.735 80H209.815V70H212.637V76.3379C212.846 75.9017 213.074 75.4948 213.321 75.1172L216.72 70H219.757V80ZM233.379 83.6426H230.86V80H224.131V83.6426H221.651V77.8223H222.539C223.952 75.6087 224.698 73.0013 224.776 70H231.797V77.8223H233.379V83.6426ZM228.711 77.8223V72.1582H227.178C227.028 74.2676 226.482 76.1556 225.538 77.8223H228.711ZM244.561 75.8789H238.037C238.141 77.3307 239.056 78.0566 240.781 78.0566C241.882 78.0566 242.848 77.7962 243.682 77.2754V79.502C242.757 79.9967 241.556 80.2441 240.078 80.2441C238.464 80.2441 237.21 79.7982 236.318 78.9062C235.426 78.0078 234.98 76.7578 234.98 75.1562C234.98 73.4961 235.462 72.181 236.426 71.2109C237.389 70.2409 238.574 69.7559 239.98 69.7559C241.439 69.7559 242.565 70.1888 243.359 71.0547C244.16 71.9206 244.561 73.0957 244.561 74.5801V75.8789ZM241.699 73.9844C241.699 72.5521 241.12 71.8359 239.961 71.8359C239.466 71.8359 239.036 72.041 238.672 72.4512C238.314 72.8613 238.096 73.3724 238.018 73.9844H241.699ZM256.738 80H253.935V73.457C253.681 73.9714 253.408 74.4466 253.115 74.8828L249.716 80H246.796V70H249.619V76.3379C249.827 75.9017 250.055 75.4948 250.302 75.1172L253.701 70H256.738V80ZM256.015 65.2246C255.898 66.2598 255.452 67.0833 254.677 67.6953C253.903 68.3073 252.942 68.6133 251.796 68.6133C250.631 68.6133 249.661 68.3073 248.886 67.6953C248.112 67.0833 247.695 66.2598 247.636 65.2246H249.882C249.915 65.7259 250.12 66.1393 250.498 66.4648C250.875 66.7839 251.321 66.9434 251.836 66.9434C252.343 66.9434 252.783 66.7806 253.154 66.4551C253.525 66.1296 253.73 65.7194 253.769 65.2246H256.015ZM261.025 75.9473C260.96 75.778 260.907 75.5892 260.868 75.3809C260.836 75.166 260.82 74.9642 260.82 74.7754C260.82 74.4759 260.849 74.2025 260.907 73.9551C260.966 73.7077 261.054 73.4766 261.171 73.2617C261.288 73.0404 261.435 72.832 261.611 72.6367C261.786 72.4349 261.991 72.2363 262.226 72.041C262.473 71.8327 262.688 71.6406 262.87 71.4648C263.059 71.2826 263.219 71.1035 263.349 70.9277C263.479 70.7454 263.577 70.5599 263.642 70.3711C263.707 70.1758 263.739 69.9609 263.739 69.7266C263.739 69.5247 263.704 69.3392 263.632 69.1699C263.56 68.9941 263.456 68.8444 263.32 68.7207C263.189 68.597 263.027 68.4993 262.831 68.4277C262.642 68.3561 262.431 68.3203 262.196 68.3203C261.689 68.3203 261.161 68.4277 260.614 68.6426C260.068 68.8509 259.55 69.1699 259.062 69.5996V66.6602C259.563 66.3607 260.11 66.1361 260.702 65.9863C261.295 65.8366 261.907 65.7617 262.538 65.7617C263.144 65.7617 263.707 65.8301 264.228 65.9668C264.749 66.097 265.201 66.3053 265.585 66.5918C265.976 66.8783 266.279 67.2461 266.493 67.6953C266.715 68.138 266.825 68.6719 266.825 69.2969C266.825 69.694 266.78 70.0553 266.689 70.3809C266.598 70.6999 266.464 71.0026 266.288 71.2891C266.113 71.5755 265.894 71.8522 265.634 72.1191C265.374 72.3796 265.074 72.6497 264.736 72.9297C264.508 73.1185 264.306 73.2943 264.13 73.457C263.961 73.6198 263.818 73.7826 263.7 73.9453C263.59 74.1016 263.505 74.2708 263.446 74.4531C263.388 74.6289 263.359 74.8307 263.359 75.0586C263.359 75.2148 263.378 75.3743 263.417 75.5371C263.463 75.6999 263.521 75.8366 263.593 75.9473H261.025ZM262.45 80.2246C261.93 80.2246 261.497 80.0684 261.152 79.7559C260.807 79.4303 260.634 79.0462 260.634 78.6035C260.634 78.1478 260.807 77.7669 261.152 77.4609C261.497 77.1549 261.93 77.002 262.45 77.002C262.965 77.002 263.391 77.1549 263.73 77.4609C264.068 77.7604 264.238 78.1413 264.238 78.6035C264.238 79.0723 264.071 79.4596 263.739 79.7656C263.401 80.0716 262.971 80.2246 262.45 80.2246Z" fill="#08A652"/>
<path d="M56.4062 135H50.4688V123.797H56.1562V124.984H51.7812V128.711H55.8281V129.891H51.7812V133.812H56.4062V135ZM70.1169 137.914H68.9997V135H58.7106V127H59.9919V133.914H63.1716V127H64.4528V133.914H67.6403V127H68.9216V133.914H70.1169V137.914ZM78.6478 131.32H72.9994C73.0202 132.211 73.2598 132.898 73.7181 133.383C74.1765 133.867 74.8067 134.109 75.6087 134.109C76.5098 134.109 77.3379 133.812 78.0931 133.219V134.422C77.39 134.932 76.4603 135.188 75.3041 135.188C74.1739 135.188 73.2858 134.826 72.64 134.102C71.9942 133.372 71.6712 132.349 71.6712 131.031C71.6712 129.786 72.0228 128.773 72.7259 127.992C73.4343 127.206 74.3119 126.812 75.3587 126.812C76.4056 126.812 77.2155 127.151 77.7884 127.828C78.3614 128.505 78.6478 129.445 78.6478 130.648V131.32ZM77.3353 130.234C77.3301 129.495 77.1504 128.919 76.7962 128.508C76.4473 128.096 75.9603 127.891 75.3353 127.891C74.7311 127.891 74.2181 128.107 73.7962 128.539C73.3744 128.971 73.114 129.536 73.015 130.234H77.3353ZM94.2644 135H92.9987V128.406C92.8842 128.74 92.7071 129.229 92.4675 129.875L90.4675 135H89.3191L87.2566 129.875C87.1472 129.599 86.9701 129.109 86.7253 128.406V135H85.6237V127H87.2566L89.3659 132.219C89.517 132.599 89.7097 133.125 89.9441 133.797L90.5144 132.25L92.5612 127H94.2644V135ZM105.928 135H104.662V127H105.928V135ZM97.1781 135V127H98.4594V130.07H100.616C101.433 130.07 102.082 130.284 102.561 130.711C103.045 131.138 103.287 131.734 103.287 132.5C103.287 133.271 103.045 133.88 102.561 134.328C102.077 134.776 101.465 135 100.725 135H97.1781ZM98.4594 131.172V133.906H100.381C101.444 133.906 101.975 133.438 101.975 132.5C101.975 131.615 101.439 131.172 100.366 131.172H98.4594ZM122.209 135H120.943V128.406C120.829 128.74 120.651 129.229 120.412 129.875L118.412 135H117.263L115.201 129.875C115.092 129.599 114.914 129.109 114.67 128.406V135H113.568V127H115.201L117.31 132.219C117.461 132.599 117.654 133.125 117.888 133.797L118.459 132.25L120.506 127H122.209V135ZM128.466 135.188C127.284 135.188 126.339 134.815 125.63 134.07C124.927 133.32 124.576 132.328 124.576 131.094C124.576 129.75 124.943 128.701 125.677 127.945C126.412 127.19 127.404 126.812 128.654 126.812C129.846 126.812 130.776 127.18 131.443 127.914C132.115 128.648 132.451 129.667 132.451 130.969C132.451 132.245 132.089 133.268 131.365 134.039C130.646 134.805 129.68 135.188 128.466 135.188ZM128.56 127.891C127.737 127.891 127.086 128.172 126.607 128.734C126.128 129.292 125.888 130.062 125.888 131.047C125.888 131.995 126.13 132.742 126.615 133.289C127.099 133.836 127.747 134.109 128.56 134.109C129.388 134.109 130.024 133.841 130.466 133.305C130.914 132.768 131.138 132.005 131.138 131.016C131.138 130.016 130.914 129.245 130.466 128.703C130.024 128.161 129.388 127.891 128.56 127.891ZM145.442 135H143.708L140.13 131.047H140.099V135H138.88V131.047H138.849L135.263 135H133.552L137.521 130.875L133.794 127H135.427L138.849 130.742H138.88V127H140.099V130.742H140.13L143.552 127H145.2L141.458 130.875L145.442 135ZM153.505 131.32H147.856C147.877 132.211 148.117 132.898 148.575 133.383C149.033 133.867 149.664 134.109 150.466 134.109C151.367 134.109 152.195 133.812 152.95 133.219V134.422C152.247 134.932 151.317 135.188 150.161 135.188C149.031 135.188 148.143 134.826 147.497 134.102C146.851 133.372 146.528 132.349 146.528 131.031C146.528 129.786 146.88 128.773 147.583 127.992C148.291 127.206 149.169 126.812 150.216 126.812C151.262 126.812 152.072 127.151 152.645 127.828C153.218 128.505 153.505 129.445 153.505 130.648V131.32ZM152.192 130.234C152.187 129.495 152.007 128.919 151.653 128.508C151.304 128.096 150.817 127.891 150.192 127.891C149.588 127.891 149.075 128.107 148.653 128.539C148.231 128.971 147.971 129.536 147.872 130.234H152.192ZM164.411 135H163.145V128.406C163.03 128.74 162.853 129.229 162.614 129.875L160.614 135H159.465L157.403 129.875C157.293 129.599 157.116 129.109 156.872 128.406V135H155.77V127H157.403L159.512 132.219C159.663 132.599 159.856 133.125 160.09 133.797L160.661 132.25L162.707 127H164.411V135ZM177.488 134.633C176.874 135.003 176.144 135.188 175.301 135.188C174.16 135.188 173.238 134.818 172.535 134.078C171.837 133.333 171.488 132.37 171.488 131.188C171.488 129.87 171.866 128.812 172.621 128.016C173.376 127.214 174.384 126.812 175.644 126.812C176.348 126.812 176.967 126.943 177.504 127.203V128.516C176.91 128.099 176.275 127.891 175.598 127.891C174.78 127.891 174.108 128.185 173.582 128.773C173.061 129.357 172.801 130.125 172.801 131.078C172.801 132.016 173.045 132.755 173.535 133.297C174.03 133.839 174.691 134.109 175.519 134.109C176.217 134.109 176.874 133.878 177.488 133.414V134.633ZM183.089 135.188C181.907 135.188 180.962 134.815 180.253 134.07C179.55 133.32 179.199 132.328 179.199 131.094C179.199 129.75 179.566 128.701 180.3 127.945C181.035 127.19 182.027 126.812 183.277 126.812C184.47 126.812 185.399 127.18 186.066 127.914C186.738 128.648 187.074 129.667 187.074 130.969C187.074 132.245 186.712 133.268 185.988 134.039C185.269 134.805 184.303 135.188 183.089 135.188ZM183.183 127.891C182.36 127.891 181.709 128.172 181.23 128.734C180.751 129.292 180.511 130.062 180.511 131.047C180.511 131.995 180.753 132.742 181.238 133.289C181.722 133.836 182.371 134.109 183.183 134.109C184.011 134.109 184.647 133.841 185.089 133.305C185.537 132.768 185.761 132.005 185.761 131.016C185.761 130.016 185.537 129.245 185.089 128.703C184.647 128.161 184.011 127.891 183.183 127.891ZM188.769 134.773V133.516C189.467 133.906 190.282 134.102 191.214 134.102C192.626 134.102 193.331 133.654 193.331 132.758C193.331 131.872 192.558 131.43 191.011 131.43H190.222V130.344H190.972C192.331 130.344 193.011 129.922 193.011 129.078C193.011 128.719 192.855 128.432 192.542 128.219C192.23 128.005 191.803 127.898 191.261 127.898C190.485 127.898 189.706 128.094 188.925 128.484V127.289C189.81 126.966 190.623 126.805 191.363 126.805C193.31 126.805 194.284 127.521 194.284 128.953C194.284 129.417 194.139 129.818 193.847 130.156C193.56 130.49 193.157 130.711 192.636 130.82V130.859C193.23 130.906 193.706 131.107 194.066 131.461C194.425 131.815 194.605 132.263 194.605 132.805C194.605 133.534 194.31 134.115 193.722 134.547C193.133 134.979 192.323 135.195 191.292 135.195C190.193 135.195 189.352 135.055 188.769 134.773ZM203.878 137.914H202.792V135H196.839V137.914H195.745V133.914H196.456C197.821 131.945 198.513 129.641 198.534 127H202.69V133.914H203.878V137.914ZM201.409 133.914V128.086H199.636C199.495 130.242 198.888 132.185 197.815 133.914H201.409ZM211.698 135H210.417V133.75H210.385C209.828 134.708 209.008 135.188 207.924 135.188C207.128 135.188 206.503 134.977 206.049 134.555C205.601 134.133 205.378 133.573 205.378 132.875C205.378 131.38 206.258 130.51 208.018 130.266L210.417 129.93C210.417 128.57 209.867 127.891 208.768 127.891C207.805 127.891 206.935 128.219 206.159 128.875V127.562C206.945 127.062 207.851 126.812 208.878 126.812C210.758 126.812 211.698 127.807 211.698 129.797V135ZM210.417 130.953L208.487 131.219C207.893 131.302 207.445 131.451 207.143 131.664C206.841 131.872 206.69 132.245 206.69 132.781C206.69 133.172 206.828 133.492 207.104 133.742C207.385 133.987 207.758 134.109 208.221 134.109C208.857 134.109 209.38 133.888 209.792 133.445C210.208 132.997 210.417 132.432 210.417 131.75V130.953ZM214.432 135V127H217.916C218.703 127 219.322 127.174 219.776 127.523C220.234 127.872 220.463 128.349 220.463 128.953C220.463 129.99 219.953 130.62 218.932 130.844C220.156 131 220.768 131.617 220.768 132.695C220.768 133.346 220.515 133.893 220.01 134.336C219.51 134.779 218.888 135 218.143 135H214.432ZM215.713 128.094V130.344H217.635C218.666 130.344 219.182 129.943 219.182 129.141C219.182 128.443 218.718 128.094 217.791 128.094H215.713ZM215.713 131.438V133.906H217.932C218.968 133.906 219.487 133.487 219.487 132.648C219.487 131.841 218.906 131.438 217.744 131.438H215.713ZM228.963 135H227.682V133.75H227.65C227.093 134.708 226.273 135.188 225.189 135.188C224.393 135.188 223.768 134.977 223.314 134.555C222.866 134.133 222.643 133.573 222.643 132.875C222.643 131.38 223.523 130.51 225.283 130.266L227.682 129.93C227.682 128.57 227.132 127.891 226.033 127.891C225.07 127.891 224.2 128.219 223.424 128.875V127.562C224.21 127.062 225.116 126.812 226.143 126.812C228.023 126.812 228.963 127.807 228.963 129.797V135ZM227.682 130.953L225.752 131.219C225.158 131.302 224.71 131.451 224.408 131.664C224.106 131.872 223.955 132.245 223.955 132.781C223.955 133.172 224.093 133.492 224.369 133.742C224.65 133.987 225.023 134.109 225.486 134.109C226.122 134.109 226.645 133.888 227.057 133.445C227.473 132.997 227.682 132.432 227.682 131.75V130.953ZM236.72 128.094H234.322V135H233.041V128.094H230.634V127H236.72V128.094ZM238.579 135V127H239.861V130.07H242.017C242.835 130.07 243.483 130.284 243.962 130.711C244.447 131.138 244.689 131.734 244.689 132.5C244.689 133.271 244.447 133.88 243.962 134.328C243.478 134.776 242.866 135 242.126 135H238.579ZM239.861 131.172V133.906H241.783C242.845 133.906 243.376 133.438 243.376 132.5C243.376 131.615 242.84 131.172 241.767 131.172H239.861ZM56.9375 155H55.1406L51.6094 151.156H51.5781V155H50.2969V147H51.5781V150.664H51.6094L54.9688 147H56.6484L52.9375 150.859L56.9375 155ZM61.9137 155.188C60.7315 155.188 59.7861 154.815 59.0778 154.07C58.3747 153.32 58.0231 152.328 58.0231 151.094C58.0231 149.75 58.3903 148.701 59.1247 147.945C59.8591 147.19 60.8512 146.812 62.1012 146.812C63.294 146.812 64.2236 147.18 64.8903 147.914C65.5622 148.648 65.8981 149.667 65.8981 150.969C65.8981 152.245 65.5361 153.268 64.8122 154.039C64.0934 154.805 63.1273 155.188 61.9137 155.188ZM62.0075 147.891C61.1846 147.891 60.5335 148.172 60.0544 148.734C59.5752 149.292 59.3356 150.062 59.3356 151.047C59.3356 151.995 59.5778 152.742 60.0622 153.289C60.5466 153.836 61.195 154.109 62.0075 154.109C62.8356 154.109 63.471 153.841 63.9137 153.305C64.3617 152.768 64.5856 152.005 64.5856 151.016C64.5856 150.016 64.3617 149.245 63.9137 148.703C63.471 148.161 62.8356 147.891 62.0075 147.891ZM74.9056 155H73.6244V151.367H69.5462V155H68.265V147H69.5462V150.281H73.6244V147H74.9056V155ZM77.8194 155V147H81.3037C82.0902 147 82.71 147.174 83.1631 147.523C83.6215 147.872 83.8506 148.349 83.8506 148.953C83.8506 149.99 83.3402 150.62 82.3194 150.844C83.5433 151 84.1553 151.617 84.1553 152.695C84.1553 153.346 83.9027 153.893 83.3975 154.336C82.8975 154.779 82.2751 155 81.5303 155H77.8194ZM79.1006 148.094V150.344H81.0225C82.0537 150.344 82.5694 149.943 82.5694 149.141C82.5694 148.443 82.1058 148.094 81.1787 148.094H79.1006ZM79.1006 151.438V153.906H81.3194C82.3558 153.906 82.8741 153.487 82.8741 152.648C82.8741 151.841 82.2933 151.438 81.1319 151.438H79.1006ZM93.0534 151.32H87.405C87.4258 152.211 87.6654 152.898 88.1237 153.383C88.5821 153.867 89.2123 154.109 90.0144 154.109C90.9154 154.109 91.7435 153.812 92.4987 153.219V154.422C91.7956 154.932 90.8659 155.188 89.7097 155.188C88.5795 155.188 87.6915 154.826 87.0456 154.102C86.3998 153.372 86.0769 152.349 86.0769 151.031C86.0769 149.786 86.4284 148.773 87.1316 147.992C87.8399 147.206 88.7175 146.812 89.7644 146.812C90.8112 146.812 91.6211 147.151 92.1941 147.828C92.767 148.505 93.0534 149.445 93.0534 150.648V151.32ZM91.7409 150.234C91.7357 149.495 91.556 148.919 91.2019 148.508C90.8529 148.096 90.3659 147.891 89.7409 147.891C89.1368 147.891 88.6237 148.107 88.2019 148.539C87.78 148.971 87.5196 149.536 87.4206 150.234H91.7409ZM96.6312 153.844H96.6V158.68H95.3187V147H96.6V148.406H96.6312C97.2615 147.344 98.1833 146.812 99.3969 146.812C100.428 146.812 101.233 147.172 101.811 147.891C102.389 148.604 102.678 149.562 102.678 150.766C102.678 152.104 102.353 153.177 101.702 153.984C101.051 154.786 100.16 155.188 99.0297 155.188C97.9932 155.188 97.1937 154.74 96.6312 153.844ZM96.6 150.617V151.734C96.6 152.396 96.8135 152.958 97.2406 153.422C97.6729 153.88 98.2198 154.109 98.8812 154.109C99.6573 154.109 100.264 153.812 100.702 153.219C101.144 152.625 101.366 151.799 101.366 150.742C101.366 149.852 101.16 149.154 100.748 148.648C100.337 148.143 99.7797 147.891 99.0766 147.891C98.3318 147.891 97.7328 148.151 97.2797 148.672C96.8266 149.188 96.6 149.836 96.6 150.617ZM110.498 154.633C109.884 155.003 109.154 155.188 108.311 155.188C107.17 155.188 106.248 154.818 105.545 154.078C104.847 153.333 104.498 152.37 104.498 151.188C104.498 149.87 104.876 148.812 105.631 148.016C106.386 147.214 107.394 146.812 108.654 146.812C109.357 146.812 109.977 146.943 110.514 147.203V148.516C109.92 148.099 109.285 147.891 108.607 147.891C107.79 147.891 107.118 148.185 106.592 148.773C106.071 149.357 105.811 150.125 105.811 151.078C105.811 152.016 106.055 152.755 106.545 153.297C107.04 153.839 107.701 154.109 108.529 154.109C109.227 154.109 109.884 153.878 110.498 153.414V154.633ZM119.459 155H118.303V148.617C118.188 148.841 118.013 149.156 117.779 149.562L114.084 155H112.756V147H113.928V153.305C113.99 153.154 114.125 152.896 114.334 152.531L118.131 147H119.459V155ZM125.716 155.188C124.534 155.188 123.589 154.815 122.88 154.07C122.177 153.32 121.826 152.328 121.826 151.094C121.826 149.75 122.193 148.701 122.927 147.945C123.662 147.19 124.654 146.812 125.904 146.812C127.096 146.812 128.026 147.18 128.693 147.914C129.365 148.648 129.701 149.667 129.701 150.969C129.701 152.245 129.339 153.268 128.615 154.039C127.896 154.805 126.93 155.188 125.716 155.188ZM125.81 147.891C124.987 147.891 124.336 148.172 123.857 148.734C123.378 149.292 123.138 150.062 123.138 151.047C123.138 151.995 123.38 152.742 123.865 153.289C124.349 153.836 124.997 154.109 125.81 154.109C126.638 154.109 127.274 153.841 127.716 153.305C128.164 152.768 128.388 152.005 128.388 151.016C128.388 150.016 128.164 149.245 127.716 148.703C127.274 148.161 126.638 147.891 125.81 147.891ZM138.708 155H137.427V151.367H133.349V155H132.067V147H133.349V150.281H137.427V147H138.708V155ZM148.262 155H146.981V151.367H142.903V155H141.622V147H142.903V150.281H146.981V147H148.262V155ZM159.926 155H158.661V147H159.926V155ZM151.176 155V147H152.457V150.07H154.614C155.431 150.07 156.08 150.284 156.559 150.711C157.043 151.138 157.286 151.734 157.286 152.5C157.286 153.271 157.043 153.88 156.559 154.328C156.075 154.776 155.463 155 154.723 155H151.176ZM152.457 151.172V153.906H154.379C155.442 153.906 155.973 153.438 155.973 152.5C155.973 151.615 155.437 151.172 154.364 151.172H152.457ZM169.285 151.32H163.637C163.658 152.211 163.897 152.898 164.356 153.383C164.814 153.867 165.444 154.109 166.246 154.109C167.147 154.109 167.975 153.812 168.731 153.219V154.422C168.027 154.932 167.098 155.188 165.942 155.188C164.811 155.188 163.923 154.826 163.277 154.102C162.632 153.372 162.309 152.349 162.309 151.031C162.309 149.786 162.66 148.773 163.363 147.992C164.072 147.206 164.949 146.812 165.996 146.812C167.043 146.812 167.853 147.151 168.426 147.828C168.999 148.505 169.285 149.445 169.285 150.648V151.32ZM167.973 150.234C167.968 149.495 167.788 148.919 167.434 148.508C167.085 148.096 166.598 147.891 165.973 147.891C165.369 147.891 164.856 148.107 164.434 148.539C164.012 148.971 163.751 149.536 163.652 150.234H167.973ZM182.902 155H181.105L177.574 151.156H177.543V155H176.261V147H177.543V150.664H177.574L180.933 147H182.613L178.902 150.859L182.902 155ZM185.847 153.844H185.816V158.68H184.534V147H185.816V148.406H185.847C186.477 147.344 187.399 146.812 188.613 146.812C189.644 146.812 190.448 147.172 191.027 147.891C191.605 148.604 191.894 149.562 191.894 150.766C191.894 152.104 191.568 153.177 190.917 153.984C190.266 154.786 189.376 155.188 188.245 155.188C187.209 155.188 186.409 154.74 185.847 153.844ZM185.816 150.617V151.734C185.816 152.396 186.029 152.958 186.456 153.422C186.889 153.88 187.435 154.109 188.097 154.109C188.873 154.109 189.48 153.812 189.917 153.219C190.36 152.625 190.581 151.799 190.581 150.742C190.581 149.852 190.376 149.154 189.964 148.648C189.553 148.143 188.995 147.891 188.292 147.891C187.547 147.891 186.948 148.151 186.495 148.672C186.042 149.188 185.816 149.836 185.816 150.617ZM200.69 151.32H195.042C195.063 152.211 195.302 152.898 195.761 153.383C196.219 153.867 196.849 154.109 197.651 154.109C198.552 154.109 199.38 153.812 200.136 153.219V154.422C199.432 154.932 198.503 155.188 197.347 155.188C196.216 155.188 195.328 154.826 194.682 154.102C194.037 153.372 193.714 152.349 193.714 151.031C193.714 149.786 194.065 148.773 194.768 147.992C195.477 147.206 196.354 146.812 197.401 146.812C198.448 146.812 199.258 147.151 199.831 147.828C200.404 148.505 200.69 149.445 200.69 150.648V151.32ZM199.378 150.234C199.373 149.495 199.193 148.919 198.839 148.508C198.49 148.096 198.003 147.891 197.378 147.891C196.774 147.891 196.261 148.107 195.839 148.539C195.417 148.971 195.156 149.536 195.057 150.234H199.378ZM208.682 155H207.401V153.75H207.37C206.812 154.708 205.992 155.188 204.909 155.188C204.112 155.188 203.487 154.977 203.034 154.555C202.586 154.133 202.362 153.573 202.362 152.875C202.362 151.38 203.242 150.51 205.003 150.266L207.401 149.93C207.401 148.57 206.851 147.891 205.753 147.891C204.789 147.891 203.919 148.219 203.143 148.875V147.562C203.93 147.062 204.836 146.812 205.862 146.812C207.742 146.812 208.682 147.807 208.682 149.797V155ZM207.401 150.953L205.471 151.219C204.878 151.302 204.43 151.451 204.128 151.664C203.825 151.872 203.674 152.245 203.674 152.781C203.674 153.172 203.812 153.492 204.088 153.742C204.37 153.987 204.742 154.109 205.206 154.109C205.841 154.109 206.364 153.888 206.776 153.445C207.193 152.997 207.401 152.432 207.401 151.75V150.953ZM216.44 148.094H214.041V155H212.76V148.094H210.354V147H216.44V148.094ZM225.002 155H223.846V148.617C223.731 148.841 223.557 149.156 223.322 149.562L219.627 155H218.299V147H219.471V153.305C219.533 153.154 219.669 152.896 219.877 152.531L223.674 147H225.002V155ZM227.916 155V147H231.4C232.186 147 232.806 147.174 233.259 147.523C233.718 147.872 233.947 148.349 233.947 148.953C233.947 149.99 233.436 150.62 232.416 150.844C233.64 151 234.252 151.617 234.252 152.695C234.252 153.346 233.999 153.893 233.494 154.336C232.994 154.779 232.371 155 231.627 155H227.916ZM229.197 148.094V150.344H231.119C232.15 150.344 232.666 149.943 232.666 149.141C232.666 148.443 232.202 148.094 231.275 148.094H229.197ZM229.197 151.438V153.906H231.416C232.452 153.906 232.97 153.487 232.97 152.648C232.97 151.841 232.39 151.438 231.228 151.438H229.197ZM245.47 155H244.204V147H245.47V155ZM236.72 155V147H238.001V150.07H240.158C240.975 150.07 241.624 150.284 242.103 150.711C242.587 151.138 242.829 151.734 242.829 152.5C242.829 153.271 242.587 153.88 242.103 154.328C241.618 154.776 241.006 155 240.267 155H236.72ZM238.001 151.172V153.906H239.923C240.986 153.906 241.517 153.438 241.517 152.5C241.517 151.615 240.98 151.172 239.908 151.172H238.001ZM260.087 157.914H259.001V155H253.048V157.914H251.954V153.914H252.665C254.029 151.945 254.722 149.641 254.743 147H258.899V153.914H260.087V157.914ZM257.618 153.914V148.086H255.844C255.704 150.242 255.097 152.185 254.024 153.914H257.618ZM268.016 155H266.742V148.086H264.883C264.67 150.674 264.302 152.492 263.782 153.539C263.266 154.586 262.571 155.109 261.696 155.109C261.43 155.109 261.201 155.073 261.008 155V153.898C261.19 153.992 261.388 154.039 261.602 154.039C262.748 154.039 263.485 151.693 263.813 147H268.016V155ZM276.406 155H275.125V151.688H274.055C273.539 151.688 273.07 152.104 272.648 152.938L271.609 155H270.125L271.469 152.531C271.781 151.958 272.159 151.581 272.602 151.398C271.977 151.315 271.5 151.086 271.172 150.711C270.844 150.336 270.68 149.867 270.68 149.305C270.68 148.596 270.935 148.036 271.445 147.625C271.961 147.208 272.682 147 273.609 147H276.406V155ZM275.125 150.617V148.094H273.609C272.531 148.094 271.992 148.503 271.992 149.32C271.992 150.185 272.516 150.617 273.562 150.617H275.125ZM51.6094 173.844H51.5781V178.68H50.2969V167H51.5781V168.406H51.6094C52.2396 167.344 53.1615 166.812 54.375 166.812C55.4062 166.812 56.2109 167.172 56.7891 167.891C57.3672 168.604 57.6562 169.562 57.6562 170.766C57.6562 172.104 57.3307 173.177 56.6797 173.984C56.0286 174.786 55.138 175.188 54.0078 175.188C52.9714 175.188 52.1719 174.74 51.6094 173.844ZM51.5781 170.617V171.734C51.5781 172.396 51.7917 172.958 52.2188 173.422C52.651 173.88 53.1979 174.109 53.8594 174.109C54.6354 174.109 55.2422 173.812 55.6797 173.219C56.1224 172.625 56.3438 171.799 56.3438 170.742C56.3438 169.852 56.138 169.154 55.7266 168.648C55.3151 168.143 54.7578 167.891 54.0547 167.891C53.3099 167.891 52.7109 168.151 52.2578 168.672C51.8047 169.188 51.5781 169.836 51.5781 170.617ZM65.7497 175H64.4684V173.75H64.4372C63.8799 174.708 63.0596 175.188 61.9762 175.188C61.1794 175.188 60.5544 174.977 60.1012 174.555C59.6533 174.133 59.4294 173.573 59.4294 172.875C59.4294 171.38 60.3096 170.51 62.07 170.266L64.4684 169.93C64.4684 168.57 63.919 167.891 62.82 167.891C61.8565 167.891 60.9867 168.219 60.2106 168.875V167.562C60.9971 167.062 61.9033 166.812 62.9294 166.812C64.8096 166.812 65.7497 167.807 65.7497 169.797V175ZM64.4684 170.953L62.5387 171.219C61.945 171.302 61.4971 171.451 61.195 171.664C60.8929 171.872 60.7419 172.245 60.7419 172.781C60.7419 173.172 60.8799 173.492 61.1559 173.742C61.4372 173.987 61.8096 174.109 62.2731 174.109C62.9085 174.109 63.432 173.888 63.8434 173.445C64.2601 172.997 64.4684 172.432 64.4684 171.75V170.953ZM67.8119 174.773V173.516C68.5098 173.906 69.3249 174.102 70.2572 174.102C71.6686 174.102 72.3744 173.654 72.3744 172.758C72.3744 171.872 71.6009 171.43 70.0541 171.43H69.265V170.344H70.015C71.3744 170.344 72.0541 169.922 72.0541 169.078C72.0541 168.719 71.8978 168.432 71.5853 168.219C71.2728 168.005 70.8457 167.898 70.3041 167.898C69.528 167.898 68.7494 168.094 67.9681 168.484V167.289C68.8535 166.966 69.666 166.805 70.4056 166.805C72.3535 166.805 73.3275 167.521 73.3275 168.953C73.3275 169.417 73.1817 169.818 72.89 170.156C72.6035 170.49 72.1999 170.711 71.6791 170.82V170.859C72.2728 170.906 72.7494 171.107 73.1087 171.461C73.4681 171.815 73.6478 172.263 73.6478 172.805C73.6478 173.534 73.3535 174.115 72.765 174.547C72.1765 174.979 71.3666 175.195 70.3353 175.195C69.2364 175.195 68.3952 175.055 67.8119 174.773ZM81.7803 175H80.5069V168.086H78.6475C78.434 170.674 78.0668 172.492 77.5459 173.539C77.0303 174.586 76.335 175.109 75.46 175.109C75.1944 175.109 74.9652 175.073 74.7725 175V173.898C74.9548 173.992 75.1527 174.039 75.3662 174.039C76.5121 174.039 77.2491 171.693 77.5772 167H81.7803V175ZM91.405 175H90.2487V168.617C90.1342 168.841 89.9597 169.156 89.7253 169.562L86.03 175H84.7019V167H85.8737V173.305C85.9362 173.154 86.0717 172.896 86.28 172.531L90.0769 167H91.405V175ZM100.764 175H99.4906V171.781C98.5531 172.292 97.6885 172.547 96.8969 172.547C95.1052 172.547 94.2094 171.599 94.2094 169.703V167H95.4906V169.641C95.4906 170.812 95.9958 171.398 97.0062 171.398C97.7771 171.398 98.6052 171.174 99.4906 170.727V167H100.764V175ZM110.326 175H109.045V171.367H104.967V175H103.686V167H104.967V170.281H109.045V167H110.326V175ZM121.99 175H120.724V167H121.99V175ZM113.24 175V167H114.521V170.07H116.678C117.495 170.07 118.144 170.284 118.623 170.711C119.107 171.138 119.349 171.734 119.349 172.5C119.349 173.271 119.107 173.88 118.623 174.328C118.138 174.776 117.526 175 116.787 175H113.24ZM114.521 171.172V173.906H116.443C117.506 173.906 118.037 173.438 118.037 172.5C118.037 171.615 117.5 171.172 116.428 171.172H114.521ZM130.763 167L128.076 171.047L130.716 175H129.224L127.654 172.406C127.555 172.245 127.438 172.042 127.302 171.797H127.271C127.245 171.844 127.122 172.047 126.904 172.406L125.302 175H123.826L126.552 171.078L123.943 167H125.435L126.982 169.734C127.096 169.938 127.208 170.146 127.318 170.359H127.349L129.349 167H130.763ZM136.622 174.773V173.516C137.32 173.906 138.135 174.102 139.067 174.102C140.479 174.102 141.184 173.654 141.184 172.758C141.184 171.872 140.411 171.43 138.864 171.43H138.075V170.344H138.825C140.184 170.344 140.864 169.922 140.864 169.078C140.864 168.719 140.708 168.432 140.395 168.219C140.083 168.005 139.656 167.898 139.114 167.898C138.338 167.898 137.559 168.094 136.778 168.484V167.289C137.664 166.966 138.476 166.805 139.216 166.805C141.164 166.805 142.137 167.521 142.137 168.953C142.137 169.417 141.992 169.818 141.7 170.156C141.414 170.49 141.01 170.711 140.489 170.82V170.859C141.083 170.906 141.559 171.107 141.919 171.461C142.278 171.815 142.458 172.263 142.458 172.805C142.458 173.534 142.164 174.115 141.575 174.547C140.986 174.979 140.177 175.195 139.145 175.195C138.046 175.195 137.205 175.055 136.622 174.773ZM150.481 175H149.2V173.75H149.168C148.611 174.708 147.791 175.188 146.707 175.188C145.911 175.188 145.286 174.977 144.832 174.555C144.385 174.133 144.161 173.573 144.161 172.875C144.161 171.38 145.041 170.51 146.801 170.266L149.2 169.93C149.2 168.57 148.65 167.891 147.551 167.891C146.588 167.891 145.718 168.219 144.942 168.875V167.562C145.728 167.062 146.635 166.812 147.661 166.812C149.541 166.812 150.481 167.807 150.481 169.797V175ZM149.2 170.953L147.27 171.219C146.676 171.302 146.228 171.451 145.926 171.664C145.624 171.872 145.473 172.245 145.473 172.781C145.473 173.172 145.611 173.492 145.887 173.742C146.168 173.987 146.541 174.109 147.004 174.109C147.64 174.109 148.163 173.888 148.575 173.445C148.991 172.997 149.2 172.432 149.2 171.75V170.953ZM160.192 177.914H159.106V175H153.152V177.914H152.059V173.914H152.77C154.134 171.945 154.827 169.641 154.848 167H159.004V173.914H160.192V177.914ZM157.723 173.914V168.086H155.949C155.809 170.242 155.202 172.185 154.129 173.914H157.723ZM168.012 175H166.73V173.75H166.699C166.142 174.708 165.321 175.188 164.238 175.188C163.441 175.188 162.816 174.977 162.363 174.555C161.915 174.133 161.691 173.573 161.691 172.875C161.691 171.38 162.571 170.51 164.332 170.266L166.73 169.93C166.73 168.57 166.181 167.891 165.082 167.891C164.118 167.891 163.249 168.219 162.473 168.875V167.562C163.259 167.062 164.165 166.812 165.191 166.812C167.071 166.812 168.012 167.807 168.012 169.797V175ZM166.73 170.953L164.801 171.219C164.207 171.302 163.759 171.451 163.457 171.664C163.155 171.872 163.004 172.245 163.004 172.781C163.004 173.172 163.142 173.492 163.418 173.742C163.699 173.987 164.071 174.109 164.535 174.109C165.17 174.109 165.694 173.888 166.105 173.445C166.522 172.997 166.73 172.432 166.73 171.75V170.953ZM177.191 175H175.918V171.781C174.98 172.292 174.115 172.547 173.324 172.547C171.532 172.547 170.636 171.599 170.636 169.703V167H171.918V169.641C171.918 170.812 172.423 171.398 173.433 171.398C174.204 171.398 175.032 171.174 175.918 170.727V167H177.191V175Z" fill="black"/>
<path d="M136.296 705.243L-18.0568 766.921C-33.1805 772.964 -48.9725 759.809 -45.7612 743.842L-9.91317 565.607C-6.70186 549.64 12.9482 543.613 24.5594 555.033L143.065 671.591C153.611 681.964 150.034 699.753 136.296 705.243Z" stroke="#2DEFA9" stroke-opacity="0.08" stroke-width="21"/>
<path d="M392.711 573.627H390.034V576.304H388.629V573.627H385.937V572.215H388.629V569.523H390.034V572.215H392.711V573.627Z" fill="#48D8A5"/>
<path d="M353.429 183.627H350.752V186.304H349.347V183.627H346.655V182.215H349.347V179.523H350.752V182.215H353.429V183.627Z" fill="#48D8A5"/>
<path d="M23.4295 499.627H20.7518V502.304H19.3469V499.627H16.6553V498.215H19.3469V495.523H20.7518V498.215H23.4295V499.627Z" fill="#48D8A5"/>
<path d="M275.878 24.846H270.199V30.525H267.219V24.846H261.511V21.8517H267.219V16.1433H270.199V21.8517H275.878V24.846Z" fill="#48D8A5"/>
<circle cx="258.725" cy="335.725" r="137.011" transform="rotate(75 258.725 335.725)" stroke="#2CFC73" stroke-opacity="0.1" stroke-width="21.0999"/>
</svg>
